<svg width="1440" height="807" viewBox="0 0 1440 807" fill="none" xmlns="http://www.w3.org/2000/svg">
<path d="M0 204.5C54.8034 209.665 92.5 252 168 224.5C243.5 197 289.5 304.5 289.5 304.5M307.5 363.501C323.081 443.501 369.755 487.451 295 542.5M307.5 599.001C307.5 599.001 538 832.001 649.5 760.501C761 689.001 863.5 823.501 961 804.001C1058.5 784.501 1142 599.001 1142 599.001M1136.5 542.5C1136.5 542.5 1065.5 470 981 457.501C896.5 445.001 1080 363.501 1080 363.501M1136.5 303.5C1136.5 303.5 1243.5 181.5 1349 224.5C1454.5 267.5 1449.5 156.5 1449.5 156.5" stroke="#998986" stroke-width="2" stroke-linecap="round"/>
<path d="M772.707 540.056C777.368 537.231 783.708 537.976 790.276 541.673C796.829 545.361 803.503 551.937 808.717 560.539C813.931 569.142 816.672 578.102 816.909 585.617C817.147 593.151 814.874 599.117 810.214 601.941C805.553 604.766 799.213 604.019 792.645 600.322C786.093 596.635 779.418 590.059 774.204 581.456C768.991 572.853 766.25 563.894 766.012 556.378C765.775 548.845 768.047 542.88 772.707 540.056Z" fill="white" stroke="#998986"/>
<ellipse cx="796.472" cy="566.941" rx="22.5483" ry="34.9277" transform="rotate(-33.8114 796.472 566.941)" fill="#FD520F"/>
<path d="M683.142 434.738C683.142 434.738 632.298 438.275 630.529 466.129C628.761 493.982 707.459 608.935 733.102 616.892C758.745 624.85 785.714 587.27 785.714 587.27L771.566 559.859C771.566 559.859 731.335 562.512 750.345 575.775C769.355 589.038 678.277 490.887 672.973 474.529C667.669 458.171 695.964 466.129 695.964 466.129L683.142 434.738Z" stroke="#F74F3C" stroke-linecap="round"/>
<path d="M669.251 419.798C673.911 416.974 680.251 417.719 686.819 421.416C693.372 425.104 700.046 431.679 705.26 440.282C710.474 448.885 713.215 457.844 713.452 465.36C713.69 472.893 711.418 478.859 706.757 481.684C702.096 484.508 695.756 483.762 689.188 480.065C682.636 476.377 675.961 469.802 670.748 461.199C665.534 452.596 662.793 443.636 662.556 436.121C662.318 428.588 664.59 422.623 669.251 419.798Z" fill="white" stroke="#998986"/>
<ellipse cx="694.784" cy="447.568" rx="22.5483" ry="34.9277" transform="rotate(-33.8114 694.784 447.568)" fill="#FD520F"/>
<path d="M666.5 0C666.5 0 644 60.5 666.5 70C689 79.5 632.5 79.5 634.5 90C636.5 100.5 666.5 120.5 681 112C695.5 103.5 691 100 674 95.5C657 91 623 123.5 634.5 128.5C646 133.5 678.5 160.5 688 164.5C697.5 168.5 697.5 144 688 149.5C678.5 155 638 151 634.5 164.5C631 178 688 218 697.5 212C707 206 702.5 197 692.5 196.5C682.5 196 652.5 227 649 240C645.5 253 697.5 281 705 274C712.5 267 723.5 258.5 705 253C686.5 247.5 659 266 659 281C659 296 723 324 709 335.5C695 347 723.5 319 709 319C694.5 319 656.5 337 659 351.5C661.5 366 701.5 378 714 391C726.5 404 714 359 705 366C696 373 683.752 383.271 692.5 391C706.918 403.738 690.424 417.414 681 419" stroke="#998986" stroke-linecap="round"/>
</svg>
