<svg width="1395" height="831" viewBox="0 0 1395 831" fill="none" xmlns="http://www.w3.org/2000/svg">
<path d="M1.5 93.5001C116.749 133.538 228.178 178.166 171 288.5M157 694C152.004 764.893 278.5 746 286.5 805.5C294.5 865 379.5 792.5 418.5 805.5C457.5 818.5 437 694 437 694M372.5 288.5C264.721 241.685 499.319 -32.345 571.5 5.50012C645.844 51.0973 576.5 106 613 158C649.5 210 737 235.5 768.5 233C800 230.5 768.5 287.5 768.5 287.5M846 694C814.345 748.004 873.5 777.5 910.5 764C947.5 750.5 1038 801.954 1076.5 805.5C1115 809.046 1239.12 707.164 1234.5 694M1265.5 320.5C1284.84 247.515 1219 298.5 1265.5 179C1312 59.5001 1345.81 113.133 1400 93.5001" stroke="#998986" stroke-width="3" stroke-linecap="round"/>
</svg>
