<svg width="205" height="619" viewBox="0 0 205 619" fill="none" xmlns="http://www.w3.org/2000/svg">
<path d="M142.707 540.056C147.368 537.231 153.708 537.976 160.276 541.673C166.829 545.361 173.503 551.937 178.717 560.539C183.931 569.142 186.672 578.102 186.909 585.617C187.147 593.151 184.874 599.117 180.214 601.941C175.553 604.766 169.213 604.019 162.645 600.322C156.093 596.635 149.418 590.059 144.204 581.456C138.991 572.853 136.25 563.894 136.012 556.378C135.775 548.845 138.047 542.88 142.707 540.056Z" fill="white" stroke="#998986"/>
<ellipse cx="166.472" cy="566.941" rx="22.5483" ry="34.9277" transform="rotate(-33.8114 166.472 566.941)" fill="#FD520F"/>
<path d="M53.1419 434.738C53.1419 434.738 2.29782 438.275 0.529331 466.129C-1.23916 493.982 77.4587 608.935 103.102 616.892C128.745 624.85 155.714 587.27 155.714 587.27L141.566 559.859C141.566 559.859 101.335 562.512 120.345 575.775C139.355 589.038 48.2773 490.887 42.9731 474.529C37.6689 458.171 65.9635 466.129 65.9635 466.129L53.1419 434.738Z" stroke="#F74F3C" stroke-linecap="round"/>
<path d="M39.2506 419.798C43.9112 416.974 50.2513 417.719 56.8195 421.416C63.3722 425.104 70.0464 431.679 75.2603 440.282C80.4742 448.885 83.2149 457.844 83.4522 465.36C83.6899 472.893 81.4177 478.859 76.757 481.684C72.0964 484.508 65.7565 483.762 59.1884 480.065C52.6358 476.377 45.9614 469.802 40.7476 461.199C35.5337 452.596 32.7929 443.636 32.5557 436.121C32.318 428.588 34.5902 422.623 39.2506 419.798Z" fill="white" stroke="#998986"/>
<ellipse cx="64.7839" cy="447.568" rx="22.5483" ry="34.9277" transform="rotate(-33.8114 64.7839 447.568)" fill="#FD520F"/>
<path d="M36.4999 0C36.4999 0 13.9999 60.5 36.4999 70C58.9999 79.5 2.49994 79.5 4.49994 90C6.49994 100.5 36.4999 120.5 50.9999 112C65.4999 103.5 60.9999 100 43.9999 95.5C26.9999 91 -7.00008 123.5 4.49994 128.5C15.9999 133.5 48.4999 160.5 57.9999 164.5C67.4999 168.5 67.4999 144 57.9999 149.5C48.4999 155 7.99987 151 4.49994 164.5C1 178 57.9999 218 67.5 212C77 206 72.5 197 62.4999 196.5C52.4999 196 22.4999 227 18.9999 240C15.5 253 67.5 281 75 274C82.5 267 93.5 258.5 75 253C56.4999 247.5 28.9999 266 28.9999 281C28.9999 296 92.9999 324 79 335.5C65 347 93.5 319 79 319C64.4999 319 26.4999 337 28.9999 351.5C31.5 366 71.4999 378 84 391C96.5 404 84 359 75 366C66 373 53.7519 383.271 62.4999 391C76.9182 403.738 60.424 417.414 50.9999 419" stroke="#998986" stroke-linecap="round"/>
</svg>
