<svg width="300" height="55" viewBox="0 0 300 55" fill="none" xmlns="http://www.w3.org/2000/svg">
<g filter="url(#filter0_d_399_436)">
<rect x="4" width="292" height="46.2927" rx="23.1463" fill="#FFA480"/>
</g>
<g filter="url(#filter1_d_399_436)">
<rect x="8.74805" y="3.56104" width="282.504" height="37.9837" rx="18.9919" fill="#FA8128"/>
</g>
<path d="M50.2293 27.3088V13.3088H55.1993C55.9193 13.3088 56.5693 13.4555 57.1493 13.7488C57.736 14.0422 58.1993 14.4655 58.5393 15.0188C58.886 15.5655 59.0593 16.2222 59.0593 16.9888C59.0593 17.3622 58.9993 17.7288 58.8793 18.0888C58.7593 18.4488 58.5893 18.7655 58.3693 19.0388C58.1493 19.3122 57.8827 19.5055 57.5693 19.6188C57.996 19.7255 58.3493 19.9188 58.6293 20.1988C58.916 20.4722 59.1427 20.7922 59.3093 21.1588C59.476 21.5255 59.5927 21.9055 59.6593 22.2988C59.7327 22.6922 59.7693 23.0655 59.7693 23.4188C59.7693 24.1655 59.5893 24.8322 59.2293 25.4188C58.8693 26.0055 58.386 26.4688 57.7793 26.8088C57.1793 27.1422 56.516 27.3088 55.7893 27.3088H50.2293ZM52.3093 25.5088H55.5893C56.016 25.5088 56.4027 25.4022 56.7493 25.1888C57.1027 24.9755 57.3827 24.6822 57.5893 24.3088C57.796 23.9288 57.8993 23.5022 57.8993 23.0288C57.8993 22.6155 57.796 22.2255 57.5893 21.8588C57.3827 21.4855 57.1027 21.1855 56.7493 20.9588C56.4027 20.7322 56.016 20.6188 55.5893 20.6188H52.3093V25.5088ZM52.3093 18.8488H54.9793C55.526 18.8488 55.996 18.6822 56.3893 18.3488C56.7827 18.0155 56.9793 17.5588 56.9793 16.9788C56.9793 16.3588 56.7827 15.8955 56.3893 15.5888C55.996 15.2755 55.526 15.1188 54.9793 15.1188H52.3093V18.8488ZM65.7036 27.5688C64.7836 27.5688 63.9436 27.3322 63.1836 26.8588C62.4302 26.3855 61.8269 25.7522 61.3736 24.9588C60.9269 24.1588 60.7036 23.2755 60.7036 22.3088C60.7036 21.5755 60.8336 20.8922 61.0936 20.2588C61.3536 19.6188 61.7102 19.0588 62.1636 18.5788C62.6236 18.0922 63.1569 17.7122 63.7636 17.4388C64.3702 17.1655 65.0169 17.0288 65.7036 17.0288C66.6236 17.0288 67.4602 17.2655 68.2136 17.7388C68.9736 18.2122 69.5769 18.8488 70.0236 19.6488C70.4769 20.4488 70.7036 21.3355 70.7036 22.3088C70.7036 23.0355 70.5736 23.7155 70.3136 24.3488C70.0536 24.9822 69.6936 25.5422 69.2336 26.0288C68.7802 26.5088 68.2502 26.8855 67.6436 27.1588C67.0436 27.4322 66.3969 27.5688 65.7036 27.5688ZM65.7036 25.4888C66.2569 25.4888 66.7536 25.3422 67.1936 25.0488C67.6336 24.7555 67.9802 24.3688 68.2336 23.8888C68.4936 23.4022 68.6236 22.8755 68.6236 22.3088C68.6236 21.7288 68.4902 21.1955 68.2236 20.7088C67.9636 20.2222 67.6136 19.8355 67.1736 19.5488C66.7336 19.2555 66.2436 19.1088 65.7036 19.1088C65.1569 19.1088 64.6602 19.2555 64.2136 19.5488C63.7736 19.8422 63.4236 20.2322 63.1636 20.7188C62.9102 21.2055 62.7836 21.7355 62.7836 22.3088C62.7836 22.9022 62.9169 23.4388 63.1836 23.9188C63.4502 24.3988 63.8036 24.7822 64.2436 25.0688C64.6902 25.3488 65.1769 25.4888 65.7036 25.4888ZM76.6997 27.5688C75.7797 27.5688 74.9397 27.3322 74.1797 26.8588C73.4263 26.3855 72.823 25.7522 72.3697 24.9588C71.923 24.1588 71.6997 23.2755 71.6997 22.3088C71.6997 21.5755 71.8297 20.8922 72.0897 20.2588C72.3497 19.6188 72.7063 19.0588 73.1597 18.5788C73.6197 18.0922 74.153 17.7122 74.7597 17.4388C75.3663 17.1655 76.013 17.0288 76.6997 17.0288C77.6197 17.0288 78.4563 17.2655 79.2097 17.7388C79.9697 18.2122 80.573 18.8488 81.0197 19.6488C81.473 20.4488 81.6997 21.3355 81.6997 22.3088C81.6997 23.0355 81.5697 23.7155 81.3097 24.3488C81.0497 24.9822 80.6897 25.5422 80.2297 26.0288C79.7763 26.5088 79.2463 26.8855 78.6397 27.1588C78.0397 27.4322 77.393 27.5688 76.6997 27.5688ZM76.6997 25.4888C77.253 25.4888 77.7497 25.3422 78.1897 25.0488C78.6297 24.7555 78.9763 24.3688 79.2297 23.8888C79.4897 23.4022 79.6197 22.8755 79.6197 22.3088C79.6197 21.7288 79.4863 21.1955 79.2197 20.7088C78.9597 20.2222 78.6097 19.8355 78.1697 19.5488C77.7297 19.2555 77.2397 19.1088 76.6997 19.1088C76.153 19.1088 75.6563 19.2555 75.2097 19.5488C74.7697 19.8422 74.4197 20.2322 74.1597 20.7188C73.9063 21.2055 73.7797 21.7355 73.7797 22.3088C73.7797 22.9022 73.913 23.4388 74.1797 23.9188C74.4463 24.3988 74.7997 24.7822 75.2397 25.0688C75.6863 25.3488 76.173 25.4888 76.6997 25.4888ZM91.7286 27.3088H89.3286L86.8686 23.0688L85.2586 24.9888V27.3088H83.1786V12.3088H85.2586V21.7588L88.9786 17.3088H91.6986L88.2886 21.3788L91.7286 27.3088ZM98.3739 27.3088V13.3088H100.454V25.2288H106.484V27.3088H98.3739ZM107.31 23.5588V17.3088H109.39V23.0488C109.39 23.4955 109.5 23.9022 109.72 24.2688C109.94 24.6355 110.233 24.9288 110.6 25.1488C110.966 25.3622 111.37 25.4688 111.81 25.4688C112.256 25.4688 112.66 25.3622 113.02 25.1488C113.386 24.9288 113.676 24.6355 113.89 24.2688C114.11 23.9022 114.22 23.4955 114.22 23.0488V17.3088H116.3L116.31 27.3088H114.23L114.22 26.2288C113.88 26.6422 113.456 26.9688 112.95 27.2088C112.443 27.4488 111.9 27.5688 111.32 27.5688C110.58 27.5688 109.906 27.3888 109.3 27.0288C108.693 26.6688 108.21 26.1855 107.85 25.5788C107.49 24.9722 107.31 24.2988 107.31 23.5588ZM125.789 17.3088H127.869V27.5688C127.869 28.2555 127.722 28.8888 127.429 29.4688C127.142 30.0488 126.752 30.5488 126.259 30.9688C125.765 31.3955 125.199 31.7255 124.559 31.9588C123.925 32.1922 123.262 32.3088 122.569 32.3088C121.869 32.3088 121.195 32.1588 120.549 31.8588C119.902 31.5655 119.332 31.1655 118.839 30.6588C118.352 30.1522 117.989 29.5788 117.749 28.9388L119.659 28.0788C119.792 28.4922 120.005 28.8588 120.299 29.1788C120.599 29.4988 120.945 29.7522 121.339 29.9388C121.739 30.1255 122.149 30.2188 122.569 30.2188C122.982 30.2188 123.379 30.1522 123.759 30.0188C124.145 29.8922 124.489 29.7122 124.789 29.4788C125.095 29.2455 125.339 28.9655 125.519 28.6388C125.699 28.3122 125.789 27.9555 125.789 27.5688V25.8788C125.462 26.3855 125.042 26.7955 124.529 27.1088C124.015 27.4155 123.419 27.5688 122.739 27.5688C122.032 27.5688 121.365 27.4322 120.739 27.1588C120.112 26.8855 119.562 26.5088 119.089 26.0288C118.615 25.5422 118.245 24.9822 117.979 24.3488C117.712 23.7155 117.579 23.0355 117.579 22.3088C117.579 21.5822 117.712 20.9022 117.979 20.2688C118.245 19.6288 118.615 19.0688 119.089 18.5888C119.562 18.1022 120.112 17.7222 120.739 17.4488C121.365 17.1755 122.032 17.0388 122.739 17.0388C123.419 17.0388 124.015 17.1955 124.529 17.5088C125.042 17.8155 125.462 18.2255 125.789 18.7388V17.3088ZM122.759 25.5588C123.339 25.5588 123.845 25.4122 124.279 25.1188C124.712 24.8188 125.049 24.4222 125.289 23.9288C125.529 23.4355 125.649 22.8955 125.649 22.3088C125.649 21.7088 125.525 21.1655 125.279 20.6788C125.039 20.1855 124.702 19.7922 124.269 19.4988C123.835 19.1988 123.332 19.0488 122.759 19.0488C122.199 19.0488 121.685 19.1955 121.219 19.4888C120.759 19.7822 120.392 20.1755 120.119 20.6688C119.845 21.1622 119.709 21.7088 119.709 22.3088C119.709 22.9088 119.845 23.4555 120.119 23.9488C120.399 24.4422 120.769 24.8355 121.229 25.1288C121.695 25.4155 122.205 25.5588 122.759 25.5588ZM137.703 17.3088H139.783V27.5688C139.783 28.2555 139.636 28.8888 139.343 29.4688C139.056 30.0488 138.666 30.5488 138.173 30.9688C137.679 31.3955 137.113 31.7255 136.473 31.9588C135.839 32.1922 135.176 32.3088 134.483 32.3088C133.783 32.3088 133.109 32.1588 132.463 31.8588C131.816 31.5655 131.246 31.1655 130.753 30.6588C130.266 30.1522 129.903 29.5788 129.663 28.9388L131.573 28.0788C131.706 28.4922 131.919 28.8588 132.213 29.1788C132.513 29.4988 132.859 29.7522 133.253 29.9388C133.653 30.1255 134.063 30.2188 134.483 30.2188C134.896 30.2188 135.293 30.1522 135.673 30.0188C136.059 29.8922 136.403 29.7122 136.703 29.4788C137.009 29.2455 137.253 28.9655 137.433 28.6388C137.613 28.3122 137.703 27.9555 137.703 27.5688V25.8788C137.376 26.3855 136.956 26.7955 136.443 27.1088C135.929 27.4155 135.333 27.5688 134.653 27.5688C133.946 27.5688 133.279 27.4322 132.653 27.1588C132.026 26.8855 131.476 26.5088 131.003 26.0288C130.529 25.5422 130.159 24.9822 129.893 24.3488C129.626 23.7155 129.493 23.0355 129.493 22.3088C129.493 21.5822 129.626 20.9022 129.893 20.2688C130.159 19.6288 130.529 19.0688 131.003 18.5888C131.476 18.1022 132.026 17.7222 132.653 17.4488C133.279 17.1755 133.946 17.0388 134.653 17.0388C135.333 17.0388 135.929 17.1955 136.443 17.5088C136.956 17.8155 137.376 18.2255 137.703 18.7388V17.3088ZM134.673 25.5588C135.253 25.5588 135.759 25.4122 136.193 25.1188C136.626 24.8188 136.963 24.4222 137.203 23.9288C137.443 23.4355 137.563 22.8955 137.563 22.3088C137.563 21.7088 137.439 21.1655 137.193 20.6788C136.953 20.1855 136.616 19.7922 136.183 19.4988C135.749 19.1988 135.246 19.0488 134.673 19.0488C134.113 19.0488 133.599 19.1955 133.133 19.4888C132.673 19.7822 132.306 20.1755 132.033 20.6688C131.759 21.1622 131.623 21.7088 131.623 22.3088C131.623 22.9088 131.759 23.4555 132.033 23.9488C132.313 24.4422 132.683 24.8355 133.143 25.1288C133.609 25.4155 134.119 25.5588 134.673 25.5588ZM149.787 17.3088H151.867V27.3088H149.777L149.697 25.8588C149.403 26.3722 149.007 26.7855 148.507 27.0988C148.007 27.4122 147.417 27.5688 146.737 27.5688C146.003 27.5688 145.313 27.4322 144.667 27.1588C144.02 26.8788 143.45 26.4922 142.957 25.9988C142.47 25.5055 142.09 24.9388 141.817 24.2988C141.543 23.6522 141.407 22.9588 141.407 22.2188C141.407 21.5055 141.54 20.8355 141.807 20.2088C142.073 19.5755 142.443 19.0222 142.917 18.5488C143.39 18.0755 143.937 17.7055 144.557 17.4388C145.183 17.1655 145.853 17.0288 146.567 17.0288C147.293 17.0288 147.933 17.1955 148.487 17.5288C149.047 17.8555 149.51 18.2755 149.877 18.7888L149.787 17.3088ZM146.687 25.5588C147.273 25.5588 147.787 25.4155 148.227 25.1288C148.667 24.8355 149.007 24.4422 149.247 23.9488C149.493 23.4555 149.617 22.9088 149.617 22.3088C149.617 21.7022 149.493 21.1522 149.247 20.6588C149 20.1655 148.657 19.7755 148.217 19.4888C147.783 19.1955 147.273 19.0488 146.687 19.0488C146.107 19.0488 145.577 19.1955 145.097 19.4888C144.617 19.7822 144.237 20.1755 143.957 20.6688C143.677 21.1622 143.537 21.7088 143.537 22.3088C143.537 22.9155 143.68 23.4655 143.967 23.9588C144.26 24.4455 144.643 24.8355 145.117 25.1288C145.597 25.4155 146.12 25.5588 146.687 25.5588ZM161.277 17.3088H163.357V27.5688C163.357 28.2555 163.21 28.8888 162.917 29.4688C162.63 30.0488 162.24 30.5488 161.747 30.9688C161.254 31.3955 160.687 31.7255 160.047 31.9588C159.414 32.1922 158.75 32.3088 158.057 32.3088C157.357 32.3088 156.684 32.1588 156.037 31.8588C155.39 31.5655 154.82 31.1655 154.327 30.6588C153.84 30.1522 153.477 29.5788 153.237 28.9388L155.147 28.0788C155.28 28.4922 155.494 28.8588 155.787 29.1788C156.087 29.4988 156.434 29.7522 156.827 29.9388C157.227 30.1255 157.637 30.2188 158.057 30.2188C158.47 30.2188 158.867 30.1522 159.247 30.0188C159.634 29.8922 159.977 29.7122 160.277 29.4788C160.584 29.2455 160.827 28.9655 161.007 28.6388C161.187 28.3122 161.277 27.9555 161.277 27.5688V25.8788C160.95 26.3855 160.53 26.7955 160.017 27.1088C159.504 27.4155 158.907 27.5688 158.227 27.5688C157.52 27.5688 156.854 27.4322 156.227 27.1588C155.6 26.8855 155.05 26.5088 154.577 26.0288C154.104 25.5422 153.734 24.9822 153.467 24.3488C153.2 23.7155 153.067 23.0355 153.067 22.3088C153.067 21.5822 153.2 20.9022 153.467 20.2688C153.734 19.6288 154.104 19.0688 154.577 18.5888C155.05 18.1022 155.6 17.7222 156.227 17.4488C156.854 17.1755 157.52 17.0388 158.227 17.0388C158.907 17.0388 159.504 17.1955 160.017 17.5088C160.53 17.8155 160.95 18.2255 161.277 18.7388V17.3088ZM158.247 25.5588C158.827 25.5588 159.334 25.4122 159.767 25.1188C160.2 24.8188 160.537 24.4222 160.777 23.9288C161.017 23.4355 161.137 22.8955 161.137 22.3088C161.137 21.7088 161.014 21.1655 160.767 20.6788C160.527 20.1855 160.19 19.7922 159.757 19.4988C159.324 19.1988 158.82 19.0488 158.247 19.0488C157.687 19.0488 157.174 19.1955 156.707 19.4888C156.247 19.7822 155.88 20.1755 155.607 20.6688C155.334 21.1622 155.197 21.7088 155.197 22.3088C155.197 22.9088 155.334 23.4555 155.607 23.9488C155.887 24.4422 156.257 24.8355 156.717 25.1288C157.184 25.4155 157.694 25.5588 158.247 25.5588ZM169.981 27.5688C169.061 27.5688 168.221 27.3322 167.461 26.8588C166.708 26.3855 166.104 25.7522 165.651 24.9588C165.204 24.1588 164.981 23.2755 164.981 22.3088C164.981 21.5755 165.111 20.8922 165.371 20.2588C165.631 19.6188 165.988 19.0588 166.441 18.5788C166.901 18.0922 167.434 17.7122 168.041 17.4388C168.648 17.1655 169.294 17.0288 169.981 17.0288C170.748 17.0288 171.451 17.1888 172.091 17.5088C172.731 17.8222 173.278 18.2588 173.731 18.8188C174.184 19.3722 174.518 20.0122 174.731 20.7388C174.944 21.4588 175.008 22.2255 174.921 23.0388H167.211C167.298 23.4988 167.464 23.9155 167.711 24.2888C167.964 24.6555 168.284 24.9455 168.671 25.1588C169.064 25.3722 169.501 25.4822 169.981 25.4888C170.488 25.4888 170.948 25.3622 171.361 25.1088C171.781 24.8555 172.124 24.5055 172.391 24.0588L174.501 24.5488C174.101 25.4355 173.498 26.1622 172.691 26.7288C171.884 27.2888 170.981 27.5688 169.981 27.5688ZM167.141 21.4488H172.821C172.754 20.9688 172.584 20.5355 172.311 20.1488C172.044 19.7555 171.708 19.4455 171.301 19.2188C170.901 18.9855 170.461 18.8688 169.981 18.8688C169.508 18.8688 169.068 18.9822 168.661 19.2088C168.261 19.4355 167.928 19.7455 167.661 20.1388C167.401 20.5255 167.228 20.9622 167.141 21.4488ZM186.547 27.5688C185.781 27.5688 185.044 27.4488 184.337 27.2088C183.631 26.9688 183.014 26.6255 182.487 26.1788C181.961 25.7255 181.584 25.1888 181.357 24.5688L183.307 23.8388C183.421 24.1588 183.637 24.4455 183.957 24.6988C184.284 24.9455 184.671 25.1388 185.117 25.2788C185.571 25.4188 186.047 25.4888 186.547 25.4888C187.081 25.4888 187.581 25.4022 188.047 25.2288C188.521 25.0555 188.901 24.8155 189.187 24.5088C189.481 24.2022 189.627 23.8422 189.627 23.4288C189.627 23.0022 189.474 22.6522 189.167 22.3788C188.867 22.1055 188.481 21.8888 188.007 21.7288C187.541 21.5688 187.054 21.4488 186.547 21.3688C185.567 21.2088 184.687 20.9755 183.907 20.6688C183.134 20.3622 182.521 19.9322 182.067 19.3788C181.621 18.8255 181.397 18.1055 181.397 17.2188C181.397 16.3855 181.634 15.6588 182.107 15.0388C182.587 14.4188 183.217 13.9388 183.997 13.5988C184.784 13.2522 185.634 13.0788 186.547 13.0788C187.301 13.0788 188.027 13.1988 188.727 13.4388C189.434 13.6722 190.054 14.0155 190.587 14.4688C191.127 14.9155 191.514 15.4588 191.747 16.0988L189.777 16.8088C189.664 16.4822 189.447 16.1988 189.127 15.9588C188.807 15.7122 188.421 15.5188 187.967 15.3788C187.521 15.2388 187.047 15.1688 186.547 15.1688C186.014 15.1622 185.514 15.2488 185.047 15.4288C184.587 15.6022 184.211 15.8422 183.917 16.1488C183.624 16.4555 183.477 16.8122 183.477 17.2188C183.477 17.7188 183.614 18.0988 183.887 18.3588C184.161 18.6188 184.527 18.8122 184.987 18.9388C185.454 19.0588 185.974 19.1688 186.547 19.2688C187.467 19.4155 188.317 19.6588 189.097 19.9988C189.884 20.3388 190.514 20.7922 190.987 21.3588C191.467 21.9188 191.707 22.6088 191.707 23.4288C191.707 24.2555 191.467 24.9822 190.987 25.6088C190.514 26.2288 189.884 26.7122 189.097 27.0588C188.317 27.3988 187.467 27.5688 186.547 27.5688ZM199.044 19.3888H196.944L196.934 27.3088H194.854L194.864 19.3888H193.274V17.3088H194.864L194.854 14.1688H196.934L196.944 17.3088H199.044V19.3888ZM205 27.5688C204.08 27.5688 203.24 27.3322 202.48 26.8588C201.727 26.3855 201.124 25.7522 200.67 24.9588C200.224 24.1588 200 23.2755 200 22.3088C200 21.5755 200.13 20.8922 200.39 20.2588C200.65 19.6188 201.007 19.0588 201.46 18.5788C201.92 18.0922 202.454 17.7122 203.06 17.4388C203.667 17.1655 204.314 17.0288 205 17.0288C205.92 17.0288 206.757 17.2655 207.51 17.7388C208.27 18.2122 208.874 18.8488 209.32 19.6488C209.774 20.4488 210 21.3355 210 22.3088C210 23.0355 209.87 23.7155 209.61 24.3488C209.35 24.9822 208.99 25.5422 208.53 26.0288C208.077 26.5088 207.547 26.8855 206.94 27.1588C206.34 27.4322 205.694 27.5688 205 27.5688ZM205 25.4888C205.554 25.4888 206.05 25.3422 206.49 25.0488C206.93 24.7555 207.277 24.3688 207.53 23.8888C207.79 23.4022 207.92 22.8755 207.92 22.3088C207.92 21.7288 207.787 21.1955 207.52 20.7088C207.26 20.2222 206.91 19.8355 206.47 19.5488C206.03 19.2555 205.54 19.1088 205 19.1088C204.454 19.1088 203.957 19.2555 203.51 19.5488C203.07 19.8422 202.72 20.2322 202.46 20.7188C202.207 21.2055 202.08 21.7355 202.08 22.3088C202.08 22.9022 202.214 23.4388 202.48 23.9188C202.747 24.3988 203.1 24.7822 203.54 25.0688C203.987 25.3488 204.474 25.4888 205 25.4888ZM211.616 27.3088V17.3088H213.696V18.3688C214.043 17.9555 214.469 17.6288 214.976 17.3888C215.483 17.1488 216.029 17.0288 216.616 17.0288C216.989 17.0288 217.359 17.0788 217.726 17.1788L216.896 19.2788C216.636 19.1788 216.376 19.1288 216.116 19.1288C215.676 19.1288 215.273 19.2388 214.906 19.4588C214.539 19.6722 214.246 19.9622 214.026 20.3288C213.806 20.6955 213.696 21.1022 213.696 21.5488V27.3088H211.616ZM226.193 17.3088H228.273V27.3088H226.183L226.103 25.8588C225.81 26.3722 225.413 26.7855 224.913 27.0988C224.413 27.4122 223.823 27.5688 223.143 27.5688C222.41 27.5688 221.72 27.4322 221.073 27.1588C220.426 26.8788 219.856 26.4922 219.363 25.9988C218.876 25.5055 218.496 24.9388 218.223 24.2988C217.95 23.6522 217.813 22.9588 217.813 22.2188C217.813 21.5055 217.946 20.8355 218.213 20.2088C218.48 19.5755 218.85 19.0222 219.323 18.5488C219.796 18.0755 220.343 17.7055 220.963 17.4388C221.59 17.1655 222.26 17.0288 222.973 17.0288C223.7 17.0288 224.34 17.1955 224.893 17.5288C225.453 17.8555 225.916 18.2755 226.283 18.7888L226.193 17.3088ZM223.093 25.5588C223.68 25.5588 224.193 25.4155 224.633 25.1288C225.073 24.8355 225.413 24.4422 225.653 23.9488C225.9 23.4555 226.023 22.9088 226.023 22.3088C226.023 21.7022 225.9 21.1522 225.653 20.6588C225.406 20.1655 225.063 19.7755 224.623 19.4888C224.19 19.1955 223.68 19.0488 223.093 19.0488C222.513 19.0488 221.983 19.1955 221.503 19.4888C221.023 19.7822 220.643 20.1755 220.363 20.6688C220.083 21.1622 219.943 21.7088 219.943 22.3088C219.943 22.9155 220.086 23.4655 220.373 23.9588C220.666 24.4455 221.05 24.8355 221.523 25.1288C222.003 25.4155 222.526 25.5588 223.093 25.5588ZM237.683 17.3088H239.763V27.5688C239.763 28.2555 239.616 28.8888 239.323 29.4688C239.036 30.0488 238.646 30.5488 238.153 30.9688C237.66 31.3955 237.093 31.7255 236.453 31.9588C235.82 32.1922 235.156 32.3088 234.463 32.3088C233.763 32.3088 233.09 32.1588 232.443 31.8588C231.796 31.5655 231.226 31.1655 230.733 30.6588C230.246 30.1522 229.883 29.5788 229.643 28.9388L231.553 28.0788C231.686 28.4922 231.9 28.8588 232.193 29.1788C232.493 29.4988 232.84 29.7522 233.233 29.9388C233.633 30.1255 234.043 30.2188 234.463 30.2188C234.876 30.2188 235.273 30.1522 235.653 30.0188C236.04 29.8922 236.383 29.7122 236.683 29.4788C236.99 29.2455 237.233 28.9655 237.413 28.6388C237.593 28.3122 237.683 27.9555 237.683 27.5688V25.8788C237.356 26.3855 236.936 26.7955 236.423 27.1088C235.91 27.4155 235.313 27.5688 234.633 27.5688C233.926 27.5688 233.26 27.4322 232.633 27.1588C232.006 26.8855 231.456 26.5088 230.983 26.0288C230.51 25.5422 230.14 24.9822 229.873 24.3488C229.606 23.7155 229.473 23.0355 229.473 22.3088C229.473 21.5822 229.606 20.9022 229.873 20.2688C230.14 19.6288 230.51 19.0688 230.983 18.5888C231.456 18.1022 232.006 17.7222 232.633 17.4488C233.26 17.1755 233.926 17.0388 234.633 17.0388C235.313 17.0388 235.91 17.1955 236.423 17.5088C236.936 17.8155 237.356 18.2255 237.683 18.7388V17.3088ZM234.653 25.5588C235.233 25.5588 235.74 25.4122 236.173 25.1188C236.606 24.8188 236.943 24.4222 237.183 23.9288C237.423 23.4355 237.543 22.8955 237.543 22.3088C237.543 21.7088 237.42 21.1655 237.173 20.6788C236.933 20.1855 236.596 19.7922 236.163 19.4988C235.73 19.1988 235.226 19.0488 234.653 19.0488C234.093 19.0488 233.58 19.1955 233.113 19.4888C232.653 19.7822 232.286 20.1755 232.013 20.6688C231.74 21.1622 231.603 21.7088 231.603 22.3088C231.603 22.9088 231.74 23.4555 232.013 23.9488C232.293 24.4422 232.663 24.8355 233.123 25.1288C233.59 25.4155 234.1 25.5588 234.653 25.5588ZM246.387 27.5688C245.467 27.5688 244.627 27.3322 243.867 26.8588C243.114 26.3855 242.51 25.7522 242.057 24.9588C241.61 24.1588 241.387 23.2755 241.387 22.3088C241.387 21.5755 241.517 20.8922 241.777 20.2588C242.037 19.6188 242.394 19.0588 242.847 18.5788C243.307 18.0922 243.84 17.7122 244.447 17.4388C245.054 17.1655 245.7 17.0288 246.387 17.0288C247.154 17.0288 247.857 17.1888 248.497 17.5088C249.137 17.8222 249.684 18.2588 250.137 18.8188C250.59 19.3722 250.924 20.0122 251.137 20.7388C251.35 21.4588 251.414 22.2255 251.327 23.0388H243.617C243.704 23.4988 243.87 23.9155 244.117 24.2888C244.37 24.6555 244.69 24.9455 245.077 25.1588C245.47 25.3722 245.907 25.4822 246.387 25.4888C246.894 25.4888 247.354 25.3622 247.767 25.1088C248.187 24.8555 248.53 24.5055 248.797 24.0588L250.907 24.5488C250.507 25.4355 249.904 26.1622 249.097 26.7288C248.29 27.2888 247.387 27.5688 246.387 27.5688ZM243.547 21.4488H249.227C249.16 20.9688 248.99 20.5355 248.717 20.1488C248.45 19.7555 248.114 19.4455 247.707 19.2188C247.307 18.9855 246.867 18.8688 246.387 18.8688C245.914 18.8688 245.474 18.9822 245.067 19.2088C244.667 19.4355 244.334 19.7455 244.067 20.1388C243.807 20.5255 243.634 20.9622 243.547 21.4488Z" fill="white"/>
<defs>
<filter id="filter0_d_399_436" x="0" y="0" width="300" height="54.2927" filterUnits="userSpaceOnUse" color-interpolation-filters="sRGB">
<feFlood flood-opacity="0" result="BackgroundImageFix"/>
<feColorMatrix in="SourceAlpha" type="matrix" values="0 0 0 0 0 0 0 0 0 0 0 0 0 0 0 0 0 0 127 0" result="hardAlpha"/>
<feOffset dy="4"/>
<feGaussianBlur stdDeviation="2"/>
<feComposite in2="hardAlpha" operator="out"/>
<feColorMatrix type="matrix" values="0 0 0 0 0 0 0 0 0 0 0 0 0 0 0 0 0 0 0.25 0"/>
<feBlend mode="normal" in2="BackgroundImageFix" result="effect1_dropShadow_399_436"/>
<feBlend mode="normal" in="SourceGraphic" in2="effect1_dropShadow_399_436" result="shape"/>
</filter>
<filter id="filter1_d_399_436" x="6.74805" y="3.56104" width="286.504" height="41.9836" filterUnits="userSpaceOnUse" color-interpolation-filters="sRGB">
<feFlood flood-opacity="0" result="BackgroundImageFix"/>
<feColorMatrix in="SourceAlpha" type="matrix" values="0 0 0 0 0 0 0 0 0 0 0 0 0 0 0 0 0 0 127 0" result="hardAlpha"/>
<feOffset dy="2"/>
<feGaussianBlur stdDeviation="1"/>
<feComposite in2="hardAlpha" operator="out"/>
<feColorMatrix type="matrix" values="0 0 0 0 0 0 0 0 0 0 0 0 0 0 0 0 0 0 0.25 0"/>
<feBlend mode="normal" in2="BackgroundImageFix" result="effect1_dropShadow_399_436"/>
<feBlend mode="normal" in="SourceGraphic" in2="effect1_dropShadow_399_436" result="shape"/>
</filter>
</defs>
</svg>
