<svg width="1440" height="652" viewBox="0 0 1440 652" fill="none" xmlns="http://www.w3.org/2000/svg">
<path d="M0 49C54.8034 54.1645 92.5 96.5 168 69C243.5 41.5 289.5 149 289.5 149M307.5 208C323.081 288.001 369.755 331.951 295 387M307.5 443.5C307.5 443.5 538 676.5 649.5 605C761 533.5 863.5 668 961 648.5C1058.5 629 1142 443.5 1142 443.5M1136.5 387C1136.5 387 1065.5 314.5 981 302C896.5 289.5 1080 208 1080 208M1136.5 148C1136.5 148 1243.5 26 1349 69C1454.5 112 1449.5 1 1449.5 1" stroke="#998986" stroke-width="2" stroke-linecap="round"/>
</svg>
