<svg width="1440" height="244" viewBox="0 0 1440 244" fill="none" xmlns="http://www.w3.org/2000/svg">
<mask id="path-1-outside-1_231_202" maskUnits="userSpaceOnUse" x="-74" y="0" width="1566" height="251" fill="black">
<rect fill="white" x="-74" width="1566" height="251"/>
<path d="M52.8611 248.75C35.4444 248.75 19.1713 245.583 4.04167 239.25C-11.088 232.741 -24.4583 223.856 -36.0694 212.597C-47.5046 201.338 -56.4769 188.231 -62.9861 173.278C-69.4954 158.324 -72.75 142.315 -72.75 125.25C-72.75 108.185 -69.4954 92.1759 -62.9861 77.2222C-56.4769 62.2685 -47.5046 49.162 -36.0694 37.9028C-24.4583 26.6435 -11.088 17.8472 4.04167 11.5139C19.1713 5.00463 35.4444 1.75 52.8611 1.75C68.5185 1.75 83.2963 4.30093 97.1944 9.40277C111.093 14.5046 123.495 21.7176 134.403 31.0417L120.944 86.4583C114.435 75.5509 105.463 66.4028 94.0278 59.0139C82.5926 51.4491 69.3982 47.6667 54.4445 47.6667C40.1945 47.6667 27.2639 51.1852 15.6528 58.2222C4.21759 65.0833 -4.84259 74.4074 -11.5278 86.1944C-18.213 97.8056 -21.5556 110.824 -21.5556 125.25C-21.5556 139.5 -18.213 152.519 -11.5278 164.306C-4.84259 176.093 4.21759 185.505 15.6528 192.542C27.2639 199.403 40.1945 202.833 54.4445 202.833C69.2222 202.833 82.3287 199.139 93.7639 191.75C105.375 184.185 114.435 174.949 120.944 164.042L134.403 219.458C123.319 228.606 110.829 235.819 96.9306 241.097C83.2083 246.199 68.5185 248.75 52.8611 248.75ZM237.707 249.278C222.05 249.278 207.712 245.495 194.693 237.931C181.675 230.366 171.295 220.162 163.554 207.319C155.989 194.477 152.207 180.315 152.207 164.833C152.207 149.176 155.989 135.014 163.554 122.347C171.295 109.505 181.675 99.3009 194.693 91.7361C207.712 84.1713 222.05 80.3889 237.707 80.3889C253.54 80.3889 267.878 84.1713 280.721 91.7361C293.739 99.3009 304.031 109.505 311.596 122.347C319.337 135.014 323.207 149.176 323.207 164.833C323.207 180.315 319.337 194.477 311.596 207.319C304.031 220.162 293.739 230.366 280.721 237.931C267.878 245.495 253.54 249.278 237.707 249.278ZM237.707 208.111C245.624 208.111 252.749 206.176 259.082 202.306C265.591 198.435 270.693 193.245 274.388 186.736C278.258 180.051 280.193 172.75 280.193 164.833C280.193 156.741 278.258 149.44 274.388 142.931C270.693 136.421 265.591 131.231 259.082 127.361C252.749 123.491 245.624 121.556 237.707 121.556C229.79 121.556 222.577 123.491 216.068 127.361C209.735 131.231 204.633 136.421 200.763 142.931C197.068 149.44 195.221 156.741 195.221 164.833C195.221 172.75 197.068 180.051 200.763 186.736C204.633 193.245 209.735 198.435 216.068 202.306C222.577 206.176 229.79 208.111 237.707 208.111ZM350.124 244V85.6667H391.29V103.083C396.92 95.6944 403.869 90.0648 412.138 86.1944C420.406 82.3241 429.29 80.3889 438.79 80.3889C450.05 80.3889 460.517 83.1157 470.193 88.5694C480.045 93.8472 487.962 101.676 493.943 112.056C500.101 122.259 503.179 134.662 503.179 149.264V244H457.263V155.333C457.263 146.537 454.624 138.708 449.346 131.847C444.068 124.986 436.503 121.556 426.651 121.556C418.735 121.556 411.61 124.282 405.276 129.736C399.119 135.014 396.04 143.37 396.04 154.806V244L350.124 244ZM548.205 244V122.083H518.65V85.6667H548.997V32.8889L593.33 32.8889V85.6667H624.733V122.083H594.122V244H548.205ZM711.94 248.222C697.338 248.222 684.056 244.44 672.093 236.875C660.13 229.31 650.542 219.282 643.329 206.792C636.292 194.125 632.773 180.139 632.773 164.833C632.773 149.528 636.292 135.542 643.329 122.875C650.542 110.208 660.13 100.181 672.093 92.7917C684.056 85.2268 697.338 81.4444 711.94 81.4444C722.144 81.4444 731.468 83.2917 739.912 86.9861C748.357 90.5046 755.57 95.4306 761.551 101.764V85.6667H801.135V244H761.551V227.903C755.57 234.236 748.357 239.25 739.912 242.944C731.468 246.463 722.144 248.222 711.94 248.222ZM717.482 207.847C725.223 207.847 732.26 205.912 738.593 202.042C744.926 198.171 749.94 192.981 753.635 186.472C757.505 179.963 759.44 172.75 759.44 164.833C759.44 156.917 757.505 149.704 753.635 143.194C749.94 136.685 744.926 131.495 738.593 127.625C732.26 123.755 725.223 121.819 717.482 121.819C709.741 121.819 702.704 123.755 696.371 127.625C690.037 131.495 684.935 136.685 681.065 143.194C677.371 149.704 675.523 156.917 675.523 164.833C675.523 172.75 677.371 179.963 681.065 186.472C684.935 192.981 690.037 198.171 696.371 202.042C702.704 205.912 709.741 207.847 717.482 207.847ZM913.469 249.278C897.811 249.278 883.473 245.495 870.455 237.931C857.436 230.366 847.057 220.162 839.316 207.319C831.751 194.477 827.969 180.315 827.969 164.833C827.969 149.176 831.751 135.014 839.316 122.347C847.057 109.505 857.436 99.3009 870.455 91.7361C883.473 84.1713 897.811 80.3889 913.469 80.3889C924.376 80.3889 934.668 82.2361 944.344 85.9306C954.196 89.4491 962.904 94.7268 970.469 101.764L958.594 148.472C954.196 141.259 948.302 135.014 940.913 129.736C933.7 124.282 925.168 121.556 915.316 121.556C907.047 121.556 899.659 123.491 893.149 127.361C886.64 131.231 881.538 136.421 877.844 142.931C874.149 149.44 872.302 156.741 872.302 164.833C872.302 172.75 874.149 180.051 877.844 186.736C881.538 193.245 886.64 198.435 893.149 202.306C899.659 206.176 907.047 208.111 915.316 208.111C925.168 208.111 933.7 205.472 940.913 200.194C948.302 194.741 954.196 188.407 958.594 181.194L970.469 227.903C962.904 234.94 954.196 240.306 944.344 244C934.668 247.519 924.376 249.278 913.469 249.278ZM1012.81 244V122.083H983.259V85.6667H1013.61V32.8889L1057.94 32.8889V85.6667H1089.34V122.083H1058.73V244H1012.81ZM1253.36 249.278C1242.27 249.278 1231.81 246.639 1221.95 241.361C1212.1 235.907 1204.1 228.079 1197.94 217.875C1191.96 207.495 1188.97 195.005 1188.97 180.403V85.6667H1234.89V174.333C1234.89 183.13 1237.52 190.958 1242.8 197.819C1248.26 204.681 1255.82 208.111 1265.5 208.111C1273.41 208.111 1280.45 205.296 1286.61 199.667C1292.94 193.861 1296.11 185.593 1296.11 174.861V85.6667H1342.02V244H1300.33V227.375C1294.7 234.412 1287.75 239.866 1279.48 243.736C1271.39 247.431 1262.68 249.278 1253.36 249.278ZM1428.93 249.278C1418.19 249.278 1407.29 247.519 1396.2 244C1385.3 240.481 1376.76 235.731 1370.61 229.75L1381.95 186.472C1387.06 193.509 1394.09 199.667 1403.07 204.944C1412.21 210.222 1421.63 212.861 1431.3 212.861C1437.81 212.861 1442.47 211.63 1445.29 209.167C1448.28 206.704 1449.77 203.713 1449.77 200.194C1449.77 196.148 1448.28 193.245 1445.29 191.486C1442.3 189.551 1439.22 187.968 1436.05 186.736L1413.88 178.292C1408.96 176.356 1403.33 173.718 1397 170.375C1390.66 167.032 1385.12 162.282 1380.37 156.125C1375.8 149.968 1373.51 141.875 1373.51 131.847C1373.51 122.699 1375.8 114.255 1380.37 106.514C1384.94 98.7731 1391.54 92.5278 1400.16 87.7778C1408.96 82.8519 1419.51 80.3889 1431.83 80.3889C1443.26 80.3889 1453.91 82.3241 1463.76 86.1944C1473.79 90.0648 1481.09 94.375 1485.66 99.125L1475.11 140.819C1469.13 133.079 1462 127.185 1453.73 123.139C1445.64 118.917 1437.9 116.806 1430.51 116.806C1424.88 116.806 1420.75 117.949 1418.11 120.236C1415.47 122.523 1414.15 125.162 1414.15 128.153C1414.15 130.44 1415.03 132.727 1416.79 135.014C1418.72 137.125 1421.89 139.06 1426.29 140.819L1446.87 148.472C1452.85 150.583 1459.19 153.398 1465.87 156.917C1472.73 160.435 1478.54 165.361 1483.29 171.694C1488.04 177.852 1490.41 186.384 1490.41 197.292C1490.41 212.597 1484.69 225.088 1473.26 234.764C1462 244.44 1447.22 249.278 1428.93 249.278Z"/>
</mask>
<path d="M52.8611 248.75C35.4444 248.75 19.1713 245.583 4.04167 239.25C-11.088 232.741 -24.4583 223.856 -36.0694 212.597C-47.5046 201.338 -56.4769 188.231 -62.9861 173.278C-69.4954 158.324 -72.75 142.315 -72.75 125.25C-72.75 108.185 -69.4954 92.1759 -62.9861 77.2222C-56.4769 62.2685 -47.5046 49.162 -36.0694 37.9028C-24.4583 26.6435 -11.088 17.8472 4.04167 11.5139C19.1713 5.00463 35.4444 1.75 52.8611 1.75C68.5185 1.75 83.2963 4.30093 97.1944 9.40277C111.093 14.5046 123.495 21.7176 134.403 31.0417L120.944 86.4583C114.435 75.5509 105.463 66.4028 94.0278 59.0139C82.5926 51.4491 69.3982 47.6667 54.4445 47.6667C40.1945 47.6667 27.2639 51.1852 15.6528 58.2222C4.21759 65.0833 -4.84259 74.4074 -11.5278 86.1944C-18.213 97.8056 -21.5556 110.824 -21.5556 125.25C-21.5556 139.5 -18.213 152.519 -11.5278 164.306C-4.84259 176.093 4.21759 185.505 15.6528 192.542C27.2639 199.403 40.1945 202.833 54.4445 202.833C69.2222 202.833 82.3287 199.139 93.7639 191.75C105.375 184.185 114.435 174.949 120.944 164.042L134.403 219.458C123.319 228.606 110.829 235.819 96.9306 241.097C83.2083 246.199 68.5185 248.75 52.8611 248.75ZM237.707 249.278C222.05 249.278 207.712 245.495 194.693 237.931C181.675 230.366 171.295 220.162 163.554 207.319C155.989 194.477 152.207 180.315 152.207 164.833C152.207 149.176 155.989 135.014 163.554 122.347C171.295 109.505 181.675 99.3009 194.693 91.7361C207.712 84.1713 222.05 80.3889 237.707 80.3889C253.54 80.3889 267.878 84.1713 280.721 91.7361C293.739 99.3009 304.031 109.505 311.596 122.347C319.337 135.014 323.207 149.176 323.207 164.833C323.207 180.315 319.337 194.477 311.596 207.319C304.031 220.162 293.739 230.366 280.721 237.931C267.878 245.495 253.54 249.278 237.707 249.278ZM237.707 208.111C245.624 208.111 252.749 206.176 259.082 202.306C265.591 198.435 270.693 193.245 274.388 186.736C278.258 180.051 280.193 172.75 280.193 164.833C280.193 156.741 278.258 149.44 274.388 142.931C270.693 136.421 265.591 131.231 259.082 127.361C252.749 123.491 245.624 121.556 237.707 121.556C229.79 121.556 222.577 123.491 216.068 127.361C209.735 131.231 204.633 136.421 200.763 142.931C197.068 149.44 195.221 156.741 195.221 164.833C195.221 172.75 197.068 180.051 200.763 186.736C204.633 193.245 209.735 198.435 216.068 202.306C222.577 206.176 229.79 208.111 237.707 208.111ZM350.124 244V85.6667H391.29V103.083C396.92 95.6944 403.869 90.0648 412.138 86.1944C420.406 82.3241 429.29 80.3889 438.79 80.3889C450.05 80.3889 460.517 83.1157 470.193 88.5694C480.045 93.8472 487.962 101.676 493.943 112.056C500.101 122.259 503.179 134.662 503.179 149.264V244H457.263V155.333C457.263 146.537 454.624 138.708 449.346 131.847C444.068 124.986 436.503 121.556 426.651 121.556C418.735 121.556 411.61 124.282 405.276 129.736C399.119 135.014 396.04 143.37 396.04 154.806V244L350.124 244ZM548.205 244V122.083H518.65V85.6667H548.997V32.8889L593.33 32.8889V85.6667H624.733V122.083H594.122V244H548.205ZM711.94 248.222C697.338 248.222 684.056 244.44 672.093 236.875C660.13 229.31 650.542 219.282 643.329 206.792C636.292 194.125 632.773 180.139 632.773 164.833C632.773 149.528 636.292 135.542 643.329 122.875C650.542 110.208 660.13 100.181 672.093 92.7917C684.056 85.2268 697.338 81.4444 711.94 81.4444C722.144 81.4444 731.468 83.2917 739.912 86.9861C748.357 90.5046 755.57 95.4306 761.551 101.764V85.6667H801.135V244H761.551V227.903C755.57 234.236 748.357 239.25 739.912 242.944C731.468 246.463 722.144 248.222 711.94 248.222ZM717.482 207.847C725.223 207.847 732.26 205.912 738.593 202.042C744.926 198.171 749.94 192.981 753.635 186.472C757.505 179.963 759.44 172.75 759.44 164.833C759.44 156.917 757.505 149.704 753.635 143.194C749.94 136.685 744.926 131.495 738.593 127.625C732.26 123.755 725.223 121.819 717.482 121.819C709.741 121.819 702.704 123.755 696.371 127.625C690.037 131.495 684.935 136.685 681.065 143.194C677.371 149.704 675.523 156.917 675.523 164.833C675.523 172.75 677.371 179.963 681.065 186.472C684.935 192.981 690.037 198.171 696.371 202.042C702.704 205.912 709.741 207.847 717.482 207.847ZM913.469 249.278C897.811 249.278 883.473 245.495 870.455 237.931C857.436 230.366 847.057 220.162 839.316 207.319C831.751 194.477 827.969 180.315 827.969 164.833C827.969 149.176 831.751 135.014 839.316 122.347C847.057 109.505 857.436 99.3009 870.455 91.7361C883.473 84.1713 897.811 80.3889 913.469 80.3889C924.376 80.3889 934.668 82.2361 944.344 85.9306C954.196 89.4491 962.904 94.7268 970.469 101.764L958.594 148.472C954.196 141.259 948.302 135.014 940.913 129.736C933.7 124.282 925.168 121.556 915.316 121.556C907.047 121.556 899.659 123.491 893.149 127.361C886.64 131.231 881.538 136.421 877.844 142.931C874.149 149.44 872.302 156.741 872.302 164.833C872.302 172.75 874.149 180.051 877.844 186.736C881.538 193.245 886.64 198.435 893.149 202.306C899.659 206.176 907.047 208.111 915.316 208.111C925.168 208.111 933.7 205.472 940.913 200.194C948.302 194.741 954.196 188.407 958.594 181.194L970.469 227.903C962.904 234.94 954.196 240.306 944.344 244C934.668 247.519 924.376 249.278 913.469 249.278ZM1012.81 244V122.083H983.259V85.6667H1013.61V32.8889L1057.94 32.8889V85.6667H1089.34V122.083H1058.73V244H1012.81ZM1253.36 249.278C1242.27 249.278 1231.81 246.639 1221.95 241.361C1212.1 235.907 1204.1 228.079 1197.94 217.875C1191.96 207.495 1188.97 195.005 1188.97 180.403V85.6667H1234.89V174.333C1234.89 183.13 1237.52 190.958 1242.8 197.819C1248.26 204.681 1255.82 208.111 1265.5 208.111C1273.41 208.111 1280.45 205.296 1286.61 199.667C1292.94 193.861 1296.11 185.593 1296.11 174.861V85.6667H1342.02V244H1300.33V227.375C1294.7 234.412 1287.75 239.866 1279.48 243.736C1271.39 247.431 1262.68 249.278 1253.36 249.278ZM1428.93 249.278C1418.19 249.278 1407.29 247.519 1396.2 244C1385.3 240.481 1376.76 235.731 1370.61 229.75L1381.95 186.472C1387.06 193.509 1394.09 199.667 1403.07 204.944C1412.21 210.222 1421.63 212.861 1431.3 212.861C1437.81 212.861 1442.47 211.63 1445.29 209.167C1448.28 206.704 1449.77 203.713 1449.77 200.194C1449.77 196.148 1448.28 193.245 1445.29 191.486C1442.3 189.551 1439.22 187.968 1436.05 186.736L1413.88 178.292C1408.96 176.356 1403.33 173.718 1397 170.375C1390.66 167.032 1385.12 162.282 1380.37 156.125C1375.8 149.968 1373.51 141.875 1373.51 131.847C1373.51 122.699 1375.8 114.255 1380.37 106.514C1384.94 98.7731 1391.54 92.5278 1400.16 87.7778C1408.96 82.8519 1419.51 80.3889 1431.83 80.3889C1443.26 80.3889 1453.91 82.3241 1463.76 86.1944C1473.79 90.0648 1481.09 94.375 1485.66 99.125L1475.11 140.819C1469.13 133.079 1462 127.185 1453.73 123.139C1445.64 118.917 1437.9 116.806 1430.51 116.806C1424.88 116.806 1420.75 117.949 1418.11 120.236C1415.47 122.523 1414.15 125.162 1414.15 128.153C1414.15 130.44 1415.03 132.727 1416.79 135.014C1418.72 137.125 1421.89 139.06 1426.29 140.819L1446.87 148.472C1452.85 150.583 1459.19 153.398 1465.87 156.917C1472.73 160.435 1478.54 165.361 1483.29 171.694C1488.04 177.852 1490.41 186.384 1490.41 197.292C1490.41 212.597 1484.69 225.088 1473.26 234.764C1462 244.44 1447.22 249.278 1428.93 249.278Z" fill="white"/>
<path d="M4.04167 239.25L3.64645 240.169L3.65553 240.172L4.04167 239.25ZM-36.0694 212.597L-36.7711 213.31L-36.7656 213.315L-36.0694 212.597ZM-62.9861 173.278L-62.0692 172.879L-62.9861 173.278ZM-62.9861 77.2222L-63.903 76.8231L-62.9861 77.2222ZM-36.0694 37.9028L-36.7656 37.1848L-36.771 37.1902L-36.0694 37.9028ZM4.04167 11.5139L4.42783 12.4364L4.43688 12.4325L4.04167 11.5139ZM97.1944 9.40277L97.539 8.46402L97.1944 9.40277ZM134.403 31.0417L135.375 31.2776L135.52 30.6807L135.053 30.2815L134.403 31.0417ZM120.944 86.4583L120.086 86.9708L121.339 89.0709L121.916 86.6943L120.944 86.4583ZM94.0278 59.0139L93.476 59.848L93.4851 59.8538L94.0278 59.0139ZM15.6528 58.2222L16.1673 59.0797L16.1711 59.0774L15.6528 58.2222ZM-11.5278 86.1944L-10.6611 86.6934L-10.6579 86.6878L-11.5278 86.1944ZM-11.5278 164.306L-12.3976 164.799L-11.5278 164.306ZM15.6528 192.542L15.1287 193.393L15.1363 193.398L15.1441 193.403L15.6528 192.542ZM93.7639 191.75L94.3066 192.59L94.3098 192.588L93.7639 191.75ZM120.944 164.042L121.916 163.806L121.339 161.429L120.086 163.529L120.944 164.042ZM134.403 219.458L135.039 220.23L135.522 219.831L135.375 219.222L134.403 219.458ZM96.9306 241.097L97.2791 242.035L97.2856 242.032L96.9306 241.097ZM52.8611 248.75V247.75C35.5687 247.75 19.4277 244.607 4.42781 238.328L4.04167 239.25L3.65553 240.172C18.9149 246.56 35.3202 249.75 52.8611 249.75V248.75ZM4.04167 239.25L4.43688 238.331C-10.5832 231.869 -23.8511 223.052 -35.3733 211.879L-36.0694 212.597L-36.7656 213.315C-25.0656 224.661 -11.5928 233.612 3.64646 240.169L4.04167 239.25ZM-36.0694 212.597L-35.3678 211.885C-46.7104 200.717 -55.6102 187.717 -62.0692 172.879L-62.9861 173.278L-63.903 173.677C-57.3435 188.746 -48.2989 201.959 -36.771 213.31L-36.0694 212.597ZM-62.9861 173.278L-62.0692 172.879C-68.5211 158.057 -71.75 142.184 -71.75 125.25H-72.75H-73.75C-73.75 142.446 -70.4696 158.591 -63.903 173.677L-62.9861 173.278ZM-72.75 125.25H-71.75C-71.75 108.316 -68.5211 92.4433 -62.0692 77.6213L-62.9861 77.2222L-63.903 76.8231C-70.4696 91.9085 -73.75 108.054 -73.75 125.25H-72.75ZM-62.9861 77.2222L-62.0692 77.6213C-55.6102 62.783 -46.7104 49.7834 -35.3678 38.6153L-36.0694 37.9028L-36.771 37.1902C-48.2989 48.5407 -57.3435 61.7541 -63.903 76.8231L-62.9861 77.2222ZM-36.0694 37.9028L-35.3733 38.6207C-23.8531 27.4496 -10.5883 18.7221 4.42781 12.4363L4.04167 11.5139L3.65553 10.5914C-11.5876 16.9723 -25.0635 25.8374 -36.7656 37.1849L-36.0694 37.9028ZM4.04167 11.5139L4.43688 12.4325C19.4346 5.97998 35.5724 2.75 52.8611 2.75V1.75V0.75C35.3165 0.75 18.908 4.02928 3.64646 10.5953L4.04167 11.5139ZM52.8611 1.75V2.75C68.4078 2.75 83.0683 5.28249 96.8498 10.3415L97.1944 9.40277L97.539 8.46402C83.5243 3.31937 68.6293 0.75 52.8611 0.75V1.75ZM97.1944 9.40277L96.8498 10.3415C110.64 15.4038 122.939 22.5574 133.753 31.8018L134.403 31.0417L135.053 30.2815C124.052 20.8778 111.545 13.6055 97.539 8.46402L97.1944 9.40277ZM134.403 31.0417L133.431 30.8057L119.973 86.2223L120.944 86.4583L121.916 86.6943L135.375 31.2776L134.403 31.0417ZM120.944 86.4583L121.803 85.9459C115.21 74.8971 106.125 65.6402 94.5705 58.174L94.0278 59.0139L93.4851 59.8538C104.801 67.1654 113.661 76.2047 120.086 86.9708L120.944 86.4583ZM94.0278 59.0139L94.5795 58.1799C82.9659 50.497 69.5758 46.6667 54.4445 46.6667V47.6667V48.6667C69.2205 48.6667 82.2193 52.4012 93.476 59.8479L94.0278 59.0139ZM54.4445 47.6667V46.6667C40.0212 46.6667 26.9098 50.2305 15.1345 57.367L15.6528 58.2222L16.1711 59.0774C27.618 52.1399 40.3677 48.6667 54.4445 48.6667V47.6667ZM15.6528 58.2222L15.1383 57.3647C3.55276 64.316 -5.6288 73.7666 -12.3976 85.7011L-11.5278 86.1944L-10.6579 86.6878C-4.05639 75.0482 4.88243 65.8506 16.1673 59.0797L15.6528 58.2222ZM-11.5278 86.1944L-12.3944 85.6955C-19.1736 97.47 -22.5556 110.663 -22.5556 125.25H-21.5556H-20.5556C-20.5556 110.985 -17.2523 98.1412 -10.6612 86.6934L-11.5278 86.1944ZM-21.5556 125.25H-22.5556C-22.5556 139.664 -19.1726 152.854 -12.3976 164.799L-11.5278 164.306L-10.6579 163.812C-17.2533 152.183 -20.5556 139.336 -20.5556 125.25H-21.5556ZM-11.5278 164.306L-12.3976 164.799C-5.63004 176.731 3.5485 186.267 15.1287 193.393L15.6528 192.542L16.1769 191.69C4.88669 184.742 -4.05515 175.454 -10.6579 163.812L-11.5278 164.306ZM15.6528 192.542L15.1441 193.403C26.9181 200.36 40.026 203.833 54.4445 203.833V202.833V201.833C40.3629 201.833 27.6097 198.446 16.1615 191.681L15.6528 192.542ZM54.4445 202.833V203.833C69.3976 203.833 82.6959 200.092 94.3066 192.59L93.7639 191.75L93.2212 190.91C81.9615 198.186 69.0468 201.833 54.4445 201.833V202.833ZM93.7639 191.75L94.3098 192.588C106.037 184.948 115.209 175.604 121.803 164.554L120.944 164.042L120.086 163.529C113.661 174.294 104.713 183.423 93.218 190.912L93.7639 191.75ZM120.944 164.042L119.973 164.278L133.431 219.694L134.403 219.458L135.375 219.222L121.916 163.806L120.944 164.042ZM134.403 219.458L133.766 218.687C122.77 227.763 110.375 234.922 96.5756 240.162L96.9306 241.097L97.2856 242.032C111.282 236.717 123.869 229.45 135.039 220.23L134.403 219.458ZM96.9306 241.097L96.5821 240.16C82.9789 245.217 68.4079 247.75 52.8611 247.75V248.75V249.75C68.6292 249.75 83.4378 247.181 97.2791 242.035L96.9306 241.097ZM194.693 237.931L195.196 237.066L194.693 237.931ZM163.554 207.319L162.693 207.827L162.698 207.836L163.554 207.319ZM163.554 122.347L162.698 121.831L162.696 121.834L163.554 122.347ZM194.693 91.7361L194.191 90.8715L194.693 91.7361ZM280.721 91.7361L280.213 92.5977L280.219 92.6007L280.721 91.7361ZM311.596 122.347L310.734 122.855L310.738 122.862L310.743 122.869L311.596 122.347ZM311.596 207.319L310.739 206.803L310.734 206.812L311.596 207.319ZM280.721 237.931L280.219 237.066L280.213 237.069L280.721 237.931ZM259.082 202.306L258.571 201.446L258.561 201.452L259.082 202.306ZM274.388 186.736L273.522 186.235L273.518 186.242L274.388 186.736ZM274.388 142.931L273.518 143.424L273.523 143.433L273.528 143.442L274.388 142.931ZM259.082 127.361L258.561 128.214L258.571 128.221L259.082 127.361ZM216.068 127.361L215.557 126.501L215.547 126.508L216.068 127.361ZM200.763 142.931L199.903 142.419L199.898 142.428L199.893 142.437L200.763 142.931ZM200.763 186.736L199.887 187.22L199.895 187.234L199.903 187.247L200.763 186.736ZM216.068 202.306L215.547 203.159L215.557 203.165L216.068 202.306ZM237.707 249.278V248.278C222.219 248.278 208.055 244.538 195.196 237.066L194.693 237.931L194.191 238.795C207.368 246.452 221.88 250.278 237.707 250.278V249.278ZM194.693 237.931L195.196 237.066C182.322 229.585 172.064 219.501 164.411 206.803L163.554 207.319L162.698 207.836C170.526 220.823 181.027 231.146 194.191 238.795L194.693 237.931ZM163.554 207.319L164.416 206.812C156.945 194.129 153.207 180.144 153.207 164.833H152.207H151.207C151.207 180.486 155.034 194.824 162.693 207.827L163.554 207.319ZM152.207 164.833H153.207C153.207 149.345 156.946 135.362 164.413 122.86L163.554 122.347L162.696 121.834C155.033 134.666 151.207 149.007 151.207 164.833H152.207ZM163.554 122.347L164.411 122.863C172.064 110.166 182.322 100.081 195.196 92.6007L194.693 91.7361L194.191 90.8715C181.027 98.5204 170.526 108.844 162.698 121.831L163.554 122.347ZM194.693 91.7361L195.196 92.6007C208.055 85.1282 222.219 81.3889 237.707 81.3889V80.3889V79.3889C221.88 79.3889 207.368 83.2144 194.191 90.8715L194.693 91.7361ZM237.707 80.3889V81.3889C253.373 81.3889 267.534 85.1292 280.213 92.5977L280.721 91.7361L281.228 90.8745C268.222 83.2134 253.707 79.3889 237.707 79.3889V80.3889ZM280.721 91.7361L280.219 92.6007C293.09 100.08 303.258 110.162 310.734 122.855L311.596 122.347L312.458 121.84C304.805 108.848 294.389 98.5216 281.223 90.8715L280.721 91.7361ZM311.596 122.347L310.743 122.869C318.382 135.37 322.207 149.349 322.207 164.833H323.207H324.207C324.207 149.002 320.291 134.658 312.449 121.826L311.596 122.347ZM323.207 164.833H322.207C322.207 180.139 318.383 194.122 310.739 206.803L311.596 207.319L312.452 207.836C320.29 194.832 324.207 180.491 324.207 164.833H323.207ZM311.596 207.319L310.734 206.812C303.258 219.505 293.09 229.586 280.219 237.066L280.721 237.931L281.223 238.795C294.389 231.145 304.805 220.819 312.458 207.827L311.596 207.319ZM280.721 237.931L280.213 237.069C267.534 244.537 253.373 248.278 237.707 248.278V249.278V250.278C253.707 250.278 268.222 246.453 281.228 238.792L280.721 237.931ZM237.707 208.111V209.111C245.795 209.111 253.103 207.132 259.603 203.159L259.082 202.306L258.561 201.452C252.395 205.22 245.452 207.111 237.707 207.111V208.111ZM259.082 202.306L259.593 203.165C266.25 199.207 271.476 193.892 275.257 187.23L274.388 186.736L273.518 186.242C269.91 192.599 264.933 197.663 258.571 201.446L259.082 202.306ZM274.388 186.736L275.253 187.237C279.214 180.396 281.193 172.921 281.193 164.833H280.193H279.193C279.193 172.579 277.302 179.706 273.522 186.235L274.388 186.736ZM280.193 164.833H281.193C281.193 156.574 279.216 149.094 275.247 142.419L274.388 142.931L273.528 143.442C277.3 149.786 279.193 156.908 279.193 164.833H280.193ZM274.388 142.931L275.257 142.437C271.476 135.775 266.25 130.46 259.593 126.502L259.082 127.361L258.571 128.221C264.933 132.003 269.91 137.068 273.518 143.424L274.388 142.931ZM259.082 127.361L259.603 126.508C253.103 122.535 245.795 120.556 237.707 120.556V121.556V122.556C245.452 122.556 252.395 124.446 258.561 128.214L259.082 127.361ZM237.707 121.556V120.556C229.619 120.556 222.228 122.535 215.557 126.502L216.068 127.361L216.579 128.221C222.927 124.446 229.962 122.556 237.707 122.556V121.556ZM216.068 127.361L215.547 126.508C209.072 130.465 203.855 135.773 199.903 142.419L200.763 142.931L201.622 143.442C205.411 137.069 210.398 131.998 216.59 128.214L216.068 127.361ZM200.763 142.931L199.893 142.437C196.106 149.109 194.221 156.582 194.221 164.833H195.221H196.221C196.221 156.899 198.03 149.771 201.632 143.424L200.763 142.931ZM195.221 164.833H194.221C194.221 172.913 196.108 180.381 199.887 187.22L200.763 186.736L201.638 186.252C198.028 179.721 196.221 172.587 196.221 164.833H195.221ZM200.763 186.736L199.903 187.247C203.855 193.893 209.072 199.202 215.547 203.159L216.068 202.306L216.59 201.452C210.398 197.669 205.411 192.597 201.622 186.225L200.763 186.736ZM216.068 202.306L215.557 203.165C222.228 207.132 229.619 209.111 237.707 209.111V208.111V207.111C229.962 207.111 222.927 205.22 216.579 201.446L216.068 202.306ZM350.124 244H349.124V245H350.124V244ZM350.124 85.6667V84.6667H349.124V85.6667H350.124ZM391.29 85.6667H392.29V84.6667H391.29V85.6667ZM391.29 103.083H390.29V106.046L392.086 103.689L391.29 103.083ZM470.193 88.5694L469.702 89.4406L469.711 89.4459L469.721 89.4509L470.193 88.5694ZM493.943 112.056L493.077 112.555L493.082 112.564L493.087 112.572L493.943 112.056ZM503.179 244V245H504.179V244H503.179ZM457.263 244H456.263V245H457.263V244ZM449.346 131.847L450.139 131.238L449.346 131.847ZM405.276 129.736L405.927 130.495L405.929 130.494L405.276 129.736ZM396.04 244V245H397.04V244H396.04ZM350.124 244H351.124V85.6667H350.124H349.124V244H350.124ZM350.124 85.6667V86.6667H391.29V85.6667V84.6667H350.124V85.6667ZM391.29 85.6667H390.29V103.083H391.29H392.29V85.6667H391.29ZM391.29 103.083L392.086 103.689C397.619 96.4265 404.442 90.9008 412.562 87.1001L412.138 86.1944L411.714 85.2888C403.296 89.2288 396.221 94.9623 390.495 102.477L391.29 103.083ZM412.138 86.1944L412.562 87.1001C420.692 83.2944 429.431 81.3889 438.79 81.3889V80.3889V79.3889C429.15 79.3889 420.12 81.3537 411.714 85.2888L412.138 86.1944ZM438.79 80.3889V81.3889C449.88 81.3889 460.178 84.0726 469.702 89.4406L470.193 88.5694L470.684 87.6983C460.856 82.1589 450.219 79.3889 438.79 79.3889V80.3889ZM470.193 88.5694L469.721 89.4509C479.396 94.6342 487.181 102.325 493.077 112.555L493.943 112.056L494.81 111.556C488.742 101.027 480.694 93.0602 470.665 87.688L470.193 88.5694ZM493.943 112.056L493.087 112.572C499.131 122.588 502.179 134.803 502.179 149.264H503.179H504.179C504.179 134.521 501.07 121.93 494.799 111.539L493.943 112.056ZM503.179 149.264H502.179V244H503.179H504.179V149.264H503.179ZM503.179 244V243H457.263V244V245H503.179V244ZM457.263 244H458.263V155.333H457.263H456.263V244H457.263ZM457.263 155.333H458.263C458.263 146.32 455.553 138.276 450.139 131.238L449.346 131.847L448.553 132.457C453.694 139.14 456.263 146.754 456.263 155.333H457.263ZM449.346 131.847L450.139 131.238C444.644 124.094 436.765 120.556 426.651 120.556V121.556V122.556C436.242 122.556 443.493 125.878 448.553 132.457L449.346 131.847ZM426.651 121.556V120.556C418.481 120.556 411.128 123.378 404.624 128.978L405.276 129.736L405.929 130.494C412.092 125.187 418.988 122.556 426.651 122.556V121.556ZM405.276 129.736L404.626 128.977C398.167 134.513 395.04 143.203 395.04 154.806H396.04H397.04C397.04 143.538 400.071 135.515 405.927 130.495L405.276 129.736ZM396.04 154.806H395.04V244H396.04H397.04V154.806H396.04ZM396.04 244V243L350.124 243V244V245L396.04 245V244ZM548.205 244H547.205V245H548.205V244ZM548.205 122.083H549.205V121.083H548.205V122.083ZM518.65 122.083H517.65V123.083H518.65V122.083ZM518.65 85.6667V84.6667H517.65V85.6667H518.65ZM548.997 85.6667V86.6667H549.997V85.6667H548.997ZM548.997 32.8889V31.8889H547.997V32.8889H548.997ZM593.33 32.8889H594.33V31.8889H593.33V32.8889ZM593.33 85.6667H592.33V86.6667H593.33V85.6667ZM624.733 85.6667H625.733V84.6667H624.733V85.6667ZM624.733 122.083V123.083H625.733V122.083H624.733ZM594.122 122.083V121.083H593.122V122.083H594.122ZM594.122 244V245H595.122V244H594.122ZM548.205 244H549.205V122.083H548.205H547.205V244H548.205ZM548.205 122.083V121.083H518.65V122.083V123.083H548.205V122.083ZM518.65 122.083H519.65V85.6667H518.65H517.65V122.083H518.65ZM518.65 85.6667V86.6667H548.997V85.6667V84.6667H518.65V85.6667ZM548.997 85.6667H549.997V32.8889H548.997H547.997V85.6667H548.997ZM548.997 32.8889V33.8889L593.33 33.8889V32.8889V31.8889L548.997 31.8889V32.8889ZM593.33 32.8889H592.33V85.6667H593.33H594.33V32.8889H593.33ZM593.33 85.6667V86.6667H624.733V85.6667V84.6667H593.33V85.6667ZM624.733 85.6667H623.733V122.083H624.733H625.733V85.6667H624.733ZM624.733 122.083V121.083H594.122V122.083V123.083H624.733V122.083ZM594.122 122.083H593.122V244H594.122H595.122V122.083H594.122ZM594.122 244V243H548.205V244V245H594.122V244ZM672.093 236.875L671.558 237.72L672.093 236.875ZM643.329 206.792L642.455 207.277L642.459 207.285L642.463 207.292L643.329 206.792ZM643.329 122.875L642.46 122.38L642.455 122.389L643.329 122.875ZM672.093 92.7917L672.618 93.6425L672.627 93.6369L672.093 92.7917ZM739.912 86.9861L739.512 87.9023L739.52 87.9058L739.528 87.9092L739.912 86.9861ZM761.551 101.764L760.824 102.451L762.551 104.279V101.764H761.551ZM761.551 85.6667V84.6667H760.551V85.6667H761.551ZM801.135 85.6667H802.135V84.6667H801.135V85.6667ZM801.135 244V245H802.135V244H801.135ZM761.551 244H760.551V245H761.551V244ZM761.551 227.903H762.551V225.388L760.824 227.216L761.551 227.903ZM739.912 242.944L740.297 243.868L740.305 243.864L740.313 243.861L739.912 242.944ZM738.593 202.042L739.114 202.895L738.593 202.042ZM753.635 186.472L752.775 185.961L752.77 185.97L752.765 185.979L753.635 186.472ZM753.635 143.194L752.765 143.688L752.77 143.697L752.775 143.706L753.635 143.194ZM681.065 143.194L680.206 142.683L680.2 142.692L680.195 142.701L681.065 143.194ZM681.065 186.472L680.195 186.966L680.2 186.975L680.206 186.983L681.065 186.472ZM696.371 202.042L695.849 202.895L696.371 202.042ZM711.94 248.222V247.222C697.521 247.222 684.425 243.49 672.627 236.03L672.093 236.875L671.558 237.72C683.687 245.389 697.155 249.222 711.94 249.222V248.222ZM672.093 236.875L672.627 236.03C660.804 228.553 651.329 218.645 644.195 206.292L643.329 206.792L642.463 207.292C649.755 219.92 659.456 230.067 671.558 237.72L672.093 236.875ZM643.329 206.792L644.203 206.306C637.253 193.796 633.773 179.979 633.773 164.833H632.773H631.773C631.773 180.299 635.331 194.454 642.455 207.277L643.329 206.792ZM632.773 164.833H633.773C633.773 149.688 637.253 135.87 644.203 123.361L643.329 122.875L642.455 122.389C635.331 135.213 631.773 149.368 631.773 164.833H632.773ZM643.329 122.875L644.198 123.37C651.331 110.843 660.803 100.94 672.618 93.6425L672.093 92.7917L671.567 91.9409C659.457 99.4211 649.753 109.573 642.46 122.38L643.329 122.875ZM672.093 92.7917L672.627 93.6369C684.425 86.1765 697.521 82.4444 711.94 82.4444V81.4444V80.4444C697.155 80.4444 683.687 84.2772 671.558 91.9465L672.093 92.7917ZM711.94 81.4444V82.4444C722.021 82.4444 731.206 84.2688 739.512 87.9023L739.912 86.9861L740.313 86.0699C731.729 82.3146 722.267 80.4444 711.94 80.4444V81.4444ZM739.912 86.9861L739.528 87.9092C747.849 91.3765 754.944 96.2242 760.824 102.451L761.551 101.764L762.278 101.077C756.196 94.6369 748.864 89.6327 740.297 86.063L739.912 86.9861ZM761.551 101.764H762.551V85.6667H761.551H760.551V101.764H761.551ZM761.551 85.6667V86.6667H801.135V85.6667V84.6667H761.551V85.6667ZM801.135 85.6667H800.135V244H801.135H802.135V85.6667H801.135ZM801.135 244V243H761.551V244V245H801.135V244ZM761.551 244H762.551V227.903H761.551H760.551V244H761.551ZM761.551 227.903L760.824 227.216C754.94 233.446 747.84 238.384 739.512 242.028L739.912 242.944L740.313 243.861C748.873 240.116 756.199 235.026 762.278 228.589L761.551 227.903ZM739.912 242.944L739.528 242.021C731.218 245.484 722.027 247.222 711.94 247.222V248.222V249.222C722.261 249.222 731.717 247.442 740.297 243.868L739.912 242.944ZM717.482 207.847V208.847C725.398 208.847 732.617 206.865 739.114 202.895L738.593 202.042L738.071 201.188C731.902 204.959 725.047 206.847 717.482 206.847V207.847ZM738.593 202.042L739.114 202.895C745.594 198.935 750.727 193.621 754.504 186.966L753.635 186.472L752.765 185.979C749.153 192.342 744.259 197.407 738.071 201.188L738.593 202.042ZM753.635 186.472L754.494 186.983C758.461 180.312 760.44 172.921 760.44 164.833H759.44H758.44C758.44 172.579 756.549 179.614 752.775 185.961L753.635 186.472ZM759.44 164.833H760.44C760.44 156.745 758.461 149.354 754.494 142.683L753.635 143.194L752.775 143.706C756.549 150.053 758.44 157.088 758.44 164.833H759.44ZM753.635 143.194L754.504 142.701C750.727 136.045 745.594 130.731 739.114 126.772L738.593 127.625L738.071 128.478C744.259 132.259 749.153 137.325 752.765 143.688L753.635 143.194ZM738.593 127.625L739.114 126.772C732.617 122.801 725.398 120.819 717.482 120.819V121.819V122.819C725.047 122.819 731.902 124.708 738.071 128.478L738.593 127.625ZM717.482 121.819V120.819C709.565 120.819 702.346 122.801 695.849 126.772L696.371 127.625L696.892 128.478C703.062 124.708 709.917 122.819 717.482 122.819V121.819ZM696.371 127.625L695.849 126.772C689.374 130.729 684.157 136.037 680.206 142.683L681.065 143.194L681.925 143.706C685.714 137.333 690.701 132.262 696.892 128.478L696.371 127.625ZM681.065 143.194L680.195 142.701C676.411 149.369 674.523 156.754 674.523 164.833H675.523H676.523C676.523 157.079 678.331 150.038 681.935 143.688L681.065 143.194ZM675.523 164.833H674.523C674.523 172.913 676.411 180.297 680.195 186.966L681.065 186.472L681.935 185.979C678.331 179.629 676.523 172.587 676.523 164.833H675.523ZM681.065 186.472L680.206 186.983C684.157 193.629 689.374 198.938 695.849 202.895L696.371 202.042L696.892 201.188C690.701 197.405 685.714 192.333 681.925 185.961L681.065 186.472ZM696.371 202.042L695.849 202.895C702.346 206.865 709.565 208.847 717.482 208.847V207.847V206.847C709.917 206.847 703.062 204.959 696.892 201.188L696.371 202.042ZM870.455 237.931L870.957 237.066L870.455 237.931ZM839.316 207.319L838.454 207.827L838.46 207.836L839.316 207.319ZM839.316 122.347L838.46 121.831L838.457 121.834L839.316 122.347ZM870.455 91.7361L869.952 90.8715L870.455 91.7361ZM944.344 85.9306L943.987 86.8648L943.997 86.8686L944.007 86.8723L944.344 85.9306ZM970.469 101.764L971.438 102.01L971.584 101.436L971.15 101.032L970.469 101.764ZM958.594 148.472L957.74 148.993L958.977 151.022L959.563 148.719L958.594 148.472ZM940.913 129.736L940.31 130.534L940.321 130.542L940.332 130.55L940.913 129.736ZM877.844 142.931L878.713 143.424L877.844 142.931ZM877.844 186.736L876.968 187.22L876.974 187.23L877.844 186.736ZM893.149 202.306L893.66 201.446L893.149 202.306ZM940.913 200.194L941.504 201.001L941.507 200.999L940.913 200.194ZM958.594 181.194L959.563 180.948L958.977 178.645L957.74 180.674L958.594 181.194ZM970.469 227.903L971.15 228.635L971.584 228.231L971.438 227.656L970.469 227.903ZM944.344 244L944.686 244.94L944.695 244.936L944.344 244ZM913.469 249.278V248.278C897.98 248.278 883.817 244.538 870.957 237.066L870.455 237.931L869.952 238.795C883.13 246.452 897.642 250.278 913.469 250.278V249.278ZM870.455 237.931L870.957 237.066C858.084 229.585 847.826 219.501 840.172 206.803L839.316 207.319L838.46 207.836C846.287 220.823 856.789 231.146 869.952 238.795L870.455 237.931ZM839.316 207.319L840.178 206.812C832.707 194.129 828.969 180.144 828.969 164.833H827.969H826.969C826.969 180.486 830.795 194.824 838.454 207.827L839.316 207.319ZM827.969 164.833H828.969C828.969 149.345 832.708 135.362 840.174 122.86L839.316 122.347L838.457 121.834C830.794 134.666 826.969 149.007 826.969 164.833H827.969ZM839.316 122.347L840.172 122.863C847.826 110.166 858.084 100.081 870.957 92.6007L870.455 91.7361L869.952 90.8715C856.789 98.5204 846.287 108.844 838.46 121.831L839.316 122.347ZM870.455 91.7361L870.957 92.6007C883.817 85.1282 897.98 81.3889 913.469 81.3889V80.3889V79.3889C897.642 79.3889 883.13 83.2144 869.952 90.8715L870.455 91.7361ZM913.469 80.3889V81.3889C924.261 81.3889 934.431 83.2161 943.987 86.8648L944.344 85.9306L944.7 84.9963C934.905 81.2561 924.492 79.3889 913.469 79.3889V80.3889ZM944.344 85.9306L944.007 86.8723C953.733 90.3457 962.324 95.5528 969.788 102.496L970.469 101.764L971.15 101.032C963.484 93.9009 954.658 88.5524 944.68 84.9888L944.344 85.9306ZM970.469 101.764L969.5 101.517L957.625 148.226L958.594 148.472L959.563 148.719L971.438 102.01L970.469 101.764ZM958.594 148.472L959.448 147.952C954.974 140.615 948.985 134.273 941.494 128.922L940.913 129.736L940.332 130.55C947.62 135.755 953.417 141.903 957.74 148.993L958.594 148.472ZM940.913 129.736L941.516 128.938C934.114 123.342 925.365 120.556 915.316 120.556V121.556V122.556C924.971 122.556 933.287 125.223 940.31 130.534L940.913 129.736ZM915.316 121.556V120.556C906.885 120.556 899.316 122.531 892.638 126.502L893.149 127.361L893.66 128.221C900.001 124.451 907.21 122.556 915.316 122.556V121.556ZM893.149 127.361L892.638 126.502C885.982 130.46 880.755 135.775 876.974 142.437L877.844 142.931L878.713 143.424C882.321 137.068 887.299 132.003 893.66 128.221L893.149 127.361ZM877.844 142.931L876.974 142.437C873.187 149.109 871.302 156.582 871.302 164.833H872.302H873.302C873.302 156.899 875.111 149.771 878.713 143.424L877.844 142.931ZM872.302 164.833H871.302C871.302 172.913 873.189 180.381 876.969 187.22L877.844 186.736L878.719 186.252C875.109 179.721 873.302 172.587 873.302 164.833H872.302ZM877.844 186.736L876.974 187.23C880.755 193.892 885.982 199.207 892.638 203.165L893.149 202.306L893.66 201.446C887.299 197.663 882.321 192.599 878.713 186.242L877.844 186.736ZM893.149 202.306L892.638 203.165C899.316 207.136 906.885 209.111 915.316 209.111V208.111V207.111C907.21 207.111 900.001 205.216 893.66 201.446L893.149 202.306ZM915.316 208.111V209.111C925.357 209.111 934.102 206.417 941.504 201.001L940.913 200.194L940.323 199.387C933.299 204.527 924.978 207.111 915.316 207.111V208.111ZM940.913 200.194L941.507 200.999C948.991 195.475 954.976 189.048 959.448 181.715L958.594 181.194L957.74 180.674C953.415 187.767 947.613 194.006 940.319 199.39L940.913 200.194ZM958.594 181.194L957.625 181.441L969.5 228.149L970.469 227.903L971.438 227.656L959.563 180.948L958.594 181.194ZM970.469 227.903L969.788 227.171C962.32 234.117 953.724 239.414 943.993 243.064L944.344 244L944.695 244.936C954.667 241.197 963.488 235.763 971.15 228.635L970.469 227.903ZM944.344 244L944.002 243.06C934.442 246.537 924.267 248.278 913.469 248.278V249.278V250.278C924.486 250.278 934.894 248.5 944.686 244.94L944.344 244ZM1012.81 244H1011.81V245H1012.81V244ZM1012.81 122.083H1013.81V121.083H1012.81V122.083ZM983.259 122.083H982.259V123.083H983.259V122.083ZM983.259 85.6667V84.6667H982.259V85.6667H983.259ZM1013.61 85.6667V86.6667H1014.61V85.6667H1013.61ZM1013.61 32.8889V31.8889H1012.61V32.8889H1013.61ZM1057.94 32.8889H1058.94V31.8889H1057.94V32.8889ZM1057.94 85.6667H1056.94V86.6667H1057.94V85.6667ZM1089.34 85.6667H1090.34V84.6667H1089.34V85.6667ZM1089.34 122.083V123.083H1090.34V122.083H1089.34ZM1058.73 122.083V121.083H1057.73V122.083H1058.73ZM1058.73 244V245H1059.73V244H1058.73ZM1012.81 244H1013.81V122.083H1012.81H1011.81V244H1012.81ZM1012.81 122.083V121.083H983.259V122.083V123.083H1012.81V122.083ZM983.259 122.083H984.259V85.6667H983.259H982.259V122.083H983.259ZM983.259 85.6667V86.6667H1013.61V85.6667V84.6667H983.259V85.6667ZM1013.61 85.6667H1014.61V32.8889H1013.61H1012.61V85.6667H1013.61ZM1013.61 32.8889V33.8889L1057.94 33.8889V32.8889V31.8889L1013.61 31.8889V32.8889ZM1057.94 32.8889H1056.94V85.6667H1057.94H1058.94V32.8889H1057.94ZM1057.94 85.6667V86.6667H1089.34V85.6667V84.6667H1057.94V85.6667ZM1089.34 85.6667H1088.34V122.083H1089.34H1090.34V85.6667H1089.34ZM1089.34 122.083V121.083H1058.73V122.083V123.083H1089.34V122.083ZM1058.73 122.083H1057.73V244H1058.73H1059.73V122.083H1058.73ZM1058.73 244V243H1012.81V244V245H1058.73V244ZM1221.95 241.361L1221.47 242.236L1221.48 242.243L1221.95 241.361ZM1197.94 217.875L1197.07 218.374L1197.08 218.383L1197.08 218.392L1197.94 217.875ZM1188.97 85.6667V84.6667H1187.97V85.6667H1188.97ZM1234.89 85.6667H1235.89V84.6667H1234.89V85.6667ZM1242.8 197.819L1242.01 198.429L1242.01 198.435L1242.02 198.442L1242.8 197.819ZM1286.61 199.667L1287.28 200.405L1287.28 200.404L1286.61 199.667ZM1296.11 85.6667V84.6667H1295.11V85.6667H1296.11ZM1342.02 85.6667H1343.02V84.6667H1342.02V85.6667ZM1342.02 244V245H1343.02V244H1342.02ZM1300.33 244H1299.33V245H1300.33V244ZM1300.33 227.375H1301.33V224.524L1299.55 226.75L1300.33 227.375ZM1279.48 243.736L1279.9 244.646L1279.91 244.642L1279.48 243.736ZM1253.36 249.278V248.278C1242.44 248.278 1232.14 245.68 1222.43 240.48L1221.95 241.361L1221.48 242.243C1231.48 247.598 1242.11 250.278 1253.36 250.278V249.278ZM1221.95 241.361L1222.44 240.486C1212.75 235.122 1204.87 227.421 1198.8 217.358L1197.94 217.875L1197.08 218.392C1203.33 228.736 1211.46 236.693 1221.47 242.236L1221.95 241.361ZM1197.94 217.875L1198.81 217.376C1192.93 207.178 1189.97 194.868 1189.97 180.403H1188.97H1187.97C1187.97 195.142 1190.99 207.813 1197.07 218.374L1197.94 217.875ZM1188.97 180.403H1189.97V85.6667H1188.97H1187.97V180.403H1188.97ZM1188.97 85.6667V86.6667H1234.89V85.6667V84.6667H1188.97V85.6667ZM1234.89 85.6667H1233.89V174.333H1234.89H1235.89V85.6667H1234.89ZM1234.89 174.333H1233.89C1233.89 183.346 1236.59 191.39 1242.01 198.429L1242.8 197.819L1243.59 197.21C1238.45 190.526 1235.89 182.913 1235.89 174.333H1234.89ZM1242.8 197.819L1242.02 198.442C1247.68 205.568 1255.55 209.111 1265.5 209.111V208.111V207.111C1256.09 207.111 1248.83 203.793 1243.58 197.197L1242.8 197.819ZM1265.5 208.111V209.111C1273.68 209.111 1280.95 206.193 1287.28 200.405L1286.61 199.667L1285.93 198.929C1279.95 204.4 1273.15 207.111 1265.5 207.111V208.111ZM1286.61 199.667L1287.28 200.404C1293.87 194.364 1297.11 185.798 1297.11 174.861H1296.11H1295.11C1295.11 185.387 1292.01 193.359 1285.93 198.93L1286.61 199.667ZM1296.11 174.861H1297.11V85.6667H1296.11H1295.11V174.861H1296.11ZM1296.11 85.6667V86.6667H1342.02V85.6667V84.6667H1296.11V85.6667ZM1342.02 85.6667H1341.02V244H1342.02H1343.02V85.6667H1342.02ZM1342.02 244V243H1300.33V244V245H1342.02V244ZM1300.33 244H1301.33V227.375H1300.33H1299.33V244H1300.33ZM1300.33 227.375L1299.55 226.75C1294.02 233.666 1287.19 239.024 1279.06 242.83L1279.48 243.736L1279.91 244.642C1288.31 240.707 1295.38 235.158 1301.11 228L1300.33 227.375ZM1279.48 243.736L1279.07 242.826C1271.11 246.458 1262.55 248.278 1253.36 248.278V249.278V250.278C1262.82 250.278 1271.67 248.403 1279.9 244.646L1279.48 243.736ZM1396.2 244L1395.9 244.952L1395.9 244.953L1396.2 244ZM1370.61 229.75L1369.64 229.496L1369.49 230.061L1369.91 230.467L1370.61 229.75ZM1381.95 186.472L1382.76 185.885L1381.52 184.174L1380.99 186.219L1381.95 186.472ZM1403.07 204.944L1402.56 205.806L1402.57 205.811L1403.07 204.944ZM1445.29 209.167L1444.65 208.395L1444.64 208.404L1444.63 208.414L1445.29 209.167ZM1445.29 191.486L1444.74 192.326L1444.76 192.337L1444.78 192.348L1445.29 191.486ZM1436.05 186.736L1436.41 185.804L1436.41 185.802L1436.05 186.736ZM1413.88 178.292L1413.52 179.222L1413.53 179.226L1413.88 178.292ZM1397 170.375L1397.46 169.491L1397 170.375ZM1380.37 156.125L1379.57 156.721L1379.57 156.729L1379.58 156.736L1380.37 156.125ZM1380.37 106.514L1381.23 107.023L1380.37 106.514ZM1400.16 87.7778L1400.64 88.6536L1400.65 88.6503L1400.16 87.7778ZM1463.76 86.1944L1463.39 87.1252L1463.4 87.1274L1463.76 86.1944ZM1485.66 99.125L1486.63 99.3704L1486.77 98.8317L1486.38 98.4314L1485.66 99.125ZM1475.11 140.819L1474.32 141.431L1475.57 143.057L1476.08 141.065L1475.11 140.819ZM1453.73 123.139L1453.27 124.025L1453.28 124.031L1453.29 124.037L1453.73 123.139ZM1416.79 135.014L1415.99 135.624L1416.02 135.658L1416.05 135.69L1416.79 135.014ZM1426.29 140.819L1425.92 141.748L1425.93 141.752L1425.94 141.757L1426.29 140.819ZM1446.87 148.472L1446.52 149.41L1446.53 149.412L1446.54 149.415L1446.87 148.472ZM1465.87 156.917L1465.4 157.802L1465.41 157.806L1465.87 156.917ZM1483.29 171.694L1482.49 172.294L1482.5 172.305L1483.29 171.694ZM1473.26 234.764L1472.61 234L1472.61 234.005L1473.26 234.764ZM1428.93 249.278V248.278C1418.31 248.278 1407.5 246.537 1396.51 243.047L1396.2 244L1395.9 244.953C1407.07 248.5 1418.08 250.278 1428.93 250.278V249.278ZM1396.2 244L1396.51 243.048C1385.7 239.562 1377.32 234.878 1371.3 229.033L1370.61 229.75L1369.91 230.467C1376.21 236.585 1384.89 241.401 1395.9 244.952L1396.2 244ZM1370.61 229.75L1371.57 230.004L1382.92 186.726L1381.95 186.472L1380.99 186.219L1369.64 229.496L1370.61 229.75ZM1381.95 186.472L1381.14 187.059C1386.34 194.228 1393.49 200.472 1402.56 205.806L1403.07 204.944L1403.57 204.083C1394.7 198.861 1387.77 192.791 1382.76 185.885L1381.95 186.472ZM1403.07 204.944L1402.57 205.811C1411.85 211.168 1421.43 213.861 1431.3 213.861V212.861V211.861C1421.82 211.861 1412.58 209.277 1403.56 204.078L1403.07 204.944ZM1431.3 212.861V213.861C1437.89 213.861 1442.86 212.624 1445.95 209.919L1445.29 209.167L1444.63 208.414C1442.09 210.636 1437.73 211.861 1431.3 211.861V212.861ZM1445.29 209.167L1445.92 209.939C1449.12 207.307 1450.77 204.044 1450.77 200.194H1449.77H1448.77C1448.77 203.381 1447.44 206.1 1444.65 208.395L1445.29 209.167ZM1449.77 200.194H1450.77C1450.77 195.864 1449.15 192.596 1445.79 190.624L1445.29 191.486L1444.78 192.348C1447.41 193.895 1448.77 196.433 1448.77 200.194H1449.77ZM1445.29 191.486L1445.83 190.647C1442.79 188.676 1439.65 187.061 1436.41 185.804L1436.05 186.736L1435.69 187.668C1438.79 188.874 1441.81 190.426 1444.74 192.326L1445.29 191.486ZM1436.05 186.736L1436.41 185.802L1414.24 177.357L1413.88 178.292L1413.53 179.226L1435.7 187.671L1436.05 186.736ZM1413.88 178.292L1414.25 177.361C1409.37 175.443 1403.77 172.821 1397.46 169.491L1397 170.375L1396.53 171.259C1402.88 174.614 1408.55 177.27 1413.52 179.222L1413.88 178.292ZM1397 170.375L1397.46 169.491C1391.27 166.22 1385.83 161.568 1381.16 155.514L1380.37 156.125L1379.58 156.736C1384.41 162.997 1390.06 167.844 1396.53 171.259L1397 170.375ZM1380.37 156.125L1381.17 155.529C1376.76 149.59 1374.51 141.726 1374.51 131.847H1373.51H1372.51C1372.51 142.024 1374.83 150.345 1379.57 156.721L1380.37 156.125ZM1373.51 131.847H1374.51C1374.51 122.875 1376.75 114.606 1381.23 107.023L1380.37 106.514L1379.51 106.005C1374.84 113.903 1372.51 122.523 1372.51 131.847H1373.51ZM1380.37 106.514L1381.23 107.023C1385.71 99.4502 1392.17 93.3257 1400.64 88.6536L1400.16 87.7778L1399.68 86.9019C1390.92 91.7298 1384.18 98.096 1379.51 106.005L1380.37 106.514ZM1400.16 87.7778L1400.65 88.6503C1409.27 83.8246 1419.65 81.3889 1431.83 81.3889V80.3889V79.3889C1419.38 79.3889 1408.65 81.8791 1399.67 86.9053L1400.16 87.7778ZM1431.83 80.3889V81.3889C1443.15 81.3889 1453.67 83.3041 1463.39 87.1252L1463.76 86.1944L1464.13 85.2637C1454.15 81.344 1443.38 79.3889 1431.83 79.3889V80.3889ZM1463.76 86.1944L1463.4 87.1274C1473.37 90.9744 1480.51 95.2196 1484.94 99.8186L1485.66 99.125L1486.38 98.4314C1481.66 93.5304 1474.21 89.1552 1464.12 85.2615L1463.76 86.1944ZM1485.66 99.125L1484.69 98.8796L1474.14 140.574L1475.11 140.819L1476.08 141.065L1486.63 99.3704L1485.66 99.125ZM1475.11 140.819L1475.9 140.208C1469.83 132.354 1462.59 126.359 1454.17 122.241L1453.73 123.139L1453.29 124.037C1461.41 128.012 1468.42 133.804 1474.32 141.431L1475.11 140.819ZM1453.73 123.139L1454.19 122.252C1445.99 117.973 1438.09 115.806 1430.51 115.806V116.806V117.806C1437.7 117.806 1445.29 119.861 1453.27 124.025L1453.73 123.139ZM1430.51 116.806V115.806C1424.78 115.806 1420.36 116.964 1417.45 119.48L1418.11 120.236L1418.76 120.992C1421.14 118.934 1424.98 117.806 1430.51 117.806V116.806ZM1418.11 120.236L1417.45 119.48C1414.63 121.922 1413.15 124.822 1413.15 128.153H1414.15H1415.15C1415.15 125.502 1416.3 123.124 1418.76 120.992L1418.11 120.236ZM1414.15 128.153H1413.15C1413.15 130.713 1414.14 133.208 1415.99 135.624L1416.79 135.014L1417.58 134.404C1415.92 132.246 1415.15 130.167 1415.15 128.153H1414.15ZM1416.79 135.014L1416.05 135.69C1418.13 137.961 1421.46 139.965 1425.92 141.748L1426.29 140.819L1426.66 139.891C1422.32 138.155 1419.31 136.289 1417.52 134.338L1416.79 135.014ZM1426.29 140.819L1425.94 141.757L1446.52 149.41L1446.87 148.472L1447.22 147.535L1426.64 139.882L1426.29 140.819ZM1446.87 148.472L1446.54 149.415C1452.47 151.508 1458.75 154.301 1465.4 157.802L1465.87 156.917L1466.34 156.032C1459.62 152.495 1453.24 149.659 1447.2 147.529L1446.87 148.472ZM1465.87 156.917L1465.41 157.806C1472.14 161.254 1477.83 166.079 1482.49 172.294L1483.29 171.694L1484.09 171.094C1479.25 164.643 1473.33 159.617 1466.33 156.027L1465.87 156.917ZM1483.29 171.694L1482.5 172.305C1487.07 178.229 1489.41 186.518 1489.41 197.292H1490.41H1491.41C1491.41 186.25 1489.01 177.474 1484.08 171.084L1483.29 171.694ZM1490.41 197.292H1489.41C1489.41 212.31 1483.82 224.519 1472.61 234L1473.26 234.764L1473.91 235.527C1485.57 225.657 1491.41 212.884 1491.41 197.292H1490.41ZM1473.26 234.764L1472.61 234.005C1461.57 243.492 1447.04 248.278 1428.93 248.278V249.278V250.278C1447.4 250.278 1462.43 245.388 1473.91 235.522L1473.26 234.764Z" fill="#FD520F" mask="url(#path-1-outside-1_231_202)"/>
</svg>
