<svg width="1440" height="156" viewBox="0 0 1440 156" fill="none" xmlns="http://www.w3.org/2000/svg">
<mask id="path-1-outside-1_58_296" maskUnits="userSpaceOnUse" x="-40" y="0" width="1522" height="204" fill="black">
<rect fill="white" x="-40" width="1522" height="204"/>
<path d="M37.6528 157.875C27.1111 157.875 17.2616 155.958 8.10417 152.125C-1.05324 148.185 -9.14583 142.808 -16.1736 135.993C-23.0949 129.178 -28.5255 121.245 -32.4653 112.194C-36.4051 103.144 -38.375 93.4537 -38.375 83.125C-38.375 72.7963 -36.4051 63.1065 -32.4653 54.0556C-28.5255 45.0046 -23.0949 37.0718 -16.1736 30.2569C-9.14583 23.4421 -1.05324 18.1181 8.10417 14.2847C17.2616 10.3449 27.1111 8.375 37.6528 8.375C47.1296 8.375 56.0741 9.91898 64.4861 13.0069C72.8981 16.0949 80.4051 20.4606 87.007 26.1042L78.8611 59.6458C74.9213 53.044 69.4907 47.5069 62.5694 43.0347C55.6482 38.456 47.662 36.1667 38.6111 36.1667C29.9861 36.1667 22.1597 38.2963 15.1319 42.5556C8.21065 46.7083 2.72685 52.3519 -1.31944 59.4861C-5.36574 66.5139 -7.38889 74.3935 -7.38889 83.125C-7.38889 91.75 -5.36574 99.6296 -1.31944 106.764C2.72685 113.898 8.21065 119.595 15.1319 123.854C22.1597 128.007 29.9861 130.083 38.6111 130.083C47.5556 130.083 55.4884 127.847 62.4097 123.375C69.4375 118.796 74.9213 113.206 78.8611 106.604L87.007 140.146C80.2986 145.683 72.7384 150.049 64.3264 153.243C56.0208 156.331 47.1296 157.875 37.6528 157.875ZM139.63 158.194C132.922 158.194 126.586 156.597 120.623 153.403C114.661 150.102 109.816 145.363 106.089 139.187C102.468 132.905 100.658 125.345 100.658 116.507V59.1667H128.45V112.833C128.45 118.157 130.047 122.896 133.242 127.049C136.542 131.201 141.121 133.278 146.978 133.278C151.769 133.278 156.029 131.574 159.755 128.167C163.589 124.653 165.505 119.648 165.505 113.153V59.1667H193.297V155H168.061V144.938C164.654 149.197 160.448 152.498 155.443 154.84C150.545 157.076 145.274 158.194 139.63 158.194ZM245.896 158.194C239.4 158.194 232.798 157.13 226.09 155C219.488 152.87 214.324 149.995 210.597 146.375L217.465 120.181C220.553 124.44 224.812 128.167 230.243 131.361C235.78 134.556 241.477 136.153 247.333 136.153C251.273 136.153 254.095 135.407 255.798 133.917C257.609 132.426 258.514 130.616 258.514 128.486C258.514 126.037 257.609 124.28 255.798 123.215C253.988 122.044 252.125 121.086 250.208 120.34L236.791 115.229C233.81 114.058 230.403 112.461 226.569 110.437C222.736 108.414 219.382 105.539 216.507 101.812C213.738 98.0856 212.354 93.1875 212.354 87.1181C212.354 81.581 213.738 76.4699 216.507 71.7847C219.275 67.0995 223.268 63.3194 228.486 60.4444C233.81 57.463 240.199 55.9722 247.653 55.9722C254.574 55.9722 261.016 57.1435 266.979 59.4861C273.048 61.8287 277.467 64.4375 280.236 67.3125L273.847 92.5486C270.227 87.8634 265.914 84.2963 260.91 81.8472C256.011 79.2917 251.326 78.0139 246.854 78.0139C243.447 78.0139 240.944 78.706 239.347 80.0903C237.75 81.4745 236.951 83.0718 236.951 84.8819C236.951 86.2662 237.484 87.6505 238.548 89.0347C239.72 90.3125 241.636 91.4838 244.298 92.5486L256.757 97.1806C260.377 98.4583 264.21 100.162 268.257 102.292C272.41 104.421 275.923 107.403 278.798 111.236C281.673 114.963 283.111 120.127 283.111 126.729C283.111 135.993 279.65 143.553 272.729 149.41C265.914 155.266 256.97 158.194 245.896 158.194ZM310.289 155V81.2083H292.4V59.1667H310.768V27.2222H337.601V59.1667H356.608V81.2083H338.08V155H310.289ZM413.225 158.194C403.748 158.194 395.07 155.905 387.19 151.326C379.31 146.748 373.028 140.572 368.343 132.799C363.764 125.025 361.475 116.454 361.475 107.083C361.475 97.6065 363.764 89.0347 368.343 81.3681C373.028 73.5949 379.31 67.419 387.19 62.8403C395.07 58.2616 403.748 55.9722 413.225 55.9722C422.808 55.9722 431.486 58.2616 439.259 62.8403C447.139 67.419 453.368 73.5949 457.947 81.3681C462.632 89.0347 464.975 97.6065 464.975 107.083C464.975 116.454 462.632 125.025 457.947 132.799C453.368 140.572 447.139 146.748 439.259 151.326C431.486 155.905 422.808 158.194 413.225 158.194ZM413.225 133.278C418.016 133.278 422.329 132.106 426.162 129.764C430.102 127.421 433.19 124.28 435.426 120.34C437.769 116.294 438.94 111.875 438.94 107.083C438.94 102.185 437.769 97.7662 435.426 93.8264C433.19 89.8866 430.102 86.7454 426.162 84.4028C422.329 82.0602 418.016 80.8889 413.225 80.8889C408.433 80.8889 404.067 82.0602 400.127 84.4028C396.294 86.7454 393.206 89.8866 390.863 93.8264C388.627 97.7662 387.509 102.185 387.509 107.083C387.509 111.875 388.627 116.294 390.863 120.34C393.206 124.28 396.294 127.421 400.127 129.764C404.067 132.106 408.433 133.278 413.225 133.278ZM481.266 155V59.1667H506.183V69.7083C509.59 65.2361 513.796 61.8287 518.801 59.4861C523.912 57.1435 529.236 55.9722 534.773 55.9722C540.417 55.9722 545.741 57.1435 550.745 59.4861C555.75 61.8287 559.956 65.2361 563.364 69.7083C567.09 65.2361 571.722 61.8287 577.259 59.4861C582.796 57.1435 588.813 55.9722 595.308 55.9722C602.123 55.9722 608.512 57.5694 614.475 60.7639C620.438 63.8518 625.282 68.4306 629.009 74.5C632.736 80.463 634.6 87.7569 634.6 96.3819V155H606.808V100.375C606.808 95.2639 605.317 90.7384 602.336 86.7986C599.354 82.8588 595.042 80.8889 589.398 80.8889C586.417 80.8889 583.542 81.6343 580.773 83.125C578.111 84.5093 575.928 86.6389 574.225 89.5139C572.627 92.2824 571.829 95.7963 571.829 100.056V155H544.037V100.375C544.037 96.9676 543.345 93.7731 541.961 90.7917C540.683 87.8102 538.713 85.4144 536.051 83.6042C533.495 81.794 530.354 80.8889 526.627 80.8889C523.646 80.8889 520.771 81.6343 518.002 83.125C515.34 84.5093 513.157 86.6389 511.454 89.5139C509.857 92.2824 509.058 95.7963 509.058 100.056V155H481.266ZM777.316 157.875C766.455 157.875 756.286 156.065 746.809 152.444C737.439 148.718 729.187 143.5 722.053 136.792C715.025 130.083 709.541 122.204 705.601 113.153C701.661 104.102 699.691 94.1991 699.691 83.4444C699.691 72.6898 701.661 62.787 705.601 53.7361C709.541 44.5787 715.025 36.6458 722.053 29.9375C729.187 23.1227 737.386 17.8519 746.65 14.125C756.02 10.2917 766.136 8.375 776.997 8.375C786.793 8.375 795.951 9.91898 804.469 13.0069C812.988 16.0949 820.548 20.4606 827.15 26.1042L819.004 59.0069C814.958 52.4051 809.367 46.8681 802.233 42.3958C795.205 37.8171 786.793 35.5278 776.997 35.5278C767.946 35.5278 759.853 37.6042 752.719 41.7569C745.585 45.9097 739.941 51.6065 735.789 58.8472C731.742 66.088 729.719 74.287 729.719 83.4444C729.719 92.8148 731.742 101.12 735.789 108.361C739.941 115.495 745.585 121.139 752.719 125.292C759.853 129.338 767.893 131.361 776.837 131.361C781.203 131.361 785.249 130.935 788.976 130.083C792.703 129.231 796.057 127.954 799.039 126.25V98.4583H769.809V74.5H825.233V144.299C818.631 148.558 811.231 151.912 803.032 154.361C794.939 156.704 786.367 157.875 777.316 157.875ZM848.503 155V59.1667H873.419V75.6181C876.72 70.081 880.873 65.8218 885.878 62.8403C890.989 59.7523 896.952 58.2083 903.766 58.2083L909.836 82.8056C907.813 82.1667 905.523 81.8472 902.968 81.8472C894.982 81.8472 888.54 84.456 883.641 89.6736C878.743 94.7847 876.294 102.132 876.294 111.715V155H848.503ZM961.93 157.556C953.092 157.556 945.053 155.266 937.812 150.687C930.572 146.109 924.768 140.039 920.403 132.479C916.143 124.812 914.014 116.347 914.014 107.083C914.014 97.8194 916.143 89.3542 920.403 81.6875C924.768 74.0208 930.572 67.9514 937.812 63.4792C945.053 58.9005 953.092 56.6111 961.93 56.6111C968.106 56.6111 973.75 57.7292 978.861 59.9653C983.972 62.0949 988.338 65.0764 991.958 68.9097V59.1667H1015.92V155H991.958V145.257C988.338 149.09 983.972 152.125 978.861 154.361C973.75 156.491 968.106 157.556 961.93 157.556ZM965.285 133.118C969.97 133.118 974.229 131.947 978.062 129.604C981.896 127.262 984.93 124.12 987.166 120.181C989.509 116.241 990.68 111.875 990.68 107.083C990.68 102.292 989.509 97.9259 987.166 93.9861C984.93 90.0463 981.896 86.9051 978.062 84.5625C974.229 82.2199 969.97 81.0486 965.285 81.0486C960.599 81.0486 956.34 82.2199 952.507 84.5625C948.673 86.9051 945.585 90.0463 943.243 93.9861C941.007 97.9259 939.889 102.292 939.889 107.083C939.889 111.875 941.007 116.241 943.243 120.181C945.585 124.12 948.673 127.262 952.507 129.604C956.34 131.947 960.599 133.118 965.285 133.118ZM1036.95 202.917V59.1667H1060.91V68.5903C1064.64 64.8634 1069 61.9352 1074.01 59.8056C1079.12 57.6759 1084.71 56.6111 1090.78 56.6111C1099.72 56.6111 1107.81 58.9005 1115.05 63.4792C1122.29 67.9514 1128.04 74.0208 1132.3 81.6875C1136.67 89.3542 1138.85 97.8194 1138.85 107.083C1138.85 116.347 1136.67 124.812 1132.3 132.479C1128.04 140.039 1122.29 146.109 1115.05 150.687C1107.81 155.266 1099.72 157.556 1090.78 157.556C1085.67 157.556 1080.93 156.757 1076.56 155.16C1072.2 153.669 1068.26 151.593 1064.74 148.931V202.917H1036.95ZM1087.58 133.118C1092.27 133.118 1096.53 131.947 1100.36 129.604C1104.19 127.262 1107.23 124.12 1109.46 120.181C1111.81 116.241 1112.98 111.875 1112.98 107.083C1112.98 102.292 1111.81 97.9259 1109.46 93.9861C1107.23 90.0463 1104.19 86.9051 1100.36 84.5625C1096.53 82.2199 1092.27 81.0486 1087.58 81.0486C1082.9 81.0486 1078.64 82.2199 1074.8 84.5625C1070.97 86.9051 1067.88 90.0463 1065.54 93.9861C1063.3 97.9259 1062.19 102.292 1062.19 107.083C1062.19 111.875 1063.3 116.241 1065.54 120.181C1067.88 124.12 1070.97 127.262 1074.8 129.604C1078.64 131.947 1082.9 133.118 1087.58 133.118ZM1155.09 155V1.66666H1182.89V66.3542C1186.29 62.9468 1190.18 60.3912 1194.55 58.6875C1199.02 56.8773 1203.76 55.9722 1208.76 55.9722C1215.58 55.9722 1221.91 57.6227 1227.77 60.9236C1233.73 64.1181 1238.52 68.8565 1242.14 75.1389C1245.87 81.3148 1247.73 88.8218 1247.73 97.6597V155H1219.94V101.333C1219.94 96.0093 1218.34 91.2708 1215.15 87.1181C1211.96 82.9653 1207.38 80.8889 1201.41 80.8889C1196.62 80.8889 1192.31 82.5393 1188.48 85.8403C1184.75 89.0347 1182.89 94.0926 1182.89 101.014V155H1155.09ZM1267.27 155V59.1667H1295.06V155H1267.27ZM1281.17 45.2708C1277.01 45.2708 1273.5 43.8333 1270.62 40.9583C1267.75 38.0833 1266.31 34.5694 1266.31 30.4167C1266.31 26.1574 1267.75 22.6435 1270.62 19.875C1273.5 17 1277.01 15.5625 1281.17 15.5625C1285.42 15.5625 1288.94 17 1291.71 19.875C1294.58 22.6435 1296.02 26.1574 1296.02 30.4167C1296.02 34.5694 1294.58 38.0833 1291.71 40.9583C1288.94 43.8333 1285.42 45.2708 1281.17 45.2708ZM1363.32 158.194C1353.85 158.194 1345.17 155.905 1337.29 151.326C1329.41 146.748 1323.13 140.572 1318.44 132.799C1313.86 125.025 1311.57 116.454 1311.57 107.083C1311.57 97.6065 1313.86 89.0347 1318.44 81.3681C1323.13 73.5949 1329.41 67.419 1337.29 62.8403C1345.17 58.2616 1353.85 55.9722 1363.32 55.9722C1369.92 55.9722 1376.15 57.0903 1382.01 59.3264C1387.97 61.456 1393.24 64.6505 1397.82 68.9097L1390.63 97.1806C1387.97 92.8148 1384.41 89.0347 1379.93 85.8403C1375.57 82.5393 1370.4 80.8889 1364.44 80.8889C1359.44 80.8889 1354.96 82.0602 1351.02 84.4028C1347.08 86.7454 1344 89.8866 1341.76 93.8264C1339.52 97.7662 1338.41 102.185 1338.41 107.083C1338.41 111.875 1339.52 116.294 1341.76 120.34C1344 124.28 1347.08 127.421 1351.02 129.764C1354.96 132.106 1359.44 133.278 1364.44 133.278C1370.4 133.278 1375.57 131.681 1379.93 128.486C1384.41 125.185 1387.97 121.352 1390.63 116.986L1397.82 145.257C1393.24 149.516 1387.97 152.764 1382.01 155C1376.15 157.13 1369.92 158.194 1363.32 158.194ZM1443.74 158.194C1437.24 158.194 1430.64 157.13 1423.93 155C1417.33 152.87 1412.17 149.995 1408.44 146.375L1415.31 120.181C1418.39 124.44 1422.65 128.167 1428.08 131.361C1433.62 134.556 1439.32 136.153 1445.17 136.153C1449.11 136.153 1451.94 135.407 1453.64 133.917C1455.45 132.426 1456.36 130.616 1456.36 128.486C1456.36 126.037 1455.45 124.28 1453.64 123.215C1451.83 122.044 1449.97 121.086 1448.05 120.34L1434.63 115.229C1431.65 114.058 1428.24 112.461 1424.41 110.437C1420.58 108.414 1417.22 105.539 1414.35 101.812C1411.58 98.0856 1410.2 93.1875 1410.2 87.1181C1410.2 81.581 1411.58 76.4699 1414.35 71.7847C1417.12 67.0995 1421.11 63.3194 1426.33 60.4444C1431.65 57.463 1438.04 55.9722 1445.49 55.9722C1452.42 55.9722 1458.86 57.1435 1464.82 59.4861C1470.89 61.8287 1475.31 64.4375 1478.08 67.3125L1471.69 92.5486C1468.07 87.8634 1463.76 84.2963 1458.75 81.8472C1453.85 79.2917 1449.17 78.0139 1444.7 78.0139C1441.29 78.0139 1438.79 78.706 1437.19 80.0903C1435.59 81.4745 1434.79 83.0718 1434.79 84.8819C1434.79 86.2662 1435.33 87.6505 1436.39 89.0347C1437.56 90.3125 1439.48 91.4838 1442.14 92.5486L1454.6 97.1806C1458.22 98.4583 1462.05 100.162 1466.1 102.292C1470.25 104.421 1473.77 107.403 1476.64 111.236C1479.52 114.963 1480.95 120.127 1480.95 126.729C1480.95 135.993 1477.49 143.553 1470.57 149.41C1463.76 155.266 1454.81 158.194 1443.74 158.194Z"/>
</mask>
<path d="M37.6528 157.875C27.1111 157.875 17.2616 155.958 8.10417 152.125C-1.05324 148.185 -9.14583 142.808 -16.1736 135.993C-23.0949 129.178 -28.5255 121.245 -32.4653 112.194C-36.4051 103.144 -38.375 93.4537 -38.375 83.125C-38.375 72.7963 -36.4051 63.1065 -32.4653 54.0556C-28.5255 45.0046 -23.0949 37.0718 -16.1736 30.2569C-9.14583 23.4421 -1.05324 18.1181 8.10417 14.2847C17.2616 10.3449 27.1111 8.375 37.6528 8.375C47.1296 8.375 56.0741 9.91898 64.4861 13.0069C72.8981 16.0949 80.4051 20.4606 87.007 26.1042L78.8611 59.6458C74.9213 53.044 69.4907 47.5069 62.5694 43.0347C55.6482 38.456 47.662 36.1667 38.6111 36.1667C29.9861 36.1667 22.1597 38.2963 15.1319 42.5556C8.21065 46.7083 2.72685 52.3519 -1.31944 59.4861C-5.36574 66.5139 -7.38889 74.3935 -7.38889 83.125C-7.38889 91.75 -5.36574 99.6296 -1.31944 106.764C2.72685 113.898 8.21065 119.595 15.1319 123.854C22.1597 128.007 29.9861 130.083 38.6111 130.083C47.5556 130.083 55.4884 127.847 62.4097 123.375C69.4375 118.796 74.9213 113.206 78.8611 106.604L87.007 140.146C80.2986 145.683 72.7384 150.049 64.3264 153.243C56.0208 156.331 47.1296 157.875 37.6528 157.875ZM139.63 158.194C132.922 158.194 126.586 156.597 120.623 153.403C114.661 150.102 109.816 145.363 106.089 139.187C102.468 132.905 100.658 125.345 100.658 116.507V59.1667H128.45V112.833C128.45 118.157 130.047 122.896 133.242 127.049C136.542 131.201 141.121 133.278 146.978 133.278C151.769 133.278 156.029 131.574 159.755 128.167C163.589 124.653 165.505 119.648 165.505 113.153V59.1667H193.297V155H168.061V144.938C164.654 149.197 160.448 152.498 155.443 154.84C150.545 157.076 145.274 158.194 139.63 158.194ZM245.896 158.194C239.4 158.194 232.798 157.13 226.09 155C219.488 152.87 214.324 149.995 210.597 146.375L217.465 120.181C220.553 124.44 224.812 128.167 230.243 131.361C235.78 134.556 241.477 136.153 247.333 136.153C251.273 136.153 254.095 135.407 255.798 133.917C257.609 132.426 258.514 130.616 258.514 128.486C258.514 126.037 257.609 124.28 255.798 123.215C253.988 122.044 252.125 121.086 250.208 120.34L236.791 115.229C233.81 114.058 230.403 112.461 226.569 110.437C222.736 108.414 219.382 105.539 216.507 101.812C213.738 98.0856 212.354 93.1875 212.354 87.1181C212.354 81.581 213.738 76.4699 216.507 71.7847C219.275 67.0995 223.268 63.3194 228.486 60.4444C233.81 57.463 240.199 55.9722 247.653 55.9722C254.574 55.9722 261.016 57.1435 266.979 59.4861C273.048 61.8287 277.467 64.4375 280.236 67.3125L273.847 92.5486C270.227 87.8634 265.914 84.2963 260.91 81.8472C256.011 79.2917 251.326 78.0139 246.854 78.0139C243.447 78.0139 240.944 78.706 239.347 80.0903C237.75 81.4745 236.951 83.0718 236.951 84.8819C236.951 86.2662 237.484 87.6505 238.548 89.0347C239.72 90.3125 241.636 91.4838 244.298 92.5486L256.757 97.1806C260.377 98.4583 264.21 100.162 268.257 102.292C272.41 104.421 275.923 107.403 278.798 111.236C281.673 114.963 283.111 120.127 283.111 126.729C283.111 135.993 279.65 143.553 272.729 149.41C265.914 155.266 256.97 158.194 245.896 158.194ZM310.289 155V81.2083H292.4V59.1667H310.768V27.2222H337.601V59.1667H356.608V81.2083H338.08V155H310.289ZM413.225 158.194C403.748 158.194 395.07 155.905 387.19 151.326C379.31 146.748 373.028 140.572 368.343 132.799C363.764 125.025 361.475 116.454 361.475 107.083C361.475 97.6065 363.764 89.0347 368.343 81.3681C373.028 73.5949 379.31 67.419 387.19 62.8403C395.07 58.2616 403.748 55.9722 413.225 55.9722C422.808 55.9722 431.486 58.2616 439.259 62.8403C447.139 67.419 453.368 73.5949 457.947 81.3681C462.632 89.0347 464.975 97.6065 464.975 107.083C464.975 116.454 462.632 125.025 457.947 132.799C453.368 140.572 447.139 146.748 439.259 151.326C431.486 155.905 422.808 158.194 413.225 158.194ZM413.225 133.278C418.016 133.278 422.329 132.106 426.162 129.764C430.102 127.421 433.19 124.28 435.426 120.34C437.769 116.294 438.94 111.875 438.94 107.083C438.94 102.185 437.769 97.7662 435.426 93.8264C433.19 89.8866 430.102 86.7454 426.162 84.4028C422.329 82.0602 418.016 80.8889 413.225 80.8889C408.433 80.8889 404.067 82.0602 400.127 84.4028C396.294 86.7454 393.206 89.8866 390.863 93.8264C388.627 97.7662 387.509 102.185 387.509 107.083C387.509 111.875 388.627 116.294 390.863 120.34C393.206 124.28 396.294 127.421 400.127 129.764C404.067 132.106 408.433 133.278 413.225 133.278ZM481.266 155V59.1667H506.183V69.7083C509.59 65.2361 513.796 61.8287 518.801 59.4861C523.912 57.1435 529.236 55.9722 534.773 55.9722C540.417 55.9722 545.741 57.1435 550.745 59.4861C555.75 61.8287 559.956 65.2361 563.364 69.7083C567.09 65.2361 571.722 61.8287 577.259 59.4861C582.796 57.1435 588.813 55.9722 595.308 55.9722C602.123 55.9722 608.512 57.5694 614.475 60.7639C620.438 63.8518 625.282 68.4306 629.009 74.5C632.736 80.463 634.6 87.7569 634.6 96.3819V155H606.808V100.375C606.808 95.2639 605.317 90.7384 602.336 86.7986C599.354 82.8588 595.042 80.8889 589.398 80.8889C586.417 80.8889 583.542 81.6343 580.773 83.125C578.111 84.5093 575.928 86.6389 574.225 89.5139C572.627 92.2824 571.829 95.7963 571.829 100.056V155H544.037V100.375C544.037 96.9676 543.345 93.7731 541.961 90.7917C540.683 87.8102 538.713 85.4144 536.051 83.6042C533.495 81.794 530.354 80.8889 526.627 80.8889C523.646 80.8889 520.771 81.6343 518.002 83.125C515.34 84.5093 513.157 86.6389 511.454 89.5139C509.857 92.2824 509.058 95.7963 509.058 100.056V155H481.266ZM777.316 157.875C766.455 157.875 756.286 156.065 746.809 152.444C737.439 148.718 729.187 143.5 722.053 136.792C715.025 130.083 709.541 122.204 705.601 113.153C701.661 104.102 699.691 94.1991 699.691 83.4444C699.691 72.6898 701.661 62.787 705.601 53.7361C709.541 44.5787 715.025 36.6458 722.053 29.9375C729.187 23.1227 737.386 17.8519 746.65 14.125C756.02 10.2917 766.136 8.375 776.997 8.375C786.793 8.375 795.951 9.91898 804.469 13.0069C812.988 16.0949 820.548 20.4606 827.15 26.1042L819.004 59.0069C814.958 52.4051 809.367 46.8681 802.233 42.3958C795.205 37.8171 786.793 35.5278 776.997 35.5278C767.946 35.5278 759.853 37.6042 752.719 41.7569C745.585 45.9097 739.941 51.6065 735.789 58.8472C731.742 66.088 729.719 74.287 729.719 83.4444C729.719 92.8148 731.742 101.12 735.789 108.361C739.941 115.495 745.585 121.139 752.719 125.292C759.853 129.338 767.893 131.361 776.837 131.361C781.203 131.361 785.249 130.935 788.976 130.083C792.703 129.231 796.057 127.954 799.039 126.25V98.4583H769.809V74.5H825.233V144.299C818.631 148.558 811.231 151.912 803.032 154.361C794.939 156.704 786.367 157.875 777.316 157.875ZM848.503 155V59.1667H873.419V75.6181C876.72 70.081 880.873 65.8218 885.878 62.8403C890.989 59.7523 896.952 58.2083 903.766 58.2083L909.836 82.8056C907.813 82.1667 905.523 81.8472 902.968 81.8472C894.982 81.8472 888.54 84.456 883.641 89.6736C878.743 94.7847 876.294 102.132 876.294 111.715V155H848.503ZM961.93 157.556C953.092 157.556 945.053 155.266 937.812 150.687C930.572 146.109 924.768 140.039 920.403 132.479C916.143 124.812 914.014 116.347 914.014 107.083C914.014 97.8194 916.143 89.3542 920.403 81.6875C924.768 74.0208 930.572 67.9514 937.812 63.4792C945.053 58.9005 953.092 56.6111 961.93 56.6111C968.106 56.6111 973.75 57.7292 978.861 59.9653C983.972 62.0949 988.338 65.0764 991.958 68.9097V59.1667H1015.92V155H991.958V145.257C988.338 149.09 983.972 152.125 978.861 154.361C973.75 156.491 968.106 157.556 961.93 157.556ZM965.285 133.118C969.97 133.118 974.229 131.947 978.062 129.604C981.896 127.262 984.93 124.12 987.166 120.181C989.509 116.241 990.68 111.875 990.68 107.083C990.68 102.292 989.509 97.9259 987.166 93.9861C984.93 90.0463 981.896 86.9051 978.062 84.5625C974.229 82.2199 969.97 81.0486 965.285 81.0486C960.599 81.0486 956.34 82.2199 952.507 84.5625C948.673 86.9051 945.585 90.0463 943.243 93.9861C941.007 97.9259 939.889 102.292 939.889 107.083C939.889 111.875 941.007 116.241 943.243 120.181C945.585 124.12 948.673 127.262 952.507 129.604C956.34 131.947 960.599 133.118 965.285 133.118ZM1036.95 202.917V59.1667H1060.91V68.5903C1064.64 64.8634 1069 61.9352 1074.01 59.8056C1079.12 57.6759 1084.71 56.6111 1090.78 56.6111C1099.72 56.6111 1107.81 58.9005 1115.05 63.4792C1122.29 67.9514 1128.04 74.0208 1132.3 81.6875C1136.67 89.3542 1138.85 97.8194 1138.85 107.083C1138.85 116.347 1136.67 124.812 1132.3 132.479C1128.04 140.039 1122.29 146.109 1115.05 150.687C1107.81 155.266 1099.72 157.556 1090.78 157.556C1085.67 157.556 1080.93 156.757 1076.56 155.16C1072.2 153.669 1068.26 151.593 1064.74 148.931V202.917H1036.95ZM1087.58 133.118C1092.27 133.118 1096.53 131.947 1100.36 129.604C1104.19 127.262 1107.23 124.12 1109.46 120.181C1111.81 116.241 1112.98 111.875 1112.98 107.083C1112.98 102.292 1111.81 97.9259 1109.46 93.9861C1107.23 90.0463 1104.19 86.9051 1100.36 84.5625C1096.53 82.2199 1092.27 81.0486 1087.58 81.0486C1082.9 81.0486 1078.64 82.2199 1074.8 84.5625C1070.97 86.9051 1067.88 90.0463 1065.54 93.9861C1063.3 97.9259 1062.19 102.292 1062.19 107.083C1062.19 111.875 1063.3 116.241 1065.54 120.181C1067.88 124.12 1070.97 127.262 1074.8 129.604C1078.64 131.947 1082.9 133.118 1087.58 133.118ZM1155.09 155V1.66666H1182.89V66.3542C1186.29 62.9468 1190.18 60.3912 1194.55 58.6875C1199.02 56.8773 1203.76 55.9722 1208.76 55.9722C1215.58 55.9722 1221.91 57.6227 1227.77 60.9236C1233.73 64.1181 1238.52 68.8565 1242.14 75.1389C1245.87 81.3148 1247.73 88.8218 1247.73 97.6597V155H1219.94V101.333C1219.94 96.0093 1218.34 91.2708 1215.15 87.1181C1211.96 82.9653 1207.38 80.8889 1201.41 80.8889C1196.62 80.8889 1192.31 82.5393 1188.48 85.8403C1184.75 89.0347 1182.89 94.0926 1182.89 101.014V155H1155.09ZM1267.27 155V59.1667H1295.06V155H1267.27ZM1281.17 45.2708C1277.01 45.2708 1273.5 43.8333 1270.62 40.9583C1267.75 38.0833 1266.31 34.5694 1266.31 30.4167C1266.31 26.1574 1267.75 22.6435 1270.62 19.875C1273.5 17 1277.01 15.5625 1281.17 15.5625C1285.42 15.5625 1288.94 17 1291.71 19.875C1294.58 22.6435 1296.02 26.1574 1296.02 30.4167C1296.02 34.5694 1294.58 38.0833 1291.71 40.9583C1288.94 43.8333 1285.42 45.2708 1281.17 45.2708ZM1363.32 158.194C1353.85 158.194 1345.17 155.905 1337.29 151.326C1329.41 146.748 1323.13 140.572 1318.44 132.799C1313.86 125.025 1311.57 116.454 1311.57 107.083C1311.57 97.6065 1313.86 89.0347 1318.44 81.3681C1323.13 73.5949 1329.41 67.419 1337.29 62.8403C1345.17 58.2616 1353.85 55.9722 1363.32 55.9722C1369.92 55.9722 1376.15 57.0903 1382.01 59.3264C1387.97 61.456 1393.24 64.6505 1397.82 68.9097L1390.63 97.1806C1387.97 92.8148 1384.41 89.0347 1379.93 85.8403C1375.57 82.5393 1370.4 80.8889 1364.44 80.8889C1359.44 80.8889 1354.96 82.0602 1351.02 84.4028C1347.08 86.7454 1344 89.8866 1341.76 93.8264C1339.52 97.7662 1338.41 102.185 1338.41 107.083C1338.41 111.875 1339.52 116.294 1341.76 120.34C1344 124.28 1347.08 127.421 1351.02 129.764C1354.96 132.106 1359.44 133.278 1364.44 133.278C1370.4 133.278 1375.57 131.681 1379.93 128.486C1384.41 125.185 1387.97 121.352 1390.63 116.986L1397.82 145.257C1393.24 149.516 1387.97 152.764 1382.01 155C1376.15 157.13 1369.92 158.194 1363.32 158.194ZM1443.74 158.194C1437.24 158.194 1430.64 157.13 1423.93 155C1417.33 152.87 1412.17 149.995 1408.44 146.375L1415.31 120.181C1418.39 124.44 1422.65 128.167 1428.08 131.361C1433.62 134.556 1439.32 136.153 1445.17 136.153C1449.11 136.153 1451.94 135.407 1453.64 133.917C1455.45 132.426 1456.36 130.616 1456.36 128.486C1456.36 126.037 1455.45 124.28 1453.64 123.215C1451.83 122.044 1449.97 121.086 1448.05 120.34L1434.63 115.229C1431.65 114.058 1428.24 112.461 1424.41 110.437C1420.58 108.414 1417.22 105.539 1414.35 101.812C1411.58 98.0856 1410.2 93.1875 1410.2 87.1181C1410.2 81.581 1411.58 76.4699 1414.35 71.7847C1417.12 67.0995 1421.11 63.3194 1426.33 60.4444C1431.65 57.463 1438.04 55.9722 1445.49 55.9722C1452.42 55.9722 1458.86 57.1435 1464.82 59.4861C1470.89 61.8287 1475.31 64.4375 1478.08 67.3125L1471.69 92.5486C1468.07 87.8634 1463.76 84.2963 1458.75 81.8472C1453.85 79.2917 1449.17 78.0139 1444.7 78.0139C1441.29 78.0139 1438.79 78.706 1437.19 80.0903C1435.59 81.4745 1434.79 83.0718 1434.79 84.8819C1434.79 86.2662 1435.33 87.6505 1436.39 89.0347C1437.56 90.3125 1439.48 91.4838 1442.14 92.5486L1454.6 97.1806C1458.22 98.4583 1462.05 100.162 1466.1 102.292C1470.25 104.421 1473.77 107.403 1476.64 111.236C1479.52 114.963 1480.95 120.127 1480.95 126.729C1480.95 135.993 1477.49 143.553 1470.57 149.41C1463.76 155.266 1454.81 158.194 1443.74 158.194Z" fill="white"/>
<path d="M8.10417 152.125L7.70894 153.044L7.71803 153.047L8.10417 152.125ZM-16.1736 135.993L-16.8752 136.706L-16.8698 136.711L-16.1736 135.993ZM-32.4653 112.194L-31.5484 111.795L-32.4653 112.194ZM-32.4653 54.0556L-33.3822 53.6564L-32.4653 54.0556ZM-16.1736 30.2569L-16.8698 29.539L-16.8752 29.5444L-16.1736 30.2569ZM8.10417 14.2847L8.49033 15.2072L8.49938 15.2033L8.10417 14.2847ZM64.4861 13.0069L64.8307 12.0682L64.4861 13.0069ZM87.007 26.1042L87.9787 26.3402L88.1237 25.7432L87.6567 25.344L87.007 26.1042ZM78.8611 59.6458L78.0024 60.1583L79.2557 62.2584L79.8329 59.8818L78.8611 59.6458ZM62.5695 43.0347L62.0177 43.8688L62.0267 43.8746L62.5695 43.0347ZM15.1319 42.5556L15.6464 43.4131L15.6502 43.4108L15.1319 42.5556ZM-1.31944 59.4861L-0.452805 59.9851L-0.449608 59.9794L-1.31944 59.4861ZM-1.31944 106.764L-2.18928 107.257L-1.31944 106.764ZM15.1319 123.854L14.6078 124.706L14.6155 124.711L14.6232 124.715L15.1319 123.854ZM62.4097 123.375L62.9524 124.215L62.9556 124.213L62.4097 123.375ZM78.8611 106.604L79.8329 106.368L79.2557 103.992L78.0024 106.092L78.8611 106.604ZM87.007 140.146L87.6435 140.917L88.1265 140.518L87.9787 139.91L87.007 140.146ZM64.3264 153.243L64.6749 154.18L64.6814 154.178L64.3264 153.243ZM37.6528 157.875V156.875C27.2354 156.875 17.518 154.982 8.49031 151.203L8.10417 152.125L7.71803 153.047C17.0052 156.935 26.9868 158.875 37.6528 158.875V157.875ZM8.10417 152.125L8.49938 151.206C-0.548443 147.314 -8.53859 142.004 -15.4775 135.275L-16.1736 135.993L-16.8698 136.711C-9.75308 143.612 -1.55803 149.057 7.70896 153.044L8.10417 152.125ZM-16.1736 135.993L-15.472 135.28C-22.3006 128.557 -27.6588 120.731 -31.5484 111.795L-32.4653 112.194L-33.3822 112.594C-29.3922 121.76 -23.8892 129.8 -16.8752 136.706L-16.1736 135.993ZM-32.4653 112.194L-31.5484 111.795C-35.4308 102.876 -37.375 93.3229 -37.375 83.125H-38.375H-39.375C-39.375 93.5845 -37.3793 103.411 -33.3822 112.594L-32.4653 112.194ZM-38.375 83.125H-37.375C-37.375 72.9271 -35.4308 63.3739 -31.5484 54.4547L-32.4653 54.0556L-33.3822 53.6564C-37.3793 62.8391 -39.375 72.6655 -39.375 83.125H-38.375ZM-32.4653 54.0556L-31.5484 54.4547C-27.6588 45.5191 -22.3006 37.6931 -15.472 30.9695L-16.1736 30.2569L-16.8752 29.5444C-23.8892 36.4504 -29.3922 44.4902 -33.3822 53.6564L-32.4653 54.0556ZM-16.1736 30.2569L-15.4775 30.9748C-8.54063 24.2482 -0.553562 18.993 8.49031 15.2072L8.10417 14.2847L7.71803 13.3623C-1.55292 17.2431 -9.75104 22.636 -16.8698 29.539L-16.1736 30.2569ZM8.10417 14.2847L8.49938 15.2033C17.5249 11.3203 27.2391 9.375 37.6528 9.375V8.375V7.375C26.9832 7.375 16.9983 9.36956 7.70896 13.3661L8.10417 14.2847ZM37.6528 8.375V9.375C47.0189 9.375 55.8461 10.9005 64.1415 13.9457L64.4861 13.0069L64.8307 12.0682C56.3021 8.93743 47.2404 7.375 37.6528 7.375V8.375ZM64.4861 13.0069L64.1415 13.9457C72.4456 16.994 79.8485 21.3004 86.3572 26.8643L87.007 26.1042L87.6567 25.344C80.9617 19.6209 73.3507 15.1958 64.8307 12.0682L64.4861 13.0069ZM87.007 26.1042L86.0352 25.8682L77.8894 59.4098L78.8611 59.6458L79.8329 59.8818L87.9787 26.3402L87.007 26.1042ZM78.8611 59.6458L79.7198 59.1334C75.6957 52.3902 70.1531 46.7443 63.1122 42.1948L62.5695 43.0347L62.0267 43.8746C68.8284 48.2696 74.1469 53.6978 78.0024 60.1583L78.8611 59.6458ZM62.5695 43.0347L63.1212 42.2007C56.0214 37.5039 47.8397 35.1667 38.6111 35.1667V36.1667V37.1667C47.4844 37.1667 55.2749 39.4081 62.0177 43.8687L62.5695 43.0347ZM38.6111 36.1667V35.1667C29.8128 35.1667 21.8056 37.3416 14.6136 41.7004L15.1319 42.5556L15.6502 43.4108C22.5138 39.251 30.1594 37.1667 38.6111 37.1667V36.1667ZM15.1319 42.5556L14.6174 41.6981C7.54581 45.941 1.94065 51.7111 -2.18928 58.9928L-1.31944 59.4861L-0.449608 59.9794C3.51306 52.9926 8.87549 47.4756 15.6464 43.413L15.1319 42.5556ZM-1.31944 59.4861L-2.18607 58.9872C-6.32642 66.1783 -8.38889 74.2323 -8.38889 83.125H-7.38889H-6.38889C-6.38889 74.5548 -4.40506 66.8495 -0.452824 59.9851L-1.31944 59.4861ZM-7.38889 83.125H-8.38889C-8.38889 91.9137 -6.32535 99.9647 -2.18928 107.257L-1.31944 106.764L-0.449608 106.271C-4.40613 99.2946 -6.38889 91.5863 -6.38889 83.125H-7.38889ZM-1.31944 106.764L-2.18928 107.257C1.9394 114.537 7.54156 120.357 14.6078 124.706L15.1319 123.854L15.656 123.003C8.87974 118.832 3.5143 113.26 -0.449608 106.271L-1.31944 106.764ZM15.1319 123.854L14.6232 124.715C21.8139 128.964 29.8177 131.083 38.6111 131.083V130.083V129.083C30.1545 129.083 22.5055 127.05 15.6407 122.993L15.1319 123.854ZM38.6111 130.083V131.083C47.731 131.083 55.8556 128.801 62.9524 124.215L62.4097 123.375L61.867 122.535C55.1212 126.894 47.3801 129.083 38.6111 129.083V130.083ZM62.4097 123.375L62.9556 124.213C70.0993 119.559 75.695 113.861 79.7198 107.117L78.8611 106.604L78.0024 106.092C74.1476 112.551 68.7757 118.034 61.8638 122.537L62.4097 123.375ZM78.8611 106.604L77.8894 106.84L86.0352 140.382L87.007 140.146L87.9787 139.91L79.8329 106.368L78.8611 106.604ZM87.007 140.146L86.3704 139.375C79.7492 144.84 72.2848 149.151 63.9714 152.308L64.3264 153.243L64.6814 154.178C73.192 150.946 80.848 146.526 87.6435 140.917L87.007 140.146ZM64.3264 153.243L63.9779 152.306C55.7914 155.349 47.019 156.875 37.6528 156.875V157.875V158.875C47.2403 158.875 56.2503 157.313 64.6749 154.18L64.3264 153.243ZM120.623 153.403L120.139 154.278L120.151 154.284L120.623 153.403ZM106.089 139.188L105.222 139.687L105.227 139.696L105.233 139.704L106.089 139.188ZM100.658 59.1667V58.1667H99.6582V59.1667H100.658ZM128.45 59.1667H129.45V58.1667H128.45V59.1667ZM133.242 127.049L132.449 127.658L132.454 127.665L132.459 127.671L133.242 127.049ZM159.755 128.167L160.43 128.905L160.431 128.904L159.755 128.167ZM165.505 59.1667V58.1667H164.505V59.1667H165.505ZM193.297 59.1667H194.297V58.1667H193.297V59.1667ZM193.297 155V156H194.297V155H193.297ZM168.061 155H167.061V156H168.061V155ZM168.061 144.938H169.061V142.087L167.28 144.313L168.061 144.938ZM155.443 154.84L155.858 155.75L155.867 155.746L155.443 154.84ZM139.63 158.194V157.194C133.088 157.194 126.915 155.639 121.096 152.521L120.623 153.403L120.151 154.284C126.258 157.556 132.756 159.194 139.63 159.194V158.194ZM120.623 153.403L121.108 152.528C115.307 149.317 110.587 144.706 106.945 138.671L106.089 139.188L105.233 139.704C109.044 146.021 114.014 150.887 120.139 154.278L120.623 153.403ZM106.089 139.188L106.955 138.688C103.44 132.588 101.658 125.208 101.658 116.507H100.658H99.6582C99.6582 125.482 101.497 133.223 105.222 139.687L106.089 139.188ZM100.658 116.507H101.658V59.1667H100.658H99.6582V116.507H100.658ZM100.658 59.1667V60.1667H128.45V59.1667V58.1667H100.658V59.1667ZM128.45 59.1667H127.45V112.833H128.45H129.45V59.1667H128.45ZM128.45 112.833H127.45C127.45 118.374 129.118 123.328 132.449 127.658L133.242 127.049L134.034 126.439C130.977 122.464 129.45 117.941 129.45 112.833H128.45ZM133.242 127.049L132.459 127.671C135.971 132.089 140.852 134.278 146.978 134.278V133.278V132.278C141.39 132.278 137.114 130.314 134.024 126.426L133.242 127.049ZM146.978 133.278V134.278C152.033 134.278 156.53 132.471 160.43 128.905L159.755 128.167L159.081 127.429C155.527 130.677 151.505 132.278 146.978 132.278V133.278ZM159.755 128.167L160.431 128.904C164.52 125.155 166.505 119.854 166.505 113.153H165.505H164.505C164.505 119.443 162.657 124.15 159.08 127.43L159.755 128.167ZM165.505 113.153H166.505V59.1667H165.505H164.505V113.153H165.505ZM165.505 59.1667V60.1667H193.297V59.1667V58.1667H165.505V59.1667ZM193.297 59.1667H192.297V155H193.297H194.297V59.1667H193.297ZM193.297 155V154H168.061V155V156H193.297V155ZM168.061 155H169.061V144.938H168.061H167.061V155H168.061ZM168.061 144.938L167.28 144.313C163.97 148.451 159.887 151.656 155.019 153.935L155.443 154.84L155.867 155.746C161.009 153.339 165.337 149.943 168.842 145.562L168.061 144.938ZM155.443 154.84L155.028 153.931C150.266 156.104 145.138 157.194 139.63 157.194V158.194V159.194C145.41 159.194 150.823 158.048 155.858 155.75L155.443 154.84ZM226.09 155L225.783 155.952L225.787 155.953L226.09 155ZM210.597 146.375L209.63 146.121L209.482 146.686L209.9 147.092L210.597 146.375ZM217.465 120.181L218.275 119.594L217.034 117.882L216.498 119.927L217.465 120.181ZM230.243 131.361L229.736 132.223L229.743 132.227L230.243 131.361ZM255.798 133.917L255.163 133.145L255.151 133.154L255.14 133.164L255.798 133.917ZM255.798 123.215L255.255 124.055L255.273 124.066L255.291 124.077L255.798 123.215ZM250.208 120.34L250.571 119.408L250.564 119.406L250.208 120.34ZM236.791 115.229L236.426 116.16L236.435 116.164L236.791 115.229ZM226.569 110.438L227.036 109.553L226.569 110.438ZM216.507 101.812L215.704 102.409L215.709 102.416L215.715 102.423L216.507 101.812ZM216.507 71.7847L217.368 72.2935L216.507 71.7847ZM228.486 60.4444L228.969 61.3203L228.974 61.317L228.486 60.4444ZM266.979 59.4861L266.613 60.4169L266.619 60.419L266.979 59.4861ZM280.236 67.3125L281.205 67.5579L281.342 67.0192L280.956 66.6189L280.236 67.3125ZM273.847 92.5486L273.056 93.16L274.312 94.786L274.816 92.794L273.847 92.5486ZM260.91 81.8472L260.447 82.7338L260.458 82.7398L260.47 82.7454L260.91 81.8472ZM238.548 89.0347L237.756 89.6444L237.782 89.6786L237.811 89.7104L238.548 89.0347ZM244.298 92.5486L243.927 93.4771L243.938 93.4816L243.95 93.4859L244.298 92.5486ZM256.757 97.1806L256.408 98.1179L256.416 98.1208L256.424 98.1235L256.757 97.1806ZM268.257 102.292L267.791 103.177L267.8 103.181L268.257 102.292ZM278.798 111.236L277.998 111.836L278.007 111.847L278.798 111.236ZM272.729 149.41L272.083 148.646L272.077 148.651L272.729 149.41ZM245.896 158.194V157.194C239.511 157.194 233.011 156.148 226.393 154.047L226.09 155L225.787 155.953C232.586 158.111 239.289 159.194 245.896 159.194V158.194ZM226.09 155L226.397 154.048C219.895 151.951 214.88 149.141 211.294 145.658L210.597 146.375L209.9 147.092C213.768 150.849 219.082 153.79 225.783 155.952L226.09 155ZM210.597 146.375L211.564 146.629L218.432 120.434L217.465 120.181L216.498 119.927L209.63 146.121L210.597 146.375ZM217.465 120.181L216.655 120.768C219.839 125.158 224.21 128.972 229.736 132.223L230.243 131.361L230.75 130.499C225.415 127.361 221.267 123.722 218.275 119.594L217.465 120.181ZM230.243 131.361L229.743 132.227C235.418 135.501 241.285 137.153 247.333 137.153V136.153V135.153C241.668 135.153 236.142 133.61 230.743 130.495L230.243 131.361ZM247.333 136.153V137.153C251.352 137.153 254.477 136.401 256.457 134.669L255.798 133.917L255.14 133.164C253.712 134.413 251.194 135.153 247.333 135.153V136.153ZM255.798 133.917L256.434 134.689C258.448 133.03 259.514 130.947 259.514 128.486H258.514H257.514C257.514 130.284 256.769 131.822 255.163 133.145L255.798 133.917ZM258.514 128.486H259.514C259.514 125.753 258.477 123.631 256.305 122.353L255.798 123.215L255.291 124.077C256.74 124.93 257.514 126.322 257.514 128.486H258.514ZM255.798 123.215L256.342 122.376C254.477 121.169 252.553 120.179 250.571 119.408L250.208 120.34L249.846 121.272C251.696 121.992 253.499 122.919 255.255 124.055L255.798 123.215ZM250.208 120.34L250.564 119.406L237.147 114.295L236.791 115.229L236.435 116.164L249.852 121.275L250.208 120.34ZM236.791 115.229L237.157 114.298C234.22 113.144 230.847 111.565 227.036 109.553L226.569 110.438L226.102 111.322C229.958 113.357 233.4 114.971 236.426 116.16L236.791 115.229ZM226.569 110.438L227.036 109.553C223.34 107.602 220.094 104.825 217.299 101.202L216.507 101.812L215.715 102.423C218.67 106.254 222.132 109.226 226.102 111.322L226.569 110.438ZM216.507 101.812L217.309 101.216C214.703 97.7081 213.354 93.0386 213.354 87.1181H212.354H211.354C211.354 93.3364 212.773 98.4632 215.704 102.409L216.507 101.812ZM212.354 87.1181H213.354C213.354 81.7567 214.692 76.8218 217.368 72.2935L216.507 71.7847L215.646 71.276C212.785 76.1181 211.354 81.4053 211.354 87.1181H212.354ZM216.507 71.7847L217.368 72.2935C220.037 67.7766 223.892 64.1174 228.969 61.3203L228.486 60.4444L228.003 59.5686C222.644 62.5215 218.514 66.4224 215.646 71.276L216.507 71.7847ZM228.486 60.4444L228.974 61.317C234.12 58.4357 240.332 56.9722 247.653 56.9722V55.9722V54.9722C240.065 54.9722 233.5 56.4902 227.997 59.5719L228.486 60.4444ZM247.653 55.9722V56.9722C254.459 56.9722 260.776 58.1236 266.613 60.4169L266.979 59.4861L267.345 58.5554C261.256 56.1635 254.689 54.9722 247.653 54.9722V55.9722ZM266.979 59.4861L266.619 60.419C272.628 62.7383 276.892 65.2821 279.516 68.0061L280.236 67.3125L280.956 66.6189C278.042 63.5929 273.469 60.9191 267.339 58.5532L266.979 59.4861ZM280.236 67.3125L279.266 67.0671L272.878 92.3032L273.847 92.5486L274.816 92.794L281.205 67.5579L280.236 67.3125ZM273.847 92.5486L274.638 91.9372C270.93 87.1385 266.5 83.4697 261.349 80.949L260.91 81.8472L260.47 82.7454C265.328 85.1229 269.523 88.5884 273.056 93.16L273.847 92.5486ZM260.91 81.8472L261.372 80.9606C256.364 78.3478 251.521 77.0139 246.854 77.0139V78.0139V79.0139C251.132 79.0139 255.659 80.2355 260.447 82.7338L260.91 81.8472ZM246.854 78.0139V77.0139C243.344 77.0139 240.554 77.7211 238.692 79.3346L239.347 80.0903L240.002 80.846C241.335 79.6909 243.549 79.0139 246.854 79.0139V78.0139ZM239.347 80.0903L238.692 79.3346C236.916 80.8736 235.951 82.732 235.951 84.8819H236.951H237.951C237.951 83.4115 238.583 82.0755 240.002 80.846L239.347 80.0903ZM236.951 84.8819H235.951C235.951 86.5389 236.592 88.1318 237.756 89.6444L238.548 89.0347L239.341 88.425C238.375 87.1691 237.951 85.9935 237.951 84.8819H236.951ZM238.548 89.0347L237.811 89.7104C239.129 91.1484 241.206 92.3885 243.927 93.4771L244.298 92.5486L244.67 91.6201C242.067 90.5791 240.31 89.4766 239.286 88.359L238.548 89.0347ZM244.298 92.5486L243.95 93.4859L256.408 98.1179L256.757 97.1806L257.105 96.2432L244.647 91.6113L244.298 92.5486ZM256.757 97.1806L256.424 98.1235C259.991 99.3825 263.78 101.065 267.791 103.177L268.257 102.292L268.722 101.407C264.641 99.2587 260.763 97.5341 257.09 96.2376L256.757 97.1806ZM268.257 102.292L267.8 103.181C271.814 105.24 275.212 108.121 277.998 111.836L278.798 111.236L279.598 110.636C276.635 106.685 273.005 103.603 268.713 101.402L268.257 102.292ZM278.798 111.236L278.007 111.847C280.702 115.34 282.111 120.261 282.111 126.729H283.111H284.111C284.111 119.993 282.645 114.585 279.59 110.625L278.798 111.236ZM283.111 126.729H282.111C282.111 135.706 278.774 142.985 272.083 148.646L272.729 149.41L273.375 150.173C280.526 144.122 284.111 136.28 284.111 126.729H283.111ZM272.729 149.41L272.077 148.651C265.483 154.318 256.788 157.194 245.896 157.194V158.194V159.194C257.151 159.194 266.345 156.214 273.381 150.168L272.729 149.41ZM310.289 155H309.289V156H310.289V155ZM310.289 81.2083H311.289V80.2083H310.289V81.2083ZM292.4 81.2083H291.4V82.2083H292.4V81.2083ZM292.4 59.1667V58.1667H291.4V59.1667H292.4ZM310.768 59.1667V60.1667H311.768V59.1667H310.768ZM310.768 27.2222V26.2222H309.768V27.2222H310.768ZM337.601 27.2222H338.601V26.2222H337.601V27.2222ZM337.601 59.1667H336.601V60.1667H337.601V59.1667ZM356.608 59.1667H357.608V58.1667H356.608V59.1667ZM356.608 81.2083V82.2083H357.608V81.2083H356.608ZM338.08 81.2083V80.2083H337.08V81.2083H338.08ZM338.08 155V156H339.08V155H338.08ZM310.289 155H311.289V81.2083H310.289H309.289V155H310.289ZM310.289 81.2083V80.2083H292.4V81.2083V82.2083H310.289V81.2083ZM292.4 81.2083H293.4V59.1667H292.4H291.4V81.2083H292.4ZM292.4 59.1667V60.1667H310.768V59.1667V58.1667H292.4V59.1667ZM310.768 59.1667H311.768V27.2222H310.768H309.768V59.1667H310.768ZM310.768 27.2222V28.2222H337.601V27.2222V26.2222H310.768V27.2222ZM337.601 27.2222H336.601V59.1667H337.601H338.601V27.2222H337.601ZM337.601 59.1667V60.1667H356.608V59.1667V58.1667H337.601V59.1667ZM356.608 59.1667H355.608V81.2083H356.608H357.608V59.1667H356.608ZM356.608 81.2083V80.2083H338.08V81.2083V82.2083H356.608V81.2083ZM338.08 81.2083H337.08V155H338.08H339.08V81.2083H338.08ZM338.08 155V154H310.289V155V156H338.08V155ZM387.19 151.326L387.692 150.462L387.19 151.326ZM368.343 132.799L367.481 133.306L367.486 133.315L368.343 132.799ZM368.343 81.3681L367.486 80.8518L367.484 80.8553L368.343 81.3681ZM387.19 62.8403L386.687 61.9756L387.19 62.8403ZM439.259 62.8403L438.752 63.7019L438.757 63.7049L439.259 62.8403ZM457.947 81.3681L457.085 81.8756L457.089 81.8826L457.094 81.8895L457.947 81.3681ZM457.947 132.799L457.09 132.282L457.085 132.291L457.947 132.799ZM439.259 151.326L438.757 150.462L438.752 150.465L439.259 151.326ZM426.162 129.764L425.651 128.904L425.641 128.911L426.162 129.764ZM435.426 120.34L434.561 119.839L434.556 119.847L435.426 120.34ZM435.426 93.8264L434.556 94.32L434.561 94.3288L434.566 94.3375L435.426 93.8264ZM426.162 84.4028L425.641 85.2561L425.651 85.2623L426.162 84.4028ZM400.127 84.4028L399.616 83.5432L399.606 83.5495L400.127 84.4028ZM390.863 93.8264L390.004 93.3153L389.999 93.324L389.994 93.3328L390.863 93.8264ZM390.863 120.34L389.988 120.824L389.996 120.838L390.004 120.851L390.863 120.34ZM400.127 129.764L399.606 130.617L399.616 130.623L400.127 129.764ZM413.225 158.194V157.194C403.917 157.194 395.413 154.948 387.692 150.462L387.19 151.326L386.687 152.191C394.726 156.862 403.579 159.194 413.225 159.194V158.194ZM387.19 151.326L387.692 150.462C379.957 145.967 373.797 139.911 369.199 132.282L368.343 132.799L367.486 133.315C372.259 141.233 378.663 147.528 386.687 152.191L387.19 151.326ZM368.343 132.799L369.204 132.291C364.72 124.678 362.475 116.282 362.475 107.083H361.475H360.475C360.475 116.625 362.808 125.373 367.481 133.306L368.343 132.799ZM361.475 107.083H362.475C362.475 97.7755 364.721 89.3829 369.201 81.8808L368.343 81.3681L367.484 80.8553C362.807 88.6866 360.475 97.4374 360.475 107.083H361.475ZM368.343 81.3681L369.199 81.8843C373.797 74.2558 379.957 68.1995 387.692 63.7049L387.19 62.8403L386.687 61.9756C378.663 66.6385 372.259 72.934 367.486 80.8518L368.343 81.3681ZM387.19 62.8403L387.692 63.7049C395.413 59.2185 403.917 56.9722 413.225 56.9722V55.9722V54.9722C403.579 54.9722 394.726 57.3047 386.687 61.9756L387.19 62.8403ZM413.225 55.9722V56.9722C422.641 56.9722 431.142 59.2195 438.752 63.7019L439.259 62.8403L439.767 61.9786C431.83 57.3037 422.975 54.9722 413.225 54.9722V55.9722ZM439.259 62.8403L438.757 63.7049C446.49 68.1983 452.595 74.2519 457.085 81.8756L457.947 81.3681L458.808 80.8605C454.142 72.9379 447.788 66.6397 439.762 61.9756L439.259 62.8403ZM457.947 81.3681L457.094 81.8895C461.677 89.3904 463.975 97.78 463.975 107.083H464.975H465.975C465.975 97.433 463.587 88.679 458.8 80.8466L457.947 81.3681ZM464.975 107.083H463.975C463.975 116.278 461.678 124.67 457.09 132.282L457.947 132.799L458.803 133.315C463.586 125.381 465.975 116.629 465.975 107.083H464.975ZM457.947 132.799L457.085 132.291C452.595 139.915 446.49 145.968 438.757 150.462L439.259 151.326L439.762 152.191C447.788 147.527 454.142 141.229 458.808 133.306L457.947 132.799ZM439.259 151.326L438.752 150.465C431.142 154.947 422.641 157.194 413.225 157.194V158.194V159.194C422.975 159.194 431.83 156.863 439.767 152.188L439.259 151.326ZM413.225 133.278V134.278C418.188 134.278 422.683 133.062 426.684 130.617L426.162 129.764L425.641 128.911C421.975 131.151 417.845 132.278 413.225 132.278V133.278ZM426.162 129.764L426.673 130.623C430.76 128.193 433.973 124.927 436.296 120.834L435.426 120.34L434.556 119.847C432.407 123.634 429.443 126.649 425.651 128.904L426.162 129.764ZM435.426 120.34L436.291 120.841C438.724 116.639 439.94 112.046 439.94 107.083H438.94H437.94C437.94 111.704 436.813 115.949 434.561 119.839L435.426 120.34ZM438.94 107.083H439.94C439.94 102.018 438.726 97.4204 436.286 93.3153L435.426 93.8264L434.566 94.3375C436.811 98.112 437.94 102.352 437.94 107.083H438.94ZM435.426 93.8264L436.296 93.3328C433.973 89.2401 430.76 85.9735 426.673 83.5432L426.162 84.4028L425.651 85.2623C429.443 87.5172 432.407 90.5331 434.556 94.32L435.426 93.8264ZM426.162 84.4028L426.684 83.5495C422.683 81.1045 418.188 79.8889 413.225 79.8889V80.8889V81.8889C417.845 81.8889 421.975 83.0159 425.641 85.2561L426.162 84.4028ZM413.225 80.8889V79.8889C408.262 79.8889 403.718 81.1044 399.616 83.5432L400.127 84.4028L400.638 85.2623C404.416 83.0159 408.604 81.8889 413.225 81.8889V80.8889ZM400.127 84.4028L399.606 83.5495C395.631 85.9787 392.428 89.2386 390.004 93.3153L390.863 93.8264L391.723 94.3375C393.984 90.5346 396.957 87.512 400.649 85.2561L400.127 84.4028ZM390.863 93.8264L389.994 93.3328C387.665 97.4352 386.509 102.027 386.509 107.083H387.509H388.509C388.509 102.344 389.589 98.0972 391.733 94.32L390.863 93.8264ZM387.509 107.083H386.509C386.509 112.038 387.667 116.624 389.988 120.824L390.863 120.34L391.739 119.857C389.588 115.964 388.509 111.712 388.509 107.083H387.509ZM390.863 120.34L390.004 120.851C392.428 124.928 395.631 128.188 399.606 130.617L400.127 129.764L400.649 128.911C396.957 126.655 393.984 123.632 391.723 119.829L390.863 120.34ZM400.127 129.764L399.616 130.623C403.718 133.062 408.262 134.278 413.225 134.278V133.278V132.278C408.604 132.278 404.416 131.151 400.638 128.904L400.127 129.764ZM481.266 155H480.266V156H481.266V155ZM481.266 59.1667V58.1667H480.266V59.1667H481.266ZM506.183 59.1667H507.183V58.1667H506.183V59.1667ZM506.183 69.7083H505.183V72.6709L506.978 70.3144L506.183 69.7083ZM518.801 59.4861L518.384 58.577L518.377 58.5804L518.801 59.4861ZM550.745 59.4861L550.321 60.3918L550.745 59.4861ZM563.364 69.7083L562.568 70.3144L563.328 71.3124L564.132 70.3485L563.364 69.7083ZM614.475 60.7639L614.002 61.6454L614.015 61.6519L614.475 60.7639ZM629.009 74.5L628.157 75.0233L628.161 75.03L629.009 74.5ZM634.6 155V156H635.6V155H634.6ZM606.808 155H605.808V156H606.808V155ZM602.336 86.7986L601.538 87.4021L602.336 86.7986ZM580.773 83.125L581.235 84.0122L581.241 84.0089L581.247 84.0055L580.773 83.125ZM574.225 89.5139L573.364 89.004L573.358 89.0142L574.225 89.5139ZM571.829 155V156H572.829V155H571.829ZM544.037 155H543.037V156H544.037V155ZM541.961 90.7917L541.042 91.1856L541.047 91.1993L541.054 91.2128L541.961 90.7917ZM536.051 83.6042L535.473 84.4202L535.481 84.4257L535.489 84.4311L536.051 83.6042ZM518.002 83.125L518.464 84.0122L518.47 84.0089L518.477 84.0055L518.002 83.125ZM511.454 89.5139L510.593 89.004L510.588 89.0142L511.454 89.5139ZM509.058 155V156H510.058V155H509.058ZM481.266 155H482.266V59.1667H481.266H480.266V155H481.266ZM481.266 59.1667V60.1667H506.183V59.1667V58.1667H481.266V59.1667ZM506.183 59.1667H505.183V69.7083H506.183H507.183V59.1667H506.183ZM506.183 69.7083L506.978 70.3144C510.29 65.9682 514.369 62.6647 519.225 60.3918L518.801 59.4861L518.377 58.5804C513.224 60.9927 508.891 64.504 505.388 69.1023L506.183 69.7083ZM518.801 59.4861L519.218 60.3952C524.2 58.1115 529.382 56.9722 534.773 56.9722V55.9722V54.9722C529.09 54.9722 523.624 56.1755 518.384 58.577L518.801 59.4861ZM534.773 55.9722V56.9722C540.273 56.9722 545.452 58.1127 550.321 60.3918L550.745 59.4861L551.169 58.5804C546.029 56.1744 540.56 54.9722 534.773 54.9722V55.9722ZM550.745 59.4861L550.321 60.3918C555.177 62.6647 559.257 65.9682 562.568 70.3144L563.364 69.7083L564.159 69.1023C560.655 64.504 556.323 60.9927 551.169 58.5804L550.745 59.4861ZM563.364 69.7083L564.132 70.3485C567.753 66.0028 572.254 62.6897 577.649 60.4071L577.259 59.4861L576.87 58.5651C571.191 60.9677 566.428 64.4694 562.595 69.0681L563.364 69.7083ZM577.259 59.4861L577.649 60.4071C583.053 58.1207 588.936 56.9722 595.308 56.9722V55.9722V54.9722C588.69 54.9722 582.54 56.1663 576.87 58.5651L577.259 59.4861ZM595.308 55.9722V56.9722C601.959 56.9722 608.186 58.5293 614.002 61.6454L614.475 60.7639L614.947 59.8824C608.838 56.6096 602.286 54.9722 595.308 54.9722V55.9722ZM614.475 60.7639L614.015 61.6519C619.806 64.6511 624.519 69.099 628.157 75.0233L629.009 74.5L629.862 73.9767C626.045 67.7621 621.069 63.0526 614.934 59.8759L614.475 60.7639ZM629.009 74.5L628.161 75.03C631.768 80.8015 633.6 87.9018 633.6 96.3819H634.6H635.6C635.6 87.612 633.704 80.1245 629.857 73.97L629.009 74.5ZM634.6 96.3819H633.6V155H634.6H635.6V96.3819H634.6ZM634.6 155V154H606.808V155V156H634.6V155ZM606.808 155H607.808V100.375H606.808H605.808V155H606.808ZM606.808 100.375H607.808C607.808 95.0541 606.251 90.315 603.133 86.1952L602.336 86.7986L601.538 87.4021C604.384 91.1618 605.808 95.4737 605.808 100.375H606.808ZM602.336 86.7986L603.133 86.1952C599.934 81.9677 595.304 79.8889 589.398 79.8889V80.8889V81.8889C594.779 81.8889 598.775 83.7499 601.538 87.4021L602.336 86.7986ZM589.398 80.8889V79.8889C586.242 79.8889 583.205 80.6798 580.299 82.2445L580.773 83.125L581.247 84.0055C583.878 82.5888 586.591 81.8889 589.398 81.8889V80.8889ZM580.773 83.125L580.312 82.2378C577.466 83.7177 575.152 85.9874 573.364 89.0041L574.225 89.5139L575.085 90.0237C576.705 87.2904 578.757 85.3008 581.235 84.0122L580.773 83.125ZM574.225 89.5139L573.358 89.0142C571.649 91.977 570.829 95.6773 570.829 100.056H571.829H572.829C572.829 95.9153 573.606 92.5878 575.091 90.0136L574.225 89.5139ZM571.829 100.056H570.829V155H571.829H572.829V100.056H571.829ZM571.829 155V154H544.037V155V156H571.829V155ZM544.037 155H545.037V100.375H544.037H543.037V155H544.037ZM544.037 100.375H545.037C545.037 96.8276 544.315 93.4888 542.868 90.3706L541.961 90.7917L541.054 91.2128C542.374 94.0574 543.037 97.1076 543.037 100.375H544.037ZM541.961 90.7917L542.88 90.3978C541.528 87.2423 539.434 84.6956 536.613 82.7772L536.051 83.6042L535.489 84.4311C537.992 86.1331 539.838 88.3781 541.042 91.1856L541.961 90.7917ZM536.051 83.6042L536.629 82.7881C533.874 80.8369 530.521 79.8889 526.627 79.8889V80.8889V81.8889C530.188 81.8889 533.117 82.7511 535.473 84.4202L536.051 83.6042ZM526.627 80.8889V79.8889C523.471 79.8889 520.434 80.6798 517.528 82.2445L518.002 83.125L518.477 84.0055C521.108 82.5888 523.82 81.8889 526.627 81.8889V80.8889ZM518.002 83.125L517.541 82.2378C514.695 83.7177 512.381 85.9874 510.594 89.0041L511.454 89.5139L512.314 90.0237C513.934 87.2904 515.986 85.3008 518.464 84.0122L518.002 83.125ZM511.454 89.5139L510.588 89.0142C508.878 91.977 508.058 95.6773 508.058 100.056H509.058H510.058C510.058 95.9153 510.835 92.5878 512.32 90.0136L511.454 89.5139ZM509.058 100.056H508.058V155H509.058H510.058V100.056H509.058ZM509.058 155V154H481.266V155V156H509.058V155ZM746.809 152.444L746.44 153.374L746.453 153.379L746.809 152.444ZM722.052 136.792L721.362 137.515L721.367 137.52L722.052 136.792ZM705.601 53.7361L706.518 54.1352L706.52 54.1313L705.601 53.7361ZM722.052 29.9375L722.743 30.6609L722.743 30.6606L722.052 29.9375ZM746.65 14.125L747.023 15.0527L747.028 15.0505L746.65 14.125ZM804.469 13.0069L804.81 12.0668L804.469 13.0069ZM827.15 26.1042L828.12 26.3445L828.269 25.7452L827.799 25.344L827.15 26.1042ZM819.004 59.0069L818.151 59.5295L819.4 61.5672L819.975 59.2473L819.004 59.0069ZM802.233 42.3958L801.687 43.2337L801.695 43.2385L801.702 43.2431L802.233 42.3958ZM735.789 58.8472L734.921 58.3497L734.916 58.3594L735.789 58.8472ZM735.789 108.361L734.916 108.849L734.92 108.857L734.924 108.864L735.789 108.361ZM752.719 125.292L752.216 126.156L752.226 126.161L752.719 125.292ZM799.039 126.25L799.535 127.118L800.039 126.83V126.25H799.039ZM799.039 98.4583H800.039V97.4583H799.039V98.4583ZM769.809 98.4583H768.809V99.4583H769.809V98.4583ZM769.809 74.5V73.5H768.809V74.5H769.809ZM825.233 74.5H826.233V73.5H825.233V74.5ZM825.233 144.299L825.775 145.139L826.233 144.844V144.299H825.233ZM803.032 154.361L803.31 155.322L803.318 155.319L803.032 154.361ZM777.316 157.875V156.875C766.569 156.875 756.521 155.084 747.166 151.51L746.809 152.444L746.453 153.379C756.051 157.045 766.342 158.875 777.316 158.875V157.875ZM746.809 152.444L747.179 151.515C737.922 147.833 729.777 142.683 722.738 136.063L722.052 136.792L721.367 137.52C728.596 144.317 736.956 149.602 746.44 153.374L746.809 152.444ZM722.052 136.792L722.743 136.068C715.813 129.453 710.406 121.685 706.518 112.754L705.601 113.153L704.684 113.552C708.676 122.723 714.236 130.713 721.362 137.515L722.052 136.792ZM705.601 113.153L706.518 112.754C702.638 103.84 700.691 94.0741 700.691 83.4444H699.691H698.691C698.691 94.324 700.685 104.364 704.684 113.552L705.601 113.153ZM699.691 83.4444H700.691C700.691 72.8147 702.638 63.0493 706.518 54.1352L705.601 53.7361L704.684 53.337C700.685 62.5247 698.691 72.5649 698.691 83.4444H699.691ZM705.601 53.7361L706.52 54.1313C710.408 45.0942 715.815 37.2738 722.743 30.6609L722.052 29.9375L721.362 29.2141C714.234 36.0178 708.674 44.0632 704.683 53.3409L705.601 53.7361ZM722.052 29.9375L722.743 30.6606C729.784 23.9346 737.875 18.7328 747.023 15.0527L746.65 14.125L746.276 13.1973C736.896 16.9709 728.589 22.3107 721.362 29.2144L722.052 29.9375ZM746.65 14.125L747.028 15.0505C756.27 11.2699 766.256 9.375 776.997 9.375V8.375V7.375C766.016 7.375 755.77 9.31347 746.271 13.1994L746.65 14.125ZM776.997 8.375V9.375C786.687 9.375 795.728 10.9018 804.128 13.9471L804.469 13.0069L804.81 12.0668C796.174 8.93614 786.9 7.375 776.997 7.375V8.375ZM804.469 13.0069L804.128 13.9471C812.539 16.9959 819.993 21.3022 826.5 26.8643L827.15 26.1042L827.799 25.344C821.102 19.6191 813.437 15.1939 804.81 12.0668L804.469 13.0069ZM827.15 26.1042L826.179 25.8638L818.033 58.7666L819.004 59.0069L819.975 59.2473L828.12 26.3445L827.15 26.1042ZM819.004 59.0069L819.857 58.4844C815.723 51.7397 810.018 46.0955 802.764 41.5485L802.233 42.3958L801.702 43.2431C808.717 47.6407 814.193 53.0705 818.151 59.5295L819.004 59.0069ZM802.233 42.3958L802.779 41.558C795.563 36.8567 786.954 34.5278 776.997 34.5278V35.5278V36.5278C786.633 36.5278 794.848 38.7776 801.687 43.2337L802.233 42.3958ZM776.997 35.5278V34.5278C767.787 34.5278 759.518 36.6426 752.216 40.8927L752.719 41.7569L753.222 42.6212C760.189 38.5657 768.105 36.5278 776.997 36.5278V35.5278ZM752.719 41.7569L752.216 40.8927C744.929 45.1347 739.16 50.9587 734.921 58.3497L735.789 58.8472L736.656 59.3447C740.723 52.2543 746.241 46.6847 753.222 42.6212L752.719 41.7569ZM735.789 58.8472L734.916 58.3594C730.778 65.7643 728.719 74.1344 728.719 83.4444H729.719H730.719C730.719 74.4397 732.707 66.4116 736.662 59.335L735.789 58.8472ZM729.719 83.4444H728.719C728.719 92.9631 730.776 101.441 734.916 108.849L735.789 108.361L736.662 107.873C732.709 100.8 730.719 92.6665 730.719 83.4444H729.719ZM735.789 108.361L734.924 108.864C739.164 116.148 744.932 121.916 752.216 126.156L752.719 125.292L753.222 124.427C746.238 120.362 740.719 114.843 736.653 107.858L735.789 108.361ZM752.719 125.292L752.226 126.161C759.524 130.301 767.736 132.361 776.837 132.361V131.361V130.361C768.05 130.361 760.183 128.375 753.213 124.422L752.719 125.292ZM776.837 131.361V132.361C781.268 132.361 785.39 131.929 789.199 131.058L788.976 130.083L788.753 129.108C785.109 129.941 781.138 130.361 776.837 130.361V131.361ZM788.976 130.083L789.199 131.058C793.011 130.187 796.459 128.876 799.535 127.118L799.039 126.25L798.542 125.382C795.655 127.032 792.395 128.276 788.753 129.108L788.976 130.083ZM799.039 126.25H800.039V98.4583H799.039H798.039V126.25H799.039ZM799.039 98.4583V97.4583H769.809V98.4583V99.4583H799.039V98.4583ZM769.809 98.4583H770.809V74.5H769.809H768.809V98.4583H769.809ZM769.809 74.5V75.5H825.233V74.5V73.5H769.809V74.5ZM825.233 74.5H824.233V144.299H825.233H826.233V74.5H825.233ZM825.233 144.299L824.691 143.458C818.175 147.662 810.862 150.979 802.745 153.403L803.032 154.361L803.318 155.319C811.599 152.846 819.087 149.454 825.775 145.139L825.233 144.299ZM803.032 154.361L802.754 153.401C794.758 155.715 786.28 156.875 777.316 156.875V157.875V158.875C786.454 158.875 795.12 157.692 803.31 155.322L803.032 154.361ZM848.503 155H847.503V156H848.503V155ZM848.503 59.1667V58.1667H847.503V59.1667H848.503ZM873.419 59.1667H874.419V58.1667H873.419V59.1667ZM873.419 75.6181H872.419V79.2484L874.278 76.1301L873.419 75.6181ZM885.878 62.8403L886.389 63.6994L886.395 63.6962L885.878 62.8403ZM903.766 58.2083L904.737 57.9688L904.55 57.2083H903.766V58.2083ZM909.836 82.8056L909.535 83.7591L911.234 84.2956L910.807 82.566L909.836 82.8056ZM883.641 89.6736L884.364 90.3656L884.371 90.358L883.641 89.6736ZM876.294 155V156H877.294V155H876.294ZM848.503 155H849.503V59.1667H848.503H847.503V155H848.503ZM848.503 59.1667V60.1667H873.419V59.1667V58.1667H848.503V59.1667ZM873.419 59.1667H872.419V75.6181H873.419H874.419V59.1667H873.419ZM873.419 75.6181L874.278 76.1301C877.503 70.7203 881.542 66.587 886.389 63.6994L885.878 62.8403L885.366 61.9812C880.204 65.0565 875.937 69.4417 872.56 75.106L873.419 75.6181ZM885.878 62.8403L886.395 63.6962C891.329 60.7152 897.108 59.2083 903.766 59.2083V58.2083V57.2083C896.796 57.2083 890.649 58.7894 885.36 61.9844L885.878 62.8403ZM903.766 58.2083L902.796 58.4479L908.865 83.0451L909.836 82.8056L910.807 82.566L904.737 57.9688L903.766 58.2083ZM909.836 82.8056L910.137 81.852C907.999 81.1768 905.605 80.8472 902.968 80.8472V81.8472V82.8472C905.441 82.8472 907.627 83.1566 909.535 83.7591L909.836 82.8056ZM902.968 81.8472V80.8472C894.741 80.8472 888.023 83.5458 882.912 88.9892L883.641 89.6736L884.371 90.358C889.057 85.3662 895.223 82.8472 902.968 82.8472V81.8472ZM883.641 89.6736L882.919 88.9817C877.788 94.3368 875.294 101.967 875.294 111.715H876.294H877.294C877.294 102.297 879.699 95.2326 884.363 90.3655L883.641 89.6736ZM876.294 111.715H875.294V155H876.294H877.294V111.715H876.294ZM876.294 155V154H848.503V155V156H876.294V155ZM937.812 150.688L937.278 151.533L937.812 150.688ZM920.403 132.479L919.528 132.965L919.532 132.972L919.537 132.979L920.403 132.479ZM920.403 81.6875L919.534 81.1926L919.528 81.2019L920.403 81.6875ZM937.812 63.4792L938.338 64.33L938.347 64.3244L937.812 63.4792ZM978.861 59.9653L978.46 60.8814L978.468 60.885L978.476 60.8884L978.861 59.9653ZM991.958 68.9097L991.231 69.5963L992.958 71.4249V68.9097H991.958ZM991.958 59.1667V58.1667H990.958V59.1667H991.958ZM1015.92 59.1667H1016.92V58.1667H1015.92V59.1667ZM1015.92 155V156H1016.92V155H1015.92ZM991.958 155H990.958V156H991.958V155ZM991.958 145.257H992.958V142.742L991.231 144.57L991.958 145.257ZM978.861 154.361L979.245 155.284L979.254 155.281L979.262 155.277L978.861 154.361ZM978.062 129.604L978.584 130.457L978.062 129.604ZM987.167 120.181L986.307 119.669L986.302 119.678L986.297 119.687L987.167 120.181ZM987.167 93.9861L986.297 94.4797L986.302 94.4885L986.307 94.4972L987.167 93.9861ZM943.243 93.9861L942.383 93.475L942.378 93.4837L942.373 93.4925L943.243 93.9861ZM943.243 120.181L942.373 120.674L942.378 120.683L942.383 120.692L943.243 120.181ZM952.507 129.604L951.985 130.457L952.507 129.604ZM961.93 157.556V156.556C953.275 156.556 945.422 154.317 938.347 149.842L937.812 150.688L937.278 151.533C944.684 156.216 952.909 158.556 961.93 158.556V157.556ZM937.812 150.688L938.347 149.842C931.245 145.352 925.555 139.402 921.269 131.979L920.403 132.479L919.537 132.979C923.982 140.677 929.898 146.866 937.278 151.533L937.812 150.688ZM920.403 132.479L921.277 131.994C917.105 124.484 915.014 116.187 915.014 107.083H914.014H913.014C913.014 116.507 915.182 125.141 919.528 132.965L920.403 132.479ZM914.014 107.083H915.014C915.014 97.9795 917.105 89.6828 921.277 82.1731L920.403 81.6875L919.528 81.2019C915.182 89.0255 913.014 97.6594 913.014 107.083H914.014ZM920.403 81.6875L921.272 82.1823C925.558 74.6557 931.245 68.7109 938.338 64.33L937.812 63.4792L937.287 62.6284C929.898 67.1919 923.979 73.386 919.534 81.1927L920.403 81.6875ZM937.812 63.4792L938.347 64.3244C945.422 59.8501 953.275 57.6111 961.93 57.6111V56.6111V55.6111C952.909 55.6111 944.684 57.9508 937.278 62.634L937.812 63.4792ZM961.93 56.6111V57.6111C967.983 57.6111 973.488 58.7063 978.46 60.8814L978.861 59.9653L979.262 59.0491C974.011 56.7521 968.229 55.6111 961.93 55.6111V56.6111ZM978.861 59.9653L978.476 60.8884C983.465 62.9668 987.712 65.8701 991.231 69.5963L991.958 68.9097L992.685 68.2231C988.964 64.2827 984.479 61.223 979.245 59.0422L978.861 59.9653ZM991.958 68.9097H992.958V59.1667H991.958H990.958V68.9097H991.958ZM991.958 59.1667V60.1667H1015.92V59.1667V58.1667H991.958V59.1667ZM1015.92 59.1667H1014.92V155H1015.92H1016.92V59.1667H1015.92ZM1015.92 155V154H991.958V155V156H1015.92V155ZM991.958 155H992.958V145.257H991.958H990.958V155H991.958ZM991.958 145.257L991.231 144.57C987.708 148.3 983.455 151.259 978.46 153.445L978.861 154.361L979.262 155.277C984.489 152.991 988.967 149.88 992.685 145.944L991.958 145.257ZM978.861 154.361L978.476 153.438C973.5 155.511 967.99 156.556 961.93 156.556V157.556V158.556C968.223 158.556 973.999 157.47 979.245 155.284L978.861 154.361ZM965.284 133.118V134.118C970.145 134.118 974.586 132.9 978.584 130.457L978.062 129.604L977.541 128.751C973.871 130.993 969.794 132.118 965.284 132.118V133.118ZM978.062 129.604L978.584 130.457C982.563 128.026 985.717 124.76 988.036 120.674L987.167 120.181L986.297 119.687C984.144 123.481 981.228 126.497 977.541 128.751L978.062 129.604ZM987.167 120.181L988.026 120.692C990.465 116.59 991.68 112.046 991.68 107.083H990.68H989.68C989.68 111.704 988.553 115.891 986.307 119.669L987.167 120.181ZM990.68 107.083H991.68C991.68 102.12 990.465 97.5766 988.026 93.475L987.167 93.9861L986.307 94.4972C988.553 98.2752 989.68 102.463 989.68 107.083H990.68ZM987.167 93.9861L988.036 93.4925C985.717 89.4065 982.563 86.141 978.584 83.7092L978.062 84.5625L977.541 85.4158C981.228 87.6692 984.144 90.6861 986.297 94.4797L987.167 93.9861ZM978.062 84.5625L978.584 83.7092C974.586 81.2664 970.145 80.0486 965.284 80.0486V81.0486V82.0486C969.794 82.0486 973.871 83.1734 977.541 85.4158L978.062 84.5625ZM965.284 81.0486V80.0486C960.424 80.0486 955.983 81.2664 951.985 83.7092L952.507 84.5625L953.028 85.4158C956.698 83.1734 960.775 82.0486 965.284 82.0486V81.0486ZM952.507 84.5625L951.985 83.7092C948.01 86.1384 944.807 89.3983 942.383 93.475L943.243 93.9861L944.102 94.4972C946.364 90.6943 949.337 87.6717 953.028 85.4158L952.507 84.5625ZM943.243 93.9861L942.373 93.4925C940.047 97.5916 938.889 102.129 938.889 107.083H939.889H940.889C940.889 102.454 941.967 98.2603 944.113 94.4797L943.243 93.9861ZM939.889 107.083H938.889C938.889 112.038 940.047 116.575 942.373 120.674L943.243 120.181L944.113 119.687C941.967 115.906 940.889 111.712 940.889 107.083H939.889ZM943.243 120.181L942.383 120.692C944.807 124.768 948.01 128.028 951.985 130.457L952.507 129.604L953.028 128.751C949.337 126.495 946.364 123.472 944.102 119.669L943.243 120.181ZM952.507 129.604L951.985 130.457C955.983 132.9 960.424 134.118 965.284 134.118V133.118V132.118C960.775 132.118 956.698 130.993 953.028 128.751L952.507 129.604ZM1036.95 202.917H1035.95V203.917H1036.95V202.917ZM1036.95 59.1667V58.1667H1035.95V59.1667H1036.95ZM1060.91 59.1667H1061.91V58.1667H1060.91V59.1667ZM1060.91 68.5903H1059.91V71.0045L1061.62 69.2974L1060.91 68.5903ZM1074.01 59.8056L1073.62 58.8824L1073.61 58.8854L1074.01 59.8056ZM1115.05 63.4792L1114.52 64.3244L1114.53 64.33L1115.05 63.4792ZM1132.3 81.6875L1131.43 82.1732L1131.44 82.1823L1132.3 81.6875ZM1132.3 132.479L1131.44 131.984L1131.43 131.988L1132.3 132.479ZM1115.05 150.688L1114.52 149.842L1115.05 150.688ZM1076.56 155.16L1076.9 154.221L1076.89 154.217L1076.88 154.213L1076.56 155.16ZM1064.74 148.931L1065.35 148.133L1063.74 146.918V148.931H1064.74ZM1064.74 202.917V203.917H1065.74V202.917H1064.74ZM1100.36 129.604L1100.88 130.457H1100.88L1100.36 129.604ZM1109.46 120.181L1108.6 119.669L1108.6 119.678L1108.59 119.687L1109.46 120.181ZM1109.46 93.9861L1108.59 94.4797L1108.6 94.4885L1108.6 94.4972L1109.46 93.9861ZM1074.8 84.5625L1075.33 85.4158L1074.8 84.5625ZM1065.54 93.9861L1064.68 93.475L1064.68 93.4837L1064.67 93.4925L1065.54 93.9861ZM1065.54 120.181L1064.67 120.674L1064.68 120.683L1064.68 120.692L1065.54 120.181ZM1074.8 129.604L1074.28 130.457L1074.8 129.604ZM1036.95 202.917H1037.95V59.1667H1036.95H1035.95V202.917H1036.95ZM1036.95 59.1667V60.1667H1060.91V59.1667V58.1667H1036.95V59.1667ZM1060.91 59.1667H1059.91V68.5903H1060.91H1061.91V59.1667H1060.91ZM1060.91 68.5903L1061.62 69.2974C1065.25 65.664 1069.51 62.8068 1074.4 60.7257L1074.01 59.8056L1073.61 58.8854C1068.5 61.0636 1064.02 64.0629 1060.2 67.8832L1060.91 68.5903ZM1074.01 59.8056L1074.39 60.7286C1079.37 58.6545 1084.83 57.6111 1090.78 57.6111V56.6111V55.6111C1084.59 55.6111 1078.86 56.6974 1073.62 58.8825L1074.01 59.8056ZM1090.78 56.6111V57.6111C1099.54 57.6111 1107.45 59.8514 1114.52 64.3244L1115.05 63.4792L1115.59 62.634C1108.18 57.9496 1099.9 55.6111 1090.78 55.6111V56.6111ZM1115.05 63.4792L1114.53 64.33C1121.62 68.7095 1127.25 74.6512 1131.43 82.1731L1132.3 81.6875L1133.18 81.2019C1128.84 73.3904 1122.97 67.1933 1115.58 62.6284L1115.05 63.4792ZM1132.3 81.6875L1131.44 82.1823C1135.71 89.6906 1137.85 97.9839 1137.85 107.083H1138.85H1139.85C1139.85 97.6549 1137.63 89.0178 1133.17 81.1927L1132.3 81.6875ZM1138.85 107.083H1137.85C1137.85 116.183 1135.71 124.476 1131.44 131.984L1132.3 132.479L1133.17 132.974C1137.63 125.149 1139.85 116.512 1139.85 107.083H1138.85ZM1132.3 132.479L1131.43 131.988C1127.25 139.406 1121.62 145.353 1114.52 149.842L1115.05 150.688L1115.59 151.533C1122.97 146.864 1128.84 140.672 1133.18 132.97L1132.3 132.479ZM1115.05 150.688L1114.52 149.842C1107.45 154.315 1099.54 156.556 1090.78 156.556V157.556V158.556C1099.9 158.556 1108.18 156.217 1115.59 151.533L1115.05 150.688ZM1090.78 157.556V156.556C1085.77 156.556 1081.15 155.774 1076.9 154.221L1076.56 155.16L1076.22 156.099C1080.7 157.74 1085.56 158.556 1090.78 158.556V157.556ZM1076.56 155.16L1076.88 154.213C1072.61 152.755 1068.77 150.728 1065.35 148.133L1064.74 148.931L1064.14 149.728C1067.74 152.457 1071.78 154.582 1076.24 156.106L1076.56 155.16ZM1064.74 148.931H1063.74V202.917H1064.74H1065.74V148.931H1064.74ZM1064.74 202.917V201.917H1036.95V202.917V203.917H1064.74V202.917ZM1087.58 133.118V134.118C1092.44 134.118 1096.88 132.9 1100.88 130.457L1100.36 129.604L1099.84 128.751C1096.17 130.993 1092.09 132.118 1087.58 132.118V133.118ZM1100.36 129.604L1100.88 130.457C1104.86 128.026 1108.01 124.76 1110.33 120.674L1109.46 120.181L1108.59 119.687C1106.44 123.481 1103.53 126.497 1099.84 128.751L1100.36 129.604ZM1109.46 120.181L1110.32 120.692C1112.76 116.59 1113.98 112.046 1113.98 107.083H1112.98H1111.98C1111.98 111.704 1110.85 115.891 1108.6 119.669L1109.46 120.181ZM1112.98 107.083H1113.98C1113.98 102.12 1112.76 97.5766 1110.32 93.475L1109.46 93.9861L1108.6 94.4972C1110.85 98.2752 1111.98 102.463 1111.98 107.083H1112.98ZM1109.46 93.9861L1110.33 93.4925C1108.01 89.4065 1104.86 86.141 1100.88 83.7092L1100.36 84.5625L1099.84 85.4158C1103.53 87.6692 1106.44 90.6861 1108.59 94.4797L1109.46 93.9861ZM1100.36 84.5625L1100.88 83.7092C1096.88 81.2664 1092.44 80.0486 1087.58 80.0486V81.0486V82.0486C1092.09 82.0486 1096.17 83.1734 1099.84 85.4158L1100.36 84.5625ZM1087.58 81.0486V80.0486C1082.72 80.0486 1078.28 81.2664 1074.28 83.7092L1074.8 84.5625L1075.33 85.4158C1078.99 83.1734 1083.07 82.0486 1087.58 82.0486V81.0486ZM1074.8 84.5625L1074.28 83.7092C1070.31 86.1384 1067.1 89.3983 1064.68 93.475L1065.54 93.9861L1066.4 94.4972C1068.66 90.6943 1071.63 87.6717 1075.33 85.4158L1074.8 84.5625ZM1065.54 93.9861L1064.67 93.4925C1062.34 97.5916 1061.19 102.129 1061.19 107.083H1062.19H1063.19C1063.19 102.454 1064.26 98.2603 1066.41 94.4797L1065.54 93.9861ZM1062.19 107.083H1061.19C1061.19 112.038 1062.34 116.575 1064.67 120.674L1065.54 120.181L1066.41 119.687C1064.26 115.906 1063.19 111.712 1063.19 107.083H1062.19ZM1065.54 120.181L1064.68 120.692C1067.1 124.768 1070.31 128.028 1074.28 130.457L1074.8 129.604L1075.33 128.751C1071.63 126.495 1068.66 123.472 1066.4 119.669L1065.54 120.181ZM1074.8 129.604L1074.28 130.457C1078.28 132.9 1082.72 134.118 1087.58 134.118V133.118V132.118C1083.07 132.118 1078.99 130.993 1075.33 128.751L1074.8 129.604ZM1155.09 155H1154.09V156H1155.09V155ZM1155.09 1.66666V0.666664H1154.09V1.66666H1155.09ZM1182.89 1.66666H1183.89V0.666664H1182.89V1.66666ZM1182.89 66.3542H1181.89V68.7684L1183.59 67.0613L1182.89 66.3542ZM1194.55 58.6875L1194.91 59.6191L1194.92 59.6144L1194.55 58.6875ZM1227.77 60.9236L1227.28 61.7948L1227.29 61.8L1227.3 61.8051L1227.77 60.9236ZM1242.14 75.1389L1241.28 75.6382L1241.28 75.6469L1241.29 75.6555L1242.14 75.1389ZM1247.73 155V156H1248.73V155H1247.73ZM1219.94 155H1218.94V156H1219.94V155ZM1215.15 87.1181L1215.94 86.5083L1215.15 87.1181ZM1188.48 85.8403L1189.13 86.5995L1189.13 86.598L1188.48 85.8403ZM1182.89 155V156H1183.89V155H1182.89ZM1155.09 155H1156.09V1.66666H1155.09H1154.09V155H1155.09ZM1155.09 1.66666V2.66666H1182.89V1.66666V0.666664H1155.09V1.66666ZM1182.89 1.66666H1181.89V66.3542H1182.89H1183.89V1.66666H1182.89ZM1182.89 66.3542L1183.59 67.0613C1186.91 63.7488 1190.68 61.2711 1194.91 59.6191L1194.55 58.6875L1194.18 57.7559C1189.68 59.5113 1185.68 62.1447 1182.18 65.647L1182.89 66.3542ZM1194.55 58.6875L1194.92 59.6144C1199.27 57.8543 1203.88 56.9722 1208.76 56.9722V55.9722V54.9722C1203.63 54.9722 1198.77 55.9003 1194.17 57.7605L1194.55 58.6875ZM1208.76 55.9722V56.9722C1215.41 56.9722 1221.57 58.5795 1227.28 61.7948L1227.77 60.9236L1228.26 60.0525C1222.25 56.6659 1215.75 54.9722 1208.76 54.9722V55.9722ZM1227.77 60.9236L1227.3 61.8051C1233.08 64.905 1237.74 69.5054 1241.28 75.6382L1242.14 75.1389L1243.01 74.6396C1239.3 68.2076 1234.38 63.3311 1228.24 60.0421L1227.77 60.9236ZM1242.14 75.1389L1241.29 75.6555C1244.9 81.6439 1246.73 88.9629 1246.73 97.6597H1247.73H1248.73C1248.73 88.6806 1246.84 80.9857 1243 74.6222L1242.14 75.1389ZM1247.73 97.6597H1246.73V155H1247.73H1248.73V97.6597H1247.73ZM1247.73 155V154H1219.94V155V156H1247.73V155ZM1219.94 155H1220.94V101.333H1219.94H1218.94V155H1219.94ZM1219.94 101.333H1220.94C1220.94 95.7926 1219.27 90.839 1215.94 86.5083L1215.15 87.1181L1214.36 87.7278C1217.41 91.7027 1218.94 96.2259 1218.94 101.333H1219.94ZM1215.15 87.1181L1215.94 86.5083C1212.53 82.0732 1207.64 79.8889 1201.41 79.8889V80.8889V81.8889C1207.12 81.8889 1211.38 83.8573 1214.36 87.7278L1215.15 87.1181ZM1201.41 80.8889V79.8889C1196.37 79.8889 1191.83 81.6348 1187.82 85.0825L1188.48 85.8403L1189.13 86.598C1192.79 83.4439 1196.88 81.8889 1201.41 81.8889V80.8889ZM1188.48 85.8403L1187.83 85.081C1183.8 88.5336 1181.89 93.9249 1181.89 101.014H1182.89H1183.89C1183.89 94.2603 1185.7 89.5358 1189.13 86.5995L1188.48 85.8403ZM1182.89 101.014H1181.89V155H1182.89H1183.89V101.014H1182.89ZM1182.89 155V154H1155.09V155V156H1182.89V155ZM1267.27 155H1266.27V156H1267.27V155ZM1267.27 59.1667V58.1667H1266.27V59.1667H1267.27ZM1295.06 59.1667H1296.06V58.1667H1295.06V59.1667ZM1295.06 155V156H1296.06V155H1295.06ZM1270.62 40.9583L1269.92 41.6654L1270.62 40.9583ZM1270.62 19.875L1271.32 20.5953L1271.32 20.5888L1271.33 20.5821L1270.62 19.875ZM1291.71 19.875L1290.99 20.5686L1291 20.5822L1291.01 20.5953L1291.71 19.875ZM1291.71 40.9583L1291 40.2512L1290.99 40.2579L1290.99 40.2647L1291.71 40.9583ZM1267.27 155H1268.27V59.1667H1267.27H1266.27V155H1267.27ZM1267.27 59.1667V60.1667H1295.06V59.1667V58.1667H1267.27V59.1667ZM1295.06 59.1667H1294.06V155H1295.06H1296.06V59.1667H1295.06ZM1295.06 155V154H1267.27V155V156H1295.06V155ZM1281.17 45.2708V44.2708C1277.27 44.2708 1274.01 42.9342 1271.33 40.2512L1270.62 40.9583L1269.92 41.6654C1272.98 44.7324 1276.75 46.2708 1281.17 46.2708V45.2708ZM1270.62 40.9583L1271.33 40.2512C1268.65 37.5682 1267.31 34.3106 1267.31 30.4167H1266.31H1265.31C1265.31 34.8283 1266.85 38.5985 1269.92 41.6654L1270.62 40.9583ZM1266.31 30.4167H1267.31C1267.31 26.4088 1268.65 23.1617 1271.32 20.5953L1270.62 19.875L1269.93 19.1547C1266.84 22.1254 1265.31 25.906 1265.31 30.4167H1266.31ZM1270.62 19.875L1271.33 20.5821C1274.01 17.8991 1277.27 16.5625 1281.17 16.5625V15.5625V14.5625C1276.75 14.5625 1272.98 16.1009 1269.92 19.1679L1270.62 19.875ZM1281.17 15.5625V16.5625C1285.17 16.5625 1288.42 17.9036 1290.99 20.5686L1291.71 19.875L1292.43 19.1814C1289.46 16.0964 1285.68 14.5625 1281.17 14.5625V15.5625ZM1291.71 19.875L1291.01 20.5953C1293.68 23.1617 1295.02 26.4088 1295.02 30.4167H1296.02H1297.02C1297.02 25.906 1295.49 22.1254 1292.4 19.1547L1291.71 19.875ZM1296.02 30.4167H1295.02C1295.02 34.3106 1293.68 37.5682 1291 40.2512L1291.71 40.9583L1292.41 41.6654C1295.48 38.5985 1297.02 34.8283 1297.02 30.4167H1296.02ZM1291.71 40.9583L1290.99 40.2647C1288.42 42.9297 1285.17 44.2708 1281.17 44.2708V45.2708V46.2708C1285.68 46.2708 1289.46 44.7369 1292.43 41.652L1291.71 40.9583ZM1337.29 151.326L1337.79 150.462L1337.29 151.326ZM1318.44 132.799L1317.58 133.306L1317.58 133.315L1318.44 132.799ZM1318.44 81.3681L1317.58 80.8518L1317.58 80.8553L1318.44 81.3681ZM1337.29 62.8403L1336.79 61.9756L1337.29 62.8403ZM1382.01 59.3264L1381.65 60.2606L1381.66 60.2645L1381.67 60.2681L1382.01 59.3264ZM1397.82 68.9097L1398.79 69.1561L1398.94 68.5814L1398.5 68.1775L1397.82 68.9097ZM1390.63 97.1806L1389.78 97.7012L1391.02 99.7304L1391.6 97.427L1390.63 97.1806ZM1379.93 85.8403L1379.33 86.6379L1379.34 86.6461L1379.35 86.654L1379.93 85.8403ZM1341.76 93.8264L1342.63 94.32L1341.76 93.8264ZM1341.76 120.34L1340.88 120.824L1340.89 120.834L1341.76 120.34ZM1351.02 129.764L1351.53 128.904L1351.02 129.764ZM1379.93 128.486L1380.52 129.293L1380.53 129.291L1379.93 128.486ZM1390.63 116.986L1391.6 116.74L1391.02 114.436L1389.78 116.465L1390.63 116.986ZM1397.82 145.257L1398.5 145.989L1398.94 145.585L1398.79 145.011L1397.82 145.257ZM1382.01 155L1382.35 155.94L1382.36 155.936L1382.01 155ZM1363.32 158.194V157.194C1354.01 157.194 1345.51 154.948 1337.79 150.462L1337.29 151.326L1336.79 152.191C1344.82 156.862 1353.68 159.194 1363.32 159.194V158.194ZM1337.29 151.326L1337.79 150.462C1330.06 145.967 1323.89 139.911 1319.3 132.282L1318.44 132.799L1317.58 133.315C1322.36 141.233 1328.76 147.528 1336.79 152.191L1337.29 151.326ZM1318.44 132.799L1319.3 132.291C1314.82 124.678 1312.57 116.282 1312.57 107.083H1311.57H1310.57C1310.57 116.625 1312.91 125.373 1317.58 133.306L1318.44 132.799ZM1311.57 107.083H1312.57C1312.57 97.7755 1314.82 89.3829 1319.3 81.8808L1318.44 81.3681L1317.58 80.8553C1312.9 88.6866 1310.57 97.4374 1310.57 107.083H1311.57ZM1318.44 81.3681L1319.3 81.8843C1323.89 74.2558 1330.06 68.1995 1337.79 63.7049L1337.29 62.8403L1336.79 61.9756C1328.76 66.6385 1322.36 72.934 1317.58 80.8518L1318.44 81.3681ZM1337.29 62.8403L1337.79 63.7049C1345.51 59.2185 1354.01 56.9722 1363.32 56.9722V55.9722V54.9722C1353.68 54.9722 1344.82 57.3047 1336.79 61.9756L1337.29 62.8403ZM1363.32 55.9722V56.9722C1369.81 56.9722 1375.92 58.0703 1381.65 60.2606L1382.01 59.3264L1382.37 58.3922C1376.39 56.1103 1370.04 54.9722 1363.32 54.9722V55.9722ZM1382.01 59.3264L1381.67 60.2681C1387.51 62.3526 1392.66 65.4764 1397.14 69.6419L1397.82 68.9097L1398.5 68.1775C1393.82 63.8245 1388.44 60.5594 1382.35 58.3846L1382.01 59.3264ZM1397.82 68.9097L1396.85 68.6633L1389.67 96.9342L1390.63 97.1806L1391.6 97.427L1398.79 69.1561L1397.82 68.9097ZM1390.63 97.1806L1391.49 96.6599C1388.75 92.1707 1385.09 88.2934 1380.51 85.0265L1379.93 85.8403L1379.35 86.654C1383.72 89.776 1387.19 93.4589 1389.78 97.7012L1390.63 97.1806ZM1379.93 85.8403L1380.54 85.0426C1375.98 81.5985 1370.6 79.8889 1364.44 79.8889V80.8889V81.8889C1370.21 81.8889 1375.15 83.4802 1379.33 86.6379L1379.93 85.8403ZM1364.44 80.8889V79.8889C1359.27 79.8889 1354.62 81.1004 1350.51 83.5432L1351.02 84.4028L1351.53 85.2623C1355.31 83.02 1359.6 81.8889 1364.44 81.8889V80.8889ZM1351.02 84.4028L1350.51 83.5432C1346.43 85.9735 1343.21 89.2401 1340.89 93.3328L1341.76 93.8264L1342.63 94.32C1344.78 90.5331 1347.74 87.5172 1351.53 85.2623L1351.02 84.4028ZM1341.76 93.8264L1340.89 93.3328C1338.56 97.4352 1337.41 102.027 1337.41 107.083H1338.41H1339.41C1339.41 102.344 1340.49 98.0972 1342.63 94.32L1341.76 93.8264ZM1338.41 107.083H1337.41C1337.41 112.038 1338.56 116.624 1340.88 120.824L1341.76 120.34L1342.64 119.857C1340.48 115.964 1339.41 111.712 1339.41 107.083H1338.41ZM1341.76 120.34L1340.89 120.834C1343.21 124.927 1346.43 128.193 1350.51 130.623L1351.02 129.764L1351.53 128.904C1347.74 126.649 1344.78 123.634 1342.63 119.847L1341.76 120.34ZM1351.02 129.764L1350.51 130.623C1354.62 133.066 1359.27 134.278 1364.44 134.278V133.278V132.278C1359.6 132.278 1355.31 131.147 1351.53 128.904L1351.02 129.764ZM1364.44 133.278V134.278C1370.59 134.278 1375.97 132.626 1380.52 129.293L1379.93 128.486L1379.34 127.679C1375.17 130.735 1370.21 132.278 1364.44 132.278V133.278ZM1379.93 128.486L1380.53 129.291C1385.09 125.92 1388.75 121.992 1391.49 117.507L1390.63 116.986L1389.78 116.465C1387.19 120.711 1383.72 124.451 1379.34 127.682L1379.93 128.486ZM1390.63 116.986L1389.67 117.233L1396.85 145.503L1397.82 145.257L1398.79 145.011L1391.6 116.74L1390.63 116.986ZM1397.82 145.257L1397.14 144.525C1392.66 148.693 1387.5 151.873 1381.66 154.064L1382.01 155L1382.36 155.936C1388.44 153.655 1393.83 150.339 1398.5 145.989L1397.82 145.257ZM1382.01 155L1381.67 154.06C1375.93 156.148 1369.81 157.194 1363.32 157.194V158.194V159.194C1370.03 159.194 1376.38 158.112 1382.35 155.94L1382.01 155ZM1423.93 155L1423.62 155.952L1423.63 155.953L1423.93 155ZM1408.44 146.375L1407.47 146.121L1407.32 146.686L1407.74 147.092L1408.44 146.375ZM1415.31 120.181L1416.12 119.594L1414.88 117.882L1414.34 119.927L1415.31 120.181ZM1428.08 131.361L1427.58 132.223L1427.58 132.227L1428.08 131.361ZM1453.64 133.917L1453 133.145L1452.99 133.154L1452.98 133.164L1453.64 133.917ZM1453.64 123.215L1453.1 124.055L1453.11 124.066L1453.13 124.077L1453.64 123.215ZM1448.05 120.34L1448.41 119.408L1448.41 119.406L1448.05 120.34ZM1434.63 115.229L1434.27 116.16L1434.28 116.164L1434.63 115.229ZM1424.41 110.438L1424.88 109.553L1424.41 110.438ZM1414.35 101.812L1413.55 102.409L1413.55 102.416L1413.56 102.423L1414.35 101.812ZM1414.35 71.7847L1415.21 72.2935L1414.35 71.7847ZM1426.33 60.4444L1426.81 61.3203L1426.82 61.317L1426.33 60.4444ZM1464.82 59.4861L1464.46 60.4169L1464.46 60.419L1464.82 59.4861ZM1478.08 67.3125L1479.05 67.5579L1479.18 67.0192L1478.8 66.6189L1478.08 67.3125ZM1471.69 92.5486L1470.9 93.16L1472.15 94.786L1472.66 92.794L1471.69 92.5486ZM1458.75 81.8472L1458.29 82.7338L1458.3 82.7398L1458.31 82.7454L1458.75 81.8472ZM1436.39 89.0347L1435.6 89.6444L1435.62 89.6786L1435.65 89.7104L1436.39 89.0347ZM1442.14 92.5486L1441.77 93.4771L1441.78 93.4816L1441.79 93.4859L1442.14 92.5486ZM1454.6 97.1806L1454.25 98.1179L1454.26 98.1208L1454.27 98.1235L1454.6 97.1806ZM1466.1 102.292L1465.63 103.177L1465.64 103.181L1466.1 102.292ZM1476.64 111.236L1475.84 111.836L1475.85 111.847L1476.64 111.236ZM1470.57 149.41L1469.92 148.646L1469.92 148.651L1470.57 149.41ZM1443.74 158.194V157.194C1437.35 157.194 1430.85 156.148 1424.23 154.047L1423.93 155L1423.63 155.953C1430.43 158.111 1437.13 159.194 1443.74 159.194V158.194ZM1423.93 155L1424.24 154.048C1417.74 151.951 1412.72 149.141 1409.14 145.658L1408.44 146.375L1407.74 147.092C1411.61 150.849 1416.92 153.79 1423.62 155.952L1423.93 155ZM1408.44 146.375L1409.41 146.629L1416.27 120.434L1415.31 120.181L1414.34 119.927L1407.47 146.121L1408.44 146.375ZM1415.31 120.181L1414.5 120.768C1417.68 125.158 1422.05 128.972 1427.58 132.223L1428.08 131.361L1428.59 130.499C1423.26 127.361 1419.11 123.722 1416.12 119.594L1415.31 120.181ZM1428.08 131.361L1427.58 132.227C1433.26 135.501 1439.13 137.153 1445.17 137.153V136.153V135.153C1439.51 135.153 1433.98 133.61 1428.58 130.495L1428.08 131.361ZM1445.17 136.153V137.153C1449.19 137.153 1452.32 136.401 1454.3 134.669L1453.64 133.917L1452.98 133.164C1451.55 134.413 1449.04 135.153 1445.17 135.153V136.153ZM1453.64 133.917L1454.28 134.689C1456.29 133.03 1457.36 130.947 1457.36 128.486H1456.36H1455.36C1455.36 130.284 1454.61 131.822 1453 133.145L1453.64 133.917ZM1456.36 128.486H1457.36C1457.36 125.753 1456.32 123.631 1454.15 122.353L1453.64 123.215L1453.13 124.077C1454.58 124.93 1455.36 126.322 1455.36 128.486H1456.36ZM1453.64 123.215L1454.18 122.376C1452.32 121.169 1450.4 120.179 1448.41 119.408L1448.05 120.34L1447.69 121.272C1449.54 121.992 1451.34 122.919 1453.1 124.055L1453.64 123.215ZM1448.05 120.34L1448.41 119.406L1434.99 114.295L1434.63 115.229L1434.28 116.164L1447.69 121.275L1448.05 120.34ZM1434.63 115.229L1435 114.298C1432.06 113.144 1428.69 111.565 1424.88 109.553L1424.41 110.438L1423.94 111.322C1427.8 113.357 1431.24 114.971 1434.27 116.16L1434.63 115.229ZM1424.41 110.438L1424.88 109.553C1421.18 107.602 1417.94 104.825 1415.14 101.202L1414.35 101.812L1413.56 102.423C1416.51 106.254 1419.97 109.226 1423.94 111.322L1424.41 110.438ZM1414.35 101.812L1415.15 101.216C1412.55 97.7081 1411.2 93.0386 1411.2 87.1181H1410.2H1409.2C1409.2 93.3364 1410.61 98.4632 1413.55 102.409L1414.35 101.812ZM1410.2 87.1181H1411.2C1411.2 81.7567 1412.53 76.8218 1415.21 72.2935L1414.35 71.7847L1413.49 71.276C1410.63 76.1181 1409.2 81.4053 1409.2 87.1181H1410.2ZM1414.35 71.7847L1415.21 72.2935C1417.88 67.7766 1421.73 64.1174 1426.81 61.3203L1426.33 60.4444L1425.85 59.5686C1420.49 62.5215 1416.36 66.4224 1413.49 71.276L1414.35 71.7847ZM1426.33 60.4444L1426.82 61.317C1431.96 58.4357 1438.17 56.9722 1445.49 56.9722V55.9722V54.9722C1437.91 54.9722 1431.34 56.4902 1425.84 59.5719L1426.33 60.4444ZM1445.49 55.9722V56.9722C1452.3 56.9722 1458.62 58.1236 1464.46 60.4169L1464.82 59.4861L1465.19 58.5554C1459.1 56.1635 1452.53 54.9722 1445.49 54.9722V55.9722ZM1464.82 59.4861L1464.46 60.419C1470.47 62.7383 1474.73 65.2821 1477.36 68.0061L1478.08 67.3125L1478.8 66.6189C1475.88 63.5929 1471.31 60.9191 1465.18 58.5532L1464.82 59.4861ZM1478.08 67.3125L1477.11 67.0671L1470.72 92.3032L1471.69 92.5486L1472.66 92.794L1479.05 67.5579L1478.08 67.3125ZM1471.69 92.5486L1472.48 91.9372C1468.77 87.1385 1464.34 83.4697 1459.19 80.949L1458.75 81.8472L1458.31 82.7454C1463.17 85.1229 1467.36 88.5884 1470.9 93.16L1471.69 92.5486ZM1458.75 81.8472L1459.21 80.9606C1454.21 78.3478 1449.36 77.0139 1444.7 77.0139V78.0139V79.0139C1448.97 79.0139 1453.5 80.2355 1458.29 82.7338L1458.75 81.8472ZM1444.7 78.0139V77.0139C1441.19 77.0139 1438.4 77.7211 1436.53 79.3346L1437.19 80.0903L1437.84 80.846C1439.18 79.6909 1441.39 79.0139 1444.7 79.0139V78.0139ZM1437.19 80.0903L1436.53 79.3346C1434.76 80.8736 1433.79 82.732 1433.79 84.8819H1434.79H1435.79C1435.79 83.4115 1436.43 82.0755 1437.84 80.846L1437.19 80.0903ZM1434.79 84.8819H1433.79C1433.79 86.5389 1434.43 88.1318 1435.6 89.6444L1436.39 89.0347L1437.18 88.425C1436.22 87.1691 1435.79 85.9935 1435.79 84.8819H1434.79ZM1436.39 89.0347L1435.65 89.7104C1436.97 91.1484 1439.05 92.3885 1441.77 93.4771L1442.14 92.5486L1442.51 91.6201C1439.91 90.5791 1438.15 89.4766 1437.13 88.359L1436.39 89.0347ZM1442.14 92.5486L1441.79 93.4859L1454.25 98.1179L1454.6 97.1806L1454.95 96.2432L1442.49 91.6113L1442.14 92.5486ZM1454.6 97.1806L1454.27 98.1235C1457.83 99.3825 1461.62 101.065 1465.63 103.177L1466.1 102.292L1466.56 101.407C1462.48 99.2587 1458.6 97.5341 1454.93 96.2376L1454.6 97.1806ZM1466.1 102.292L1465.64 103.181C1469.66 105.24 1473.05 108.121 1475.84 111.836L1476.64 111.236L1477.44 110.636C1474.48 106.685 1470.85 103.603 1466.55 101.402L1466.1 102.292ZM1476.64 111.236L1475.85 111.847C1478.54 115.34 1479.95 120.261 1479.95 126.729H1480.95H1481.95C1481.95 119.993 1480.49 114.585 1477.43 110.625L1476.64 111.236ZM1480.95 126.729H1479.95C1479.95 135.706 1476.62 142.985 1469.92 148.646L1470.57 149.41L1471.22 150.173C1478.37 144.122 1481.95 136.28 1481.95 126.729H1480.95ZM1470.57 149.41L1469.92 148.651C1463.32 154.318 1454.63 157.194 1443.74 157.194V158.194V159.194C1454.99 159.194 1464.19 156.214 1471.22 150.168L1470.57 149.41Z" fill="#FD520F" mask="url(#path-1-outside-1_58_296)"/>
</svg>
