<svg width="299" height="78" viewBox="0 0 299 78" fill="none" xmlns="http://www.w3.org/2000/svg">
<g filter="url(#filter0_d_399_422)">
<rect x="4" width="291" height="70" rx="35" fill="#FFA480"/>
</g>
<g filter="url(#filter1_d_399_422)">
<rect x="12" y="8" width="275" height="54" rx="25" fill="#FA8128"/>
</g>
<path d="M116.228 45V24H119.348V41.88H128.393V45H116.228ZM136.949 45.39C135.569 45.39 134.309 45.035 133.169 44.325C132.039 43.615 131.134 42.665 130.454 41.475C129.784 40.275 129.449 38.95 129.449 37.5C129.449 36.4 129.644 35.375 130.034 34.425C130.424 33.465 130.959 32.625 131.639 31.905C132.329 31.175 133.129 30.605 134.039 30.195C134.949 29.785 135.919 29.58 136.949 29.58C138.329 29.58 139.584 29.935 140.714 30.645C141.854 31.355 142.759 32.31 143.429 33.51C144.109 34.71 144.449 36.04 144.449 37.5C144.449 38.59 144.254 39.61 143.864 40.56C143.474 41.51 142.934 42.35 142.244 43.08C141.564 43.8 140.769 44.365 139.859 44.775C138.959 45.185 137.989 45.39 136.949 45.39ZM136.949 42.27C137.779 42.27 138.524 42.05 139.184 41.61C139.844 41.17 140.364 40.59 140.744 39.87C141.134 39.14 141.329 38.35 141.329 37.5C141.329 36.63 141.129 35.83 140.729 35.1C140.339 34.37 139.814 33.79 139.154 33.36C138.494 32.92 137.759 32.7 136.949 32.7C136.129 32.7 135.384 32.92 134.714 33.36C134.054 33.8 133.529 34.385 133.139 35.115C132.759 35.845 132.569 36.64 132.569 37.5C132.569 38.39 132.769 39.195 133.169 39.915C133.569 40.635 134.099 41.21 134.759 41.64C135.429 42.06 136.159 42.27 136.949 42.27ZM158.258 30H161.378V45.39C161.378 46.42 161.158 47.37 160.718 48.24C160.288 49.11 159.703 49.86 158.963 50.49C158.223 51.13 157.373 51.625 156.413 51.975C155.463 52.325 154.468 52.5 153.428 52.5C152.378 52.5 151.368 52.275 150.398 51.825C149.428 51.385 148.573 50.785 147.833 50.025C147.103 49.265 146.558 48.405 146.198 47.445L149.063 46.155C149.263 46.775 149.583 47.325 150.023 47.805C150.473 48.285 150.993 48.665 151.583 48.945C152.183 49.225 152.798 49.365 153.428 49.365C154.048 49.365 154.643 49.265 155.213 49.065C155.793 48.875 156.308 48.605 156.758 48.255C157.218 47.905 157.583 47.485 157.853 46.995C158.123 46.505 158.258 45.97 158.258 45.39V42.855C157.768 43.615 157.138 44.23 156.368 44.7C155.598 45.16 154.703 45.39 153.683 45.39C152.623 45.39 151.623 45.185 150.683 44.775C149.743 44.365 148.918 43.8 148.208 43.08C147.498 42.35 146.943 41.51 146.543 40.56C146.143 39.61 145.943 38.59 145.943 37.5C145.943 36.41 146.143 35.39 146.543 34.44C146.943 33.48 147.498 32.64 148.208 31.92C148.918 31.19 149.743 30.62 150.683 30.21C151.623 29.8 152.623 29.595 153.683 29.595C154.703 29.595 155.598 29.83 156.368 30.3C157.138 30.76 157.768 31.375 158.258 32.145V30ZM153.713 42.375C154.583 42.375 155.343 42.155 155.993 41.715C156.643 41.265 157.148 40.67 157.508 39.93C157.868 39.19 158.048 38.38 158.048 37.5C158.048 36.6 157.863 35.785 157.493 35.055C157.133 34.315 156.628 33.725 155.978 33.285C155.328 32.835 154.573 32.61 153.713 32.61C152.873 32.61 152.103 32.83 151.403 33.27C150.713 33.71 150.163 34.3 149.753 35.04C149.343 35.78 149.138 36.6 149.138 37.5C149.138 38.4 149.343 39.22 149.753 39.96C150.173 40.7 150.728 41.29 151.418 41.73C152.118 42.16 152.883 42.375 153.713 42.375ZM164.714 30H167.834V45H164.714V30ZM166.304 27.825C165.824 27.825 165.424 27.67 165.104 27.36C164.784 27.05 164.624 26.66 164.624 26.19C164.624 25.73 164.784 25.345 165.104 25.035C165.424 24.715 165.819 24.555 166.289 24.555C166.749 24.555 167.139 24.715 167.459 25.035C167.779 25.345 167.939 25.73 167.939 26.19C167.939 26.66 167.779 27.05 167.459 27.36C167.149 27.67 166.764 27.825 166.304 27.825ZM184.806 35.595V45H181.686V36.36C181.686 35.69 181.521 35.08 181.191 34.53C180.871 33.98 180.436 33.545 179.886 33.225C179.346 32.895 178.736 32.73 178.056 32.73C177.396 32.73 176.791 32.895 176.241 33.225C175.691 33.545 175.251 33.98 174.921 34.53C174.591 35.08 174.426 35.69 174.426 36.36V45H171.306V30H174.426V31.59C174.946 30.97 175.586 30.48 176.346 30.12C177.106 29.76 177.926 29.58 178.806 29.58C179.916 29.58 180.926 29.85 181.836 30.39C182.746 30.93 183.466 31.655 183.996 32.565C184.536 33.475 184.806 34.485 184.806 35.595Z" fill="white"/>
<defs>
<filter id="filter0_d_399_422" x="0" y="0" width="299" height="78" filterUnits="userSpaceOnUse" color-interpolation-filters="sRGB">
<feFlood flood-opacity="0" result="BackgroundImageFix"/>
<feColorMatrix in="SourceAlpha" type="matrix" values="0 0 0 0 0 0 0 0 0 0 0 0 0 0 0 0 0 0 127 0" result="hardAlpha"/>
<feOffset dy="4"/>
<feGaussianBlur stdDeviation="2"/>
<feComposite in2="hardAlpha" operator="out"/>
<feColorMatrix type="matrix" values="0 0 0 0 0 0 0 0 0 0 0 0 0 0 0 0 0 0 0.25 0"/>
<feBlend mode="normal" in2="BackgroundImageFix" result="effect1_dropShadow_399_422"/>
<feBlend mode="normal" in="SourceGraphic" in2="effect1_dropShadow_399_422" result="shape"/>
</filter>
<filter id="filter1_d_399_422" x="10" y="8" width="279" height="58" filterUnits="userSpaceOnUse" color-interpolation-filters="sRGB">
<feFlood flood-opacity="0" result="BackgroundImageFix"/>
<feColorMatrix in="SourceAlpha" type="matrix" values="0 0 0 0 0 0 0 0 0 0 0 0 0 0 0 0 0 0 127 0" result="hardAlpha"/>
<feOffset dy="2"/>
<feGaussianBlur stdDeviation="1"/>
<feComposite in2="hardAlpha" operator="out"/>
<feColorMatrix type="matrix" values="0 0 0 0 0 0 0 0 0 0 0 0 0 0 0 0 0 0 0.25 0"/>
<feBlend mode="normal" in2="BackgroundImageFix" result="effect1_dropShadow_399_422"/>
<feBlend mode="normal" in="SourceGraphic" in2="effect1_dropShadow_399_422" result="shape"/>
</filter>
</defs>
</svg>
