<svg width="350" height="50" viewBox="0 0 350 50" fill="none" xmlns="http://www.w3.org/2000/svg">
<rect width="350" height="50" rx="10" fill="#0843F4"/>
<path d="M145.953 34V19.7227H147.613V32.5156H153.951V34H145.953ZM165.387 28.6289C165.387 29.5078 165.273 30.2923 165.045 30.9824C164.817 31.6725 164.488 32.2552 164.059 32.7305C163.629 33.2057 163.108 33.5703 162.496 33.8242C161.891 34.0716 161.204 34.1953 160.436 34.1953C159.719 34.1953 159.062 34.0716 158.463 33.8242C157.87 33.5703 157.356 33.2057 156.92 32.7305C156.49 32.2552 156.155 31.6725 155.914 30.9824C155.68 30.2923 155.562 29.5078 155.562 28.6289C155.562 27.457 155.761 26.4609 156.158 25.6406C156.555 24.8138 157.122 24.1855 157.857 23.7559C158.6 23.3197 159.482 23.1016 160.504 23.1016C161.48 23.1016 162.333 23.3197 163.062 23.7559C163.798 24.1921 164.368 24.8236 164.771 25.6504C165.182 26.4707 165.387 27.4635 165.387 28.6289ZM157.242 28.6289C157.242 29.4883 157.356 30.2337 157.584 30.8652C157.812 31.4967 158.163 31.985 158.639 32.3301C159.114 32.6751 159.726 32.8477 160.475 32.8477C161.217 32.8477 161.826 32.6751 162.301 32.3301C162.783 31.985 163.137 31.4967 163.365 30.8652C163.593 30.2337 163.707 29.4883 163.707 28.6289C163.707 27.776 163.593 27.0404 163.365 26.4219C163.137 25.7969 162.786 25.3151 162.311 24.9766C161.835 24.638 161.22 24.4688 160.465 24.4688C159.352 24.4688 158.535 24.8366 158.014 25.5723C157.499 26.3079 157.242 27.3268 157.242 28.6289ZM171.178 38.8047C169.771 38.8047 168.688 38.541 167.926 38.0137C167.164 37.4928 166.783 36.7604 166.783 35.8164C166.783 35.1458 166.995 34.5729 167.418 34.0977C167.848 33.6224 168.44 33.3066 169.195 33.1504C168.915 33.0202 168.674 32.8249 168.473 32.5645C168.277 32.304 168.18 32.0046 168.18 31.666C168.18 31.2754 168.287 30.9336 168.502 30.6406C168.723 30.3411 169.059 30.0547 169.508 29.7812C168.948 29.5534 168.492 29.1693 168.141 28.6289C167.796 28.082 167.623 27.4473 167.623 26.7246C167.623 25.9564 167.783 25.3021 168.102 24.7617C168.421 24.2148 168.883 23.7982 169.488 23.5117C170.094 23.2253 170.826 23.082 171.686 23.082C171.874 23.082 172.063 23.0918 172.252 23.1113C172.447 23.1243 172.633 23.1471 172.809 23.1797C172.984 23.2057 173.137 23.2383 173.268 23.2773H176.939V24.3223L174.967 24.5664C175.162 24.8203 175.325 25.1263 175.455 25.4844C175.585 25.8424 175.65 26.2396 175.65 26.6758C175.65 27.7435 175.289 28.5931 174.566 29.2246C173.844 29.8496 172.851 30.1621 171.588 30.1621C171.288 30.1621 170.982 30.1361 170.67 30.084C170.351 30.2598 170.107 30.4551 169.938 30.6699C169.775 30.8848 169.693 31.1322 169.693 31.4121C169.693 31.6204 169.755 31.7865 169.879 31.9102C170.009 32.0339 170.195 32.125 170.436 32.1836C170.676 32.2357 170.966 32.2617 171.305 32.2617H173.189C174.355 32.2617 175.247 32.5059 175.865 32.9941C176.49 33.4824 176.803 34.1953 176.803 35.1328C176.803 36.3177 176.321 37.2259 175.357 37.8574C174.394 38.4889 173.001 38.8047 171.178 38.8047ZM171.227 37.5352C172.112 37.5352 172.844 37.444 173.424 37.2617C174.01 37.0859 174.446 36.8288 174.732 36.4902C175.025 36.1582 175.172 35.7611 175.172 35.2988C175.172 34.8691 175.074 34.5436 174.879 34.3223C174.684 34.1074 174.397 33.9642 174.02 33.8926C173.642 33.8145 173.18 33.7754 172.633 33.7754H170.777C170.296 33.7754 169.876 33.8503 169.518 34C169.16 34.1497 168.883 34.3711 168.688 34.6641C168.499 34.957 168.404 35.3216 168.404 35.7578C168.404 36.3372 168.648 36.7767 169.137 37.0762C169.625 37.3822 170.322 37.5352 171.227 37.5352ZM171.646 28.9805C172.421 28.9805 173.004 28.7852 173.395 28.3945C173.785 28.0039 173.98 27.4342 173.98 26.6855C173.98 25.8848 173.782 25.2858 173.385 24.8887C172.988 24.485 172.402 24.2832 171.627 24.2832C170.885 24.2832 170.312 24.4915 169.908 24.9082C169.511 25.3184 169.312 25.9206 169.312 26.7148C169.312 27.444 169.514 28.0039 169.918 28.3945C170.322 28.7852 170.898 28.9805 171.646 28.9805ZM180.67 23.2969V34H179.049V23.2969H180.67ZM179.879 19.293C180.146 19.293 180.374 19.3809 180.562 19.5566C180.758 19.7259 180.855 19.9928 180.855 20.3574C180.855 20.7155 180.758 20.9824 180.562 21.1582C180.374 21.334 180.146 21.4219 179.879 21.4219C179.599 21.4219 179.365 21.334 179.176 21.1582C178.993 20.9824 178.902 20.7155 178.902 20.3574C178.902 19.9928 178.993 19.7259 179.176 19.5566C179.365 19.3809 179.599 19.293 179.879 19.293ZM189.176 23.1016C190.445 23.1016 191.406 23.4141 192.057 24.0391C192.708 24.6576 193.033 25.6536 193.033 27.0273V34H191.432V27.1348C191.432 26.2428 191.227 25.5755 190.816 25.1328C190.413 24.6901 189.791 24.4688 188.951 24.4688C187.766 24.4688 186.933 24.804 186.451 25.4746C185.969 26.1452 185.729 27.1185 185.729 28.3945V34H184.107V23.2969H185.416L185.66 24.8398H185.748C185.976 24.4622 186.266 24.1465 186.617 23.8926C186.969 23.6322 187.363 23.4368 187.799 23.3066C188.235 23.1699 188.694 23.1016 189.176 23.1016Z" fill="white"/>
</svg>
