<svg width="1440" height="193" viewBox="0 0 1440 193" fill="none" xmlns="http://www.w3.org/2000/svg">
<mask id="path-1-outside-1_115_237" maskUnits="userSpaceOnUse" x="-13" y="0" width="1470" height="202" fill="black">
<rect fill="white" x="-13" width="1470" height="202"/>
<path d="M87.4167 196.75C73.6667 196.75 60.8194 194.25 48.875 189.25C36.9306 184.111 26.375 177.097 17.2083 168.208C8.18056 159.319 1.09722 148.972 -4.04167 137.167C-9.18056 125.361 -11.75 112.722 -11.75 99.25C-11.75 85.7778 -9.18056 73.1389 -4.04167 61.3333C1.09722 49.5278 8.18056 39.1806 17.2083 30.2917C26.375 21.4028 36.9306 14.4583 48.875 9.45833C60.8194 4.31945 73.6667 1.75 87.4167 1.75C101.167 1.75 114.014 4.31945 125.958 9.45833C137.903 14.4583 148.389 21.4028 157.417 30.2917C166.583 39.1806 173.736 49.5278 178.875 61.3333C184.014 73.1389 186.583 85.7778 186.583 99.25C186.583 112.722 184.014 125.361 178.875 137.167C173.736 148.972 166.583 159.319 157.417 168.208C148.389 177.097 137.903 184.111 125.958 189.25C114.014 194.25 101.167 196.75 87.4167 196.75ZM87.4167 160.5C98.6667 160.5 108.806 157.792 117.833 152.375C126.861 146.819 134.014 139.389 139.292 130.083C144.708 120.778 147.417 110.5 147.417 99.25C147.417 87.8611 144.708 77.5833 139.292 68.4167C134.014 59.1111 126.861 51.75 117.833 46.3333C108.806 40.7778 98.6667 38 87.4167 38C76.1667 38 65.9583 40.7778 56.7917 46.3333C47.7639 51.75 40.6111 59.1111 35.3333 68.4167C30.0556 77.5833 27.4167 87.8611 27.4167 99.25C27.4167 110.5 30.0556 120.778 35.3333 130.083C40.6111 139.389 47.7639 146.819 56.7917 152.375C65.9583 157.792 76.1667 160.5 87.4167 160.5ZM259.982 197.167C251.232 197.167 242.968 195.083 235.19 190.917C227.412 186.611 221.093 180.431 216.232 172.375C211.51 164.181 209.148 154.319 209.148 142.792V68H245.398V138C245.398 144.944 247.482 151.125 251.648 156.542C255.954 161.958 261.926 164.667 269.565 164.667C275.815 164.667 281.371 162.444 286.232 158C291.232 153.417 293.732 146.889 293.732 138.417V68H329.982V193H297.065V179.875C292.621 185.431 287.135 189.736 280.607 192.792C274.218 195.708 267.343 197.167 259.982 197.167ZM357.547 193V68H390.047V89.4583C394.352 82.2361 399.769 76.6805 406.297 72.7917C412.964 68.7639 420.741 66.75 429.63 66.75L437.547 98.8333C434.908 98 431.922 97.5833 428.589 97.5833C418.172 97.5833 409.769 100.986 403.38 107.792C396.991 114.458 393.797 124.042 393.797 136.542V193H357.547ZM570.125 197.167C558.736 197.167 547.903 195.083 537.625 190.917C527.486 186.611 519.361 181.472 513.25 175.5L523.458 133.833C528.319 142.306 535.194 149.389 544.083 155.083C552.972 160.639 562.069 163.417 571.375 163.417C579.014 163.417 584.986 161.333 589.292 157.167C593.736 153 595.958 147.931 595.958 141.958C595.958 137.097 594.778 133.069 592.417 129.875C590.194 126.681 587.486 124.042 584.292 121.958C581.236 119.875 578.528 118.278 576.167 117.167L554.083 106.125C547.694 102.931 541.583 99.1806 535.75 94.875C529.917 90.4306 525.125 84.9444 521.375 78.4167C517.764 71.8889 515.958 63.8333 515.958 54.25C515.958 43.6944 518.319 34.4583 523.042 26.5417C527.903 18.625 534.708 12.4444 543.458 8C552.208 3.55555 562.486 1.33333 574.292 1.33333C585.403 1.33333 595.264 3.13889 603.875 6.75C612.625 10.2222 619.708 13.9722 625.125 18L615.542 58.625C609.986 51.4028 603.319 45.6389 595.542 41.3333C587.903 36.8889 580.264 34.6667 572.625 34.6667C565.819 34.6667 560.542 36.4028 556.792 39.875C553.181 43.3472 551.375 47.6528 551.375 52.7917C551.375 55.9861 552.069 58.8333 553.458 61.3333C554.986 63.8333 557.139 66.0556 559.917 68C562.694 69.9444 565.958 71.8889 569.708 73.8333L592 84.875C595.75 86.6806 599.847 89.0417 604.292 91.9583C608.736 94.7361 613.042 98.2778 617.208 102.583C621.375 106.889 624.778 112.097 627.417 118.208C630.056 124.181 631.375 131.333 631.375 139.667C631.375 150.5 628.875 160.292 623.875 169.042C618.875 177.653 611.792 184.528 602.625 189.667C593.597 194.667 582.764 197.167 570.125 197.167ZM717.944 197.167C703.916 197.167 691.555 194.25 680.861 188.417C670.166 182.583 661.833 174.597 655.861 164.458C649.888 154.181 646.902 142.444 646.902 129.25C646.902 116.611 649.819 105.431 655.652 95.7083C661.486 85.8472 669.333 78.0694 679.194 72.375C689.194 66.6806 700.236 63.8333 712.319 63.8333C724.68 63.8333 735.722 66.6806 745.444 72.375C755.166 77.9306 762.805 85.5694 768.361 95.2917C774.055 105.014 776.902 116.056 776.902 128.417V141.125H700.652C697.18 141.125 693.847 140.917 690.652 140.5C687.458 140.083 684.263 139.597 681.069 139.042C682.736 147.375 686.833 154.181 693.361 159.458C700.027 164.597 708.5 167.167 718.777 167.167C726.694 167.167 733.777 165.569 740.027 162.375C746.416 159.181 751.625 155.222 755.652 150.5L763.569 183C757.319 187.722 750.236 191.264 742.319 193.625C734.541 195.986 726.416 197.167 717.944 197.167ZM680.236 117.167C687.18 115.639 693.986 114.875 700.652 114.875H722.736C726.625 114.875 730.305 115.014 733.777 115.292C737.25 115.569 740.513 116.056 743.569 116.75C741.486 109.25 737.666 103.347 732.111 99.0417C726.694 94.7361 719.958 92.5833 711.902 92.5833C704.263 92.5833 697.597 94.8056 691.902 99.25C686.347 103.556 682.458 109.528 680.236 117.167ZM797 193V68H829.5V89.4583C833.806 82.2361 839.222 76.6805 845.75 72.7917C852.417 68.7639 860.194 66.75 869.083 66.75L877 98.8333C874.361 98 871.375 97.5833 868.042 97.5833C857.625 97.5833 849.222 100.986 842.833 107.792C836.444 114.458 833.25 124.042 833.25 136.542V193H797ZM948.842 199.25L880.301 68H920.509L940.092 108.208C941.898 111.681 943.565 115.153 945.092 118.625C946.62 121.958 948.148 125.778 949.676 130.083C951.204 125.778 952.731 121.958 954.259 118.625C955.787 115.153 957.454 111.681 959.259 108.208L978.842 68H1017.38L948.842 199.25ZM1032.67 193V68H1068.92V193H1032.67ZM1050.8 49.875C1045.38 49.875 1040.8 48 1037.05 44.25C1033.3 40.5 1031.42 35.9167 1031.42 30.5C1031.42 24.9444 1033.3 20.3611 1037.05 16.75C1040.8 13 1045.38 11.125 1050.8 11.125C1056.35 11.125 1060.93 13 1064.55 16.75C1068.3 20.3611 1070.17 24.9444 1070.17 30.5C1070.17 35.9167 1068.3 40.5 1064.55 44.25C1060.93 48 1056.35 49.875 1050.8 49.875ZM1157.96 197.167C1145.6 197.167 1134.28 194.181 1124 188.208C1113.72 182.236 1105.53 174.181 1099.42 164.042C1093.44 153.903 1090.46 142.722 1090.46 130.5C1090.46 118.139 1093.44 106.958 1099.42 96.9583C1105.53 86.8194 1113.72 78.7639 1124 72.7917C1134.28 66.8194 1145.6 63.8333 1157.96 63.8333C1166.57 63.8333 1174.69 65.2917 1182.33 68.2083C1190.11 70.9861 1196.98 75.1528 1202.96 80.7083L1193.58 117.583C1190.11 111.889 1185.46 106.958 1179.62 102.792C1173.93 98.4861 1167.19 96.3333 1159.42 96.3333C1152.89 96.3333 1147.05 97.8611 1141.92 100.917C1136.78 103.972 1132.75 108.069 1129.83 113.208C1126.92 118.347 1125.46 124.111 1125.46 130.5C1125.46 136.75 1126.92 142.514 1129.83 147.792C1132.75 152.931 1136.78 157.028 1141.92 160.083C1147.05 163.139 1152.89 164.667 1159.42 164.667C1167.19 164.667 1173.93 162.583 1179.62 158.417C1185.46 154.111 1190.11 149.111 1193.58 143.417L1202.96 180.292C1196.98 185.847 1190.11 190.083 1182.33 193C1174.69 195.778 1166.57 197.167 1157.96 197.167ZM1286.6 197.167C1272.57 197.167 1260.21 194.25 1249.51 188.417C1238.82 182.583 1230.49 174.597 1224.51 164.458C1218.54 154.181 1215.55 142.444 1215.55 129.25C1215.55 116.611 1218.47 105.431 1224.3 95.7083C1230.14 85.8472 1237.99 78.0694 1247.85 72.375C1257.85 66.6806 1268.89 63.8333 1280.97 63.8333C1293.33 63.8333 1304.37 66.6806 1314.1 72.375C1323.82 77.9306 1331.46 85.5694 1337.01 95.2917C1342.71 105.014 1345.55 116.056 1345.55 128.417V141.125H1269.3C1265.83 141.125 1262.5 140.917 1259.3 140.5C1256.11 140.083 1252.92 139.597 1249.72 139.042C1251.39 147.375 1255.49 154.181 1262.01 159.458C1268.68 164.597 1277.15 167.167 1287.43 167.167C1295.35 167.167 1302.43 165.569 1308.68 162.375C1315.07 159.181 1320.28 155.222 1324.3 150.5L1332.22 183C1325.97 187.722 1318.89 191.264 1310.97 193.625C1303.19 195.986 1295.07 197.167 1286.6 197.167ZM1248.89 117.167C1255.83 115.639 1262.64 114.875 1269.3 114.875H1291.39C1295.28 114.875 1298.96 115.014 1302.43 115.292C1305.9 115.569 1309.17 116.056 1312.22 116.75C1310.14 109.25 1306.32 103.347 1300.76 99.0417C1295.35 94.7361 1288.61 92.5833 1280.55 92.5833C1272.92 92.5833 1266.25 94.8056 1260.55 99.25C1255 103.556 1251.11 109.528 1248.89 117.167ZM1406.69 197.167C1398.22 197.167 1389.61 195.778 1380.86 193C1372.25 190.222 1365.51 186.472 1360.65 181.75L1369.61 147.583C1373.64 153.139 1379.19 158 1386.28 162.167C1393.5 166.333 1400.93 168.417 1408.57 168.417C1413.71 168.417 1417.39 167.444 1419.61 165.5C1421.97 163.556 1423.15 161.194 1423.15 158.417C1423.15 155.222 1421.97 152.931 1419.61 151.542C1417.25 150.014 1414.82 148.764 1412.32 147.792L1394.82 141.125C1390.93 139.597 1386.49 137.514 1381.49 134.875C1376.49 132.236 1372.11 128.486 1368.36 123.625C1364.75 118.764 1362.94 112.375 1362.94 104.458C1362.94 97.2361 1364.75 90.5694 1368.36 84.4583C1371.97 78.3472 1377.18 73.4167 1383.99 69.6667C1390.93 65.7778 1399.26 63.8333 1408.99 63.8333C1418.01 63.8333 1426.42 65.3611 1434.19 68.4167C1442.11 71.4722 1447.87 74.875 1451.49 78.625L1443.15 111.542C1438.43 105.431 1432.81 100.778 1426.28 97.5833C1419.89 94.25 1413.78 92.5833 1407.94 92.5833C1403.5 92.5833 1400.24 93.4861 1398.15 95.2917C1396.07 97.0972 1395.03 99.1806 1395.03 101.542C1395.03 103.347 1395.72 105.153 1397.11 106.958C1398.64 108.625 1401.14 110.153 1404.61 111.542L1420.86 117.583C1425.58 119.25 1430.58 121.472 1435.86 124.25C1441.28 127.028 1445.86 130.917 1449.61 135.917C1453.36 140.778 1455.24 147.514 1455.24 156.125C1455.24 168.208 1450.72 178.069 1441.69 185.708C1432.81 193.347 1421.14 197.167 1406.69 197.167Z"/>
</mask>
<path d="M87.4167 196.75C73.6667 196.75 60.8194 194.25 48.875 189.25C36.9306 184.111 26.375 177.097 17.2083 168.208C8.18056 159.319 1.09722 148.972 -4.04167 137.167C-9.18056 125.361 -11.75 112.722 -11.75 99.25C-11.75 85.7778 -9.18056 73.1389 -4.04167 61.3333C1.09722 49.5278 8.18056 39.1806 17.2083 30.2917C26.375 21.4028 36.9306 14.4583 48.875 9.45833C60.8194 4.31945 73.6667 1.75 87.4167 1.75C101.167 1.75 114.014 4.31945 125.958 9.45833C137.903 14.4583 148.389 21.4028 157.417 30.2917C166.583 39.1806 173.736 49.5278 178.875 61.3333C184.014 73.1389 186.583 85.7778 186.583 99.25C186.583 112.722 184.014 125.361 178.875 137.167C173.736 148.972 166.583 159.319 157.417 168.208C148.389 177.097 137.903 184.111 125.958 189.25C114.014 194.25 101.167 196.75 87.4167 196.75ZM87.4167 160.5C98.6667 160.5 108.806 157.792 117.833 152.375C126.861 146.819 134.014 139.389 139.292 130.083C144.708 120.778 147.417 110.5 147.417 99.25C147.417 87.8611 144.708 77.5833 139.292 68.4167C134.014 59.1111 126.861 51.75 117.833 46.3333C108.806 40.7778 98.6667 38 87.4167 38C76.1667 38 65.9583 40.7778 56.7917 46.3333C47.7639 51.75 40.6111 59.1111 35.3333 68.4167C30.0556 77.5833 27.4167 87.8611 27.4167 99.25C27.4167 110.5 30.0556 120.778 35.3333 130.083C40.6111 139.389 47.7639 146.819 56.7917 152.375C65.9583 157.792 76.1667 160.5 87.4167 160.5ZM259.982 197.167C251.232 197.167 242.968 195.083 235.19 190.917C227.412 186.611 221.093 180.431 216.232 172.375C211.51 164.181 209.148 154.319 209.148 142.792V68H245.398V138C245.398 144.944 247.482 151.125 251.648 156.542C255.954 161.958 261.926 164.667 269.565 164.667C275.815 164.667 281.371 162.444 286.232 158C291.232 153.417 293.732 146.889 293.732 138.417V68H329.982V193H297.065V179.875C292.621 185.431 287.135 189.736 280.607 192.792C274.218 195.708 267.343 197.167 259.982 197.167ZM357.547 193V68H390.047V89.4583C394.352 82.2361 399.769 76.6805 406.297 72.7917C412.964 68.7639 420.741 66.75 429.63 66.75L437.547 98.8333C434.908 98 431.922 97.5833 428.589 97.5833C418.172 97.5833 409.769 100.986 403.38 107.792C396.991 114.458 393.797 124.042 393.797 136.542V193H357.547ZM570.125 197.167C558.736 197.167 547.903 195.083 537.625 190.917C527.486 186.611 519.361 181.472 513.25 175.5L523.458 133.833C528.319 142.306 535.194 149.389 544.083 155.083C552.972 160.639 562.069 163.417 571.375 163.417C579.014 163.417 584.986 161.333 589.292 157.167C593.736 153 595.958 147.931 595.958 141.958C595.958 137.097 594.778 133.069 592.417 129.875C590.194 126.681 587.486 124.042 584.292 121.958C581.236 119.875 578.528 118.278 576.167 117.167L554.083 106.125C547.694 102.931 541.583 99.1806 535.75 94.875C529.917 90.4306 525.125 84.9444 521.375 78.4167C517.764 71.8889 515.958 63.8333 515.958 54.25C515.958 43.6944 518.319 34.4583 523.042 26.5417C527.903 18.625 534.708 12.4444 543.458 8C552.208 3.55555 562.486 1.33333 574.292 1.33333C585.403 1.33333 595.264 3.13889 603.875 6.75C612.625 10.2222 619.708 13.9722 625.125 18L615.542 58.625C609.986 51.4028 603.319 45.6389 595.542 41.3333C587.903 36.8889 580.264 34.6667 572.625 34.6667C565.819 34.6667 560.542 36.4028 556.792 39.875C553.181 43.3472 551.375 47.6528 551.375 52.7917C551.375 55.9861 552.069 58.8333 553.458 61.3333C554.986 63.8333 557.139 66.0556 559.917 68C562.694 69.9444 565.958 71.8889 569.708 73.8333L592 84.875C595.75 86.6806 599.847 89.0417 604.292 91.9583C608.736 94.7361 613.042 98.2778 617.208 102.583C621.375 106.889 624.778 112.097 627.417 118.208C630.056 124.181 631.375 131.333 631.375 139.667C631.375 150.5 628.875 160.292 623.875 169.042C618.875 177.653 611.792 184.528 602.625 189.667C593.597 194.667 582.764 197.167 570.125 197.167ZM717.944 197.167C703.916 197.167 691.555 194.25 680.861 188.417C670.166 182.583 661.833 174.597 655.861 164.458C649.888 154.181 646.902 142.444 646.902 129.25C646.902 116.611 649.819 105.431 655.652 95.7083C661.486 85.8472 669.333 78.0694 679.194 72.375C689.194 66.6806 700.236 63.8333 712.319 63.8333C724.68 63.8333 735.722 66.6806 745.444 72.375C755.166 77.9306 762.805 85.5694 768.361 95.2917C774.055 105.014 776.902 116.056 776.902 128.417V141.125H700.652C697.18 141.125 693.847 140.917 690.652 140.5C687.458 140.083 684.263 139.597 681.069 139.042C682.736 147.375 686.833 154.181 693.361 159.458C700.027 164.597 708.5 167.167 718.777 167.167C726.694 167.167 733.777 165.569 740.027 162.375C746.416 159.181 751.625 155.222 755.652 150.5L763.569 183C757.319 187.722 750.236 191.264 742.319 193.625C734.541 195.986 726.416 197.167 717.944 197.167ZM680.236 117.167C687.18 115.639 693.986 114.875 700.652 114.875H722.736C726.625 114.875 730.305 115.014 733.777 115.292C737.25 115.569 740.513 116.056 743.569 116.75C741.486 109.25 737.666 103.347 732.111 99.0417C726.694 94.7361 719.958 92.5833 711.902 92.5833C704.263 92.5833 697.597 94.8056 691.902 99.25C686.347 103.556 682.458 109.528 680.236 117.167ZM797 193V68H829.5V89.4583C833.806 82.2361 839.222 76.6805 845.75 72.7917C852.417 68.7639 860.194 66.75 869.083 66.75L877 98.8333C874.361 98 871.375 97.5833 868.042 97.5833C857.625 97.5833 849.222 100.986 842.833 107.792C836.444 114.458 833.25 124.042 833.25 136.542V193H797ZM948.842 199.25L880.301 68H920.509L940.092 108.208C941.898 111.681 943.565 115.153 945.092 118.625C946.62 121.958 948.148 125.778 949.676 130.083C951.204 125.778 952.731 121.958 954.259 118.625C955.787 115.153 957.454 111.681 959.259 108.208L978.842 68H1017.38L948.842 199.25ZM1032.67 193V68H1068.92V193H1032.67ZM1050.8 49.875C1045.38 49.875 1040.8 48 1037.05 44.25C1033.3 40.5 1031.42 35.9167 1031.42 30.5C1031.42 24.9444 1033.3 20.3611 1037.05 16.75C1040.8 13 1045.38 11.125 1050.8 11.125C1056.35 11.125 1060.93 13 1064.55 16.75C1068.3 20.3611 1070.17 24.9444 1070.17 30.5C1070.17 35.9167 1068.3 40.5 1064.55 44.25C1060.93 48 1056.35 49.875 1050.8 49.875ZM1157.96 197.167C1145.6 197.167 1134.28 194.181 1124 188.208C1113.72 182.236 1105.53 174.181 1099.42 164.042C1093.44 153.903 1090.46 142.722 1090.46 130.5C1090.46 118.139 1093.44 106.958 1099.42 96.9583C1105.53 86.8194 1113.72 78.7639 1124 72.7917C1134.28 66.8194 1145.6 63.8333 1157.96 63.8333C1166.57 63.8333 1174.69 65.2917 1182.33 68.2083C1190.11 70.9861 1196.98 75.1528 1202.96 80.7083L1193.58 117.583C1190.11 111.889 1185.46 106.958 1179.62 102.792C1173.93 98.4861 1167.19 96.3333 1159.42 96.3333C1152.89 96.3333 1147.05 97.8611 1141.92 100.917C1136.78 103.972 1132.75 108.069 1129.83 113.208C1126.92 118.347 1125.46 124.111 1125.46 130.5C1125.46 136.75 1126.92 142.514 1129.83 147.792C1132.75 152.931 1136.78 157.028 1141.92 160.083C1147.05 163.139 1152.89 164.667 1159.42 164.667C1167.19 164.667 1173.93 162.583 1179.62 158.417C1185.46 154.111 1190.11 149.111 1193.58 143.417L1202.96 180.292C1196.98 185.847 1190.11 190.083 1182.33 193C1174.69 195.778 1166.57 197.167 1157.96 197.167ZM1286.6 197.167C1272.57 197.167 1260.21 194.25 1249.51 188.417C1238.82 182.583 1230.49 174.597 1224.51 164.458C1218.54 154.181 1215.55 142.444 1215.55 129.25C1215.55 116.611 1218.47 105.431 1224.3 95.7083C1230.14 85.8472 1237.99 78.0694 1247.85 72.375C1257.85 66.6806 1268.89 63.8333 1280.97 63.8333C1293.33 63.8333 1304.37 66.6806 1314.1 72.375C1323.82 77.9306 1331.46 85.5694 1337.01 95.2917C1342.71 105.014 1345.55 116.056 1345.55 128.417V141.125H1269.3C1265.83 141.125 1262.5 140.917 1259.3 140.5C1256.11 140.083 1252.92 139.597 1249.72 139.042C1251.39 147.375 1255.49 154.181 1262.01 159.458C1268.68 164.597 1277.15 167.167 1287.43 167.167C1295.35 167.167 1302.43 165.569 1308.68 162.375C1315.07 159.181 1320.28 155.222 1324.3 150.5L1332.22 183C1325.97 187.722 1318.89 191.264 1310.97 193.625C1303.19 195.986 1295.07 197.167 1286.6 197.167ZM1248.89 117.167C1255.83 115.639 1262.64 114.875 1269.3 114.875H1291.39C1295.28 114.875 1298.96 115.014 1302.43 115.292C1305.9 115.569 1309.17 116.056 1312.22 116.75C1310.14 109.25 1306.32 103.347 1300.76 99.0417C1295.35 94.7361 1288.61 92.5833 1280.55 92.5833C1272.92 92.5833 1266.25 94.8056 1260.55 99.25C1255 103.556 1251.11 109.528 1248.89 117.167ZM1406.69 197.167C1398.22 197.167 1389.61 195.778 1380.86 193C1372.25 190.222 1365.51 186.472 1360.65 181.75L1369.61 147.583C1373.64 153.139 1379.19 158 1386.28 162.167C1393.5 166.333 1400.93 168.417 1408.57 168.417C1413.71 168.417 1417.39 167.444 1419.61 165.5C1421.97 163.556 1423.15 161.194 1423.15 158.417C1423.15 155.222 1421.97 152.931 1419.61 151.542C1417.25 150.014 1414.82 148.764 1412.32 147.792L1394.82 141.125C1390.93 139.597 1386.49 137.514 1381.49 134.875C1376.49 132.236 1372.11 128.486 1368.36 123.625C1364.75 118.764 1362.94 112.375 1362.94 104.458C1362.94 97.2361 1364.75 90.5694 1368.36 84.4583C1371.97 78.3472 1377.18 73.4167 1383.99 69.6667C1390.93 65.7778 1399.26 63.8333 1408.99 63.8333C1418.01 63.8333 1426.42 65.3611 1434.19 68.4167C1442.11 71.4722 1447.87 74.875 1451.49 78.625L1443.15 111.542C1438.43 105.431 1432.81 100.778 1426.28 97.5833C1419.89 94.25 1413.78 92.5833 1407.94 92.5833C1403.5 92.5833 1400.24 93.4861 1398.15 95.2917C1396.07 97.0972 1395.03 99.1806 1395.03 101.542C1395.03 103.347 1395.72 105.153 1397.11 106.958C1398.64 108.625 1401.14 110.153 1404.61 111.542L1420.86 117.583C1425.58 119.25 1430.58 121.472 1435.86 124.25C1441.28 127.028 1445.86 130.917 1449.61 135.917C1453.36 140.778 1455.24 147.514 1455.24 156.125C1455.24 168.208 1450.72 178.069 1441.69 185.708C1432.81 193.347 1421.14 197.167 1406.69 197.167Z" fill="white"/>
<path d="M48.875 189.25L48.4798 190.169L48.4889 190.172L48.875 189.25ZM17.2083 168.208L16.5067 168.921L16.5122 168.926L17.2083 168.208ZM-4.04167 137.167L-3.12477 136.768L-4.04167 137.167ZM-4.04167 61.3333L-4.95856 60.9342L-4.04167 61.3333ZM17.2083 30.2917L16.5122 29.5737L16.5067 29.5791L17.2083 30.2917ZM48.875 9.45834L49.2612 10.3808L49.2702 10.3769L48.875 9.45834ZM125.958 9.45834L125.563 10.377L125.572 10.3808L125.958 9.45834ZM157.417 30.2917L156.715 31.0042L156.721 31.0096L157.417 30.2917ZM178.875 61.3333L179.792 60.9342L178.875 61.3333ZM178.875 137.167L179.792 137.566L178.875 137.167ZM157.417 168.208L156.721 167.49L156.715 167.496L157.417 168.208ZM125.958 189.25L126.344 190.172L126.354 190.169L125.958 189.25ZM117.833 152.375L118.348 153.233L118.357 153.227L117.833 152.375ZM139.292 130.083L138.427 129.58L138.422 129.59L139.292 130.083ZM139.292 68.4167L138.422 68.91L138.426 68.9177L138.431 68.9254L139.292 68.4167ZM117.833 46.3333L117.309 47.185L117.319 47.1908L117.833 46.3333ZM56.7917 46.3333L57.3062 47.1908L57.31 47.1885L56.7917 46.3333ZM35.3333 68.4167L36.2 68.9156L36.2032 68.91L35.3333 68.4167ZM56.7917 152.375L56.2676 153.227L56.2752 153.231L56.2829 153.236L56.7917 152.375ZM87.4167 196.75V195.75C73.7909 195.75 61.0758 193.273 49.2611 188.328L48.875 189.25L48.4889 190.172C60.5631 195.227 73.5424 197.75 87.4167 197.75V196.75ZM48.875 189.25L49.2702 188.331C37.4354 183.24 26.9822 176.293 17.9045 167.49L17.2083 168.208L16.5122 168.926C25.7678 177.901 36.4258 184.983 48.4798 190.169L48.875 189.25ZM17.2083 168.208L17.9099 167.496C8.97482 158.698 1.96392 148.458 -3.12477 136.768L-4.04167 137.167L-4.95856 137.566C0.23053 149.487 7.38629 159.941 16.5067 168.921L17.2083 168.208ZM-4.04167 137.167L-3.12477 136.768C-8.20631 125.094 -10.75 112.591 -10.75 99.25H-11.75H-12.75C-12.75 112.853 -10.1548 125.628 -4.95856 137.566L-4.04167 137.167ZM-11.75 99.25H-10.75C-10.75 85.9086 -8.20631 73.4063 -3.12477 61.7325L-4.04167 61.3333L-4.95856 60.9342C-10.1548 72.8715 -12.75 85.6469 -12.75 99.25H-11.75ZM-4.04167 61.3333L-3.12477 61.7325C1.96392 50.0422 8.97482 39.8019 17.9099 31.0042L17.2083 30.2917L16.5067 29.5791C7.38629 38.5592 0.23053 49.0133 -4.95856 60.9342L-4.04167 61.3333ZM17.2083 30.2917L17.9045 31.0096C26.9802 22.2089 37.4302 15.3332 49.2611 10.3808L48.875 9.45834L48.4889 8.53589C36.4309 13.5834 25.7698 20.5967 16.5122 29.5738L17.2083 30.2917ZM48.875 9.45834L49.2702 10.3769C61.0827 5.2948 73.7946 2.75 87.4167 2.75V1.75V0.75C73.5387 0.75 60.5562 3.34409 48.4798 8.53974L48.875 9.45834ZM87.4167 1.75V2.75C101.039 2.75 113.751 5.2948 125.563 10.3769L125.958 9.45834L126.354 8.53974C114.277 3.34409 101.295 0.75 87.4167 0.75V1.75ZM125.958 9.45834L125.572 10.3808C137.402 15.3327 147.78 22.2068 156.715 31.0042L157.417 30.2917L158.118 29.5791C148.998 20.5988 138.404 13.584 126.344 8.53589L125.958 9.45834ZM157.417 30.2917L156.721 31.0096C165.793 39.8068 172.871 50.0455 177.958 61.7325L178.875 61.3333L179.792 60.9342C174.601 49.01 167.374 38.5543 158.113 29.5738L157.417 30.2917ZM178.875 61.3333L177.958 61.7325C183.04 73.4063 185.583 85.9086 185.583 99.25H186.583H187.583C187.583 85.6469 184.988 72.8715 179.792 60.9342L178.875 61.3333ZM186.583 99.25H185.583C185.583 112.591 183.04 125.094 177.958 136.768L178.875 137.167L179.792 137.566C184.988 125.628 187.583 112.853 187.583 99.25H186.583ZM178.875 137.167L177.958 136.768C172.871 148.454 165.793 158.693 156.721 167.49L157.417 168.208L158.113 168.926C167.374 159.946 174.601 149.49 179.792 137.566L178.875 137.167ZM157.417 168.208L156.715 167.496C147.778 176.295 137.397 183.24 125.563 188.331L125.958 189.25L126.354 190.169C138.409 184.982 149 177.899 158.118 168.921L157.417 168.208ZM125.958 189.25L125.572 188.328C113.758 193.273 101.042 195.75 87.4167 195.75V196.75V197.75C101.291 197.75 114.27 195.227 126.344 190.172L125.958 189.25ZM87.4167 160.5V161.5C98.835 161.5 109.154 158.749 118.348 153.232L117.833 152.375L117.319 151.518C108.457 156.835 98.4983 159.5 87.4167 159.5V160.5ZM117.833 152.375L118.357 153.227C127.53 147.582 134.801 140.027 140.161 130.577L139.292 130.083L138.422 129.59C133.226 138.75 126.192 146.057 117.309 151.523L117.833 152.375ZM139.292 130.083L140.156 130.586C145.666 121.121 148.417 110.668 148.417 99.25H147.417H146.417C146.417 110.332 143.751 120.434 138.427 129.58L139.292 130.083ZM147.417 99.25H148.417C148.417 87.6951 145.667 77.2394 140.153 67.9079L139.292 68.4167L138.431 68.9254C143.75 77.9272 146.417 88.0271 146.417 99.25H147.417ZM139.292 68.4167L140.161 67.9233C134.8 58.4703 127.526 50.9827 118.348 45.4758L117.833 46.3333L117.319 47.1908C126.196 52.5173 133.228 59.7519 138.422 68.91L139.292 68.4167ZM117.833 46.3333L118.357 45.4817C109.162 39.8231 98.8399 37 87.4167 37V38V39C98.4934 39 108.449 41.7325 117.309 47.185L117.833 46.3333ZM87.4167 38V37C75.9934 37 65.6042 39.8231 56.2734 45.4781L56.7917 46.3333L57.31 47.1885C66.3124 41.7325 76.34 39 87.4167 39V38ZM56.7917 46.3333L56.2772 45.4758C47.0991 50.9827 39.8249 58.4703 34.4635 67.9233L35.3333 68.4167L36.2032 68.91C41.3973 59.7519 48.4287 52.5173 57.3062 47.1908L56.7917 46.3333ZM35.3333 68.4167L34.4667 67.9177C29.0949 77.2477 26.4167 87.6999 26.4167 99.25H27.4167H28.4167C28.4167 88.0224 31.0162 77.9189 36.2 68.9156L35.3333 68.4167ZM27.4167 99.25H26.4167C26.4167 110.664 29.0959 121.113 34.4635 130.577L35.3333 130.083L36.2032 129.59C31.0152 120.443 28.4167 110.336 28.4167 99.25H27.4167ZM35.3333 130.083L34.4635 130.577C39.8237 140.027 47.0948 147.582 56.2676 153.227L56.7917 152.375L57.3158 151.523C48.433 146.057 41.3986 138.75 36.2032 129.59L35.3333 130.083ZM56.7917 152.375L56.2829 153.236C65.6125 158.749 75.9982 161.5 87.4167 161.5V160.5V159.5C76.3351 159.5 66.3042 156.834 57.3004 151.514L56.7917 152.375ZM235.19 190.917L234.706 191.792L234.718 191.798L235.19 190.917ZM216.232 172.375L215.365 172.874L215.37 172.883L215.376 172.892L216.232 172.375ZM209.148 68V67H208.148V68H209.148ZM245.398 68H246.398V67H245.398V68ZM251.648 156.542L250.856 157.151L250.861 157.158L250.866 157.164L251.648 156.542ZM286.232 158L286.907 158.738L286.908 158.737L286.232 158ZM293.732 68V67H292.732V68H293.732ZM329.982 68H330.982V67H329.982V68ZM329.982 193V194H330.982V193H329.982ZM297.065 193H296.065V194H297.065V193ZM297.065 179.875H298.065V177.024L296.284 179.25L297.065 179.875ZM280.607 192.792L281.022 193.701L281.031 193.697L280.607 192.792ZM259.982 197.167V196.167C251.398 196.167 243.296 194.125 235.662 190.035L235.19 190.917L234.718 191.798C242.64 196.042 251.066 198.167 259.982 198.167V197.167ZM235.19 190.917L235.674 190.042C228.059 185.826 221.864 179.773 217.088 171.858L216.232 172.375L215.376 172.892C220.322 181.088 226.766 187.396 234.706 191.792L235.19 190.917ZM216.232 172.375L217.098 171.876C212.481 163.863 210.148 154.182 210.148 142.792H209.148H208.148C208.148 154.457 210.538 164.498 215.365 172.874L216.232 172.375ZM209.148 142.792H210.148V68H209.148H208.148V142.792H209.148ZM209.148 68V69H245.398V68V67H209.148V68ZM245.398 68H244.398V138H245.398H246.398V68H245.398ZM245.398 138H244.398C244.398 145.161 246.552 151.557 250.856 157.151L251.648 156.542L252.441 155.932C248.411 150.693 246.398 144.728 246.398 138H245.398ZM251.648 156.542L250.866 157.164C255.382 162.846 261.658 165.667 269.565 165.667V164.667V163.667C262.195 163.667 256.526 161.07 252.431 155.919L251.648 156.542ZM269.565 164.667V165.667C276.079 165.667 281.872 163.341 286.907 158.738L286.232 158L285.557 157.262C280.869 161.548 275.551 163.667 269.565 163.667V164.667ZM286.232 158L286.908 158.737C292.163 153.919 294.732 147.094 294.732 138.417H293.732H292.732C292.732 146.683 290.3 152.914 285.556 157.263L286.232 158ZM293.732 138.417H294.732V68H293.732H292.732V138.417H293.732ZM293.732 68V69H329.982V68V67H293.732V68ZM329.982 68H328.982V193H329.982H330.982V68H329.982ZM329.982 193V192H297.065V193V194H329.982V193ZM297.065 193H298.065V179.875H297.065H296.065V193H297.065ZM297.065 179.875L296.284 179.25C291.937 184.684 286.574 188.895 280.183 191.886L280.607 192.792L281.031 193.697C287.696 190.578 293.304 186.177 297.846 180.5L297.065 179.875ZM280.607 192.792L280.191 191.882C273.939 194.736 267.207 196.167 259.982 196.167V197.167V198.167C267.479 198.167 274.497 196.68 281.022 193.701L280.607 192.792ZM357.547 193H356.547V194H357.547V193ZM357.547 68V67H356.547V68H357.547ZM390.047 68H391.047V67H390.047V68ZM390.047 89.4583H389.047V93.0886L390.906 89.9704L390.047 89.4583ZM406.297 72.7917L406.809 73.6508L406.814 73.6476L406.297 72.7917ZM429.63 66.75L430.601 66.5104L430.413 65.75H429.63V66.75ZM437.547 98.8333L437.246 99.7869L438.945 100.323L438.518 98.5938L437.547 98.8333ZM403.38 107.792L404.102 108.484L404.109 108.476L403.38 107.792ZM393.797 193V194H394.797V193H393.797ZM357.547 193H358.547V68H357.547H356.547V193H357.547ZM357.547 68V69H390.047V68V67H357.547V68ZM390.047 68H389.047V89.4583H390.047H391.047V68H390.047ZM390.047 89.4583L390.906 89.9704C395.136 82.8754 400.438 77.4458 406.809 73.6508L406.297 72.7917L405.785 71.9326C399.1 75.9153 393.569 81.5968 389.188 88.9463L390.047 89.4583ZM406.297 72.7917L406.814 73.6476C413.304 69.7268 420.897 67.75 429.63 67.75V66.75V65.75C420.585 65.75 412.624 67.801 405.78 71.9357L406.297 72.7917ZM429.63 66.75L428.659 66.9896L436.576 99.0729L437.547 98.8333L438.518 98.5938L430.601 66.5104L429.63 66.75ZM437.547 98.8333L437.848 97.8797C435.094 97.0101 432.004 96.5833 428.589 96.5833V97.5833V98.5833C431.84 98.5833 434.722 98.9899 437.246 99.7869L437.547 98.8333ZM428.589 97.5833V96.5833C417.931 96.5833 409.252 100.076 402.651 107.107L403.38 107.792L404.109 108.476C410.286 101.896 418.413 98.5833 428.589 98.5833V97.5833ZM403.38 107.792L402.658 107.1C396.035 114.01 392.797 123.877 392.797 136.542H393.797H394.797C394.797 124.206 397.947 114.906 404.102 108.484L403.38 107.792ZM393.797 136.542H392.797V193H393.797H394.797V136.542H393.797ZM393.797 193V192H357.547V193V194H393.797V193ZM537.625 190.917L537.234 191.837L537.242 191.84L537.249 191.843L537.625 190.917ZM513.25 175.5L512.279 175.262L512.143 175.816L512.551 176.215L513.25 175.5ZM523.458 133.833L524.326 133.336L523.082 131.168L522.487 133.595L523.458 133.833ZM544.083 155.083L543.544 155.925L543.553 155.931L544.083 155.083ZM589.292 157.167L588.608 156.437L588.602 156.443L588.596 156.448L589.292 157.167ZM592.417 129.875L591.596 130.446L591.604 130.458L591.612 130.469L592.417 129.875ZM584.292 121.958L583.728 122.785L583.737 122.79L583.745 122.796L584.292 121.958ZM576.167 117.167L575.719 118.061L575.73 118.066L575.741 118.071L576.167 117.167ZM554.083 106.125L554.531 105.231L554.083 106.125ZM535.75 94.875L535.144 95.6704L535.15 95.675L535.156 95.6796L535.75 94.875ZM521.375 78.4167L520.5 78.9007L520.504 78.9078L520.508 78.9148L521.375 78.4167ZM523.042 26.5417L522.189 26.0184L522.183 26.0294L523.042 26.5417ZM543.458 8L543.005 7.10842L543.458 8ZM603.875 6.75L603.488 7.6722L603.497 7.67593L603.506 7.67949L603.875 6.75ZM625.125 18L626.098 18.2296L626.249 17.5898L625.722 17.1975L625.125 18ZM615.542 58.625L614.749 59.2347L616.032 60.9024L616.515 58.8546L615.542 58.625ZM595.542 41.3333L595.039 42.1977L595.048 42.203L595.057 42.2082L595.542 41.3333ZM556.792 39.875L556.112 39.1412L556.105 39.1476L556.099 39.1542L556.792 39.875ZM553.458 61.3333L552.584 61.819L552.594 61.8371L552.605 61.8548L553.458 61.3333ZM559.917 68L560.49 67.1808L559.917 68ZM569.708 73.8333L569.248 74.7211L569.256 74.7253L569.264 74.7294L569.708 73.8333ZM592 84.875L591.556 85.7711L591.566 85.776L592 84.875ZM604.292 91.9583L603.743 92.7944L603.752 92.8005L603.762 92.8063L604.292 91.9583ZM617.208 102.583L616.49 103.279L617.208 102.583ZM627.417 118.208L626.499 118.605L626.502 118.613L627.417 118.208ZM623.875 169.042L624.74 169.544L624.743 169.538L623.875 169.042ZM602.625 189.667L603.109 190.541L603.114 190.539L602.625 189.667ZM570.125 197.167V196.167C558.861 196.167 548.156 194.107 538.001 189.99L537.625 190.917L537.249 191.843C547.65 196.06 558.611 198.167 570.125 198.167V197.167ZM537.625 190.917L538.016 189.996C527.96 185.726 519.949 180.649 513.949 174.785L513.25 175.5L512.551 176.215C518.773 182.296 527.012 187.496 537.234 191.837L537.625 190.917ZM513.25 175.5L514.221 175.738L524.43 134.071L523.458 133.833L522.487 133.595L512.279 175.262L513.25 175.5ZM523.458 133.833L522.591 134.331C527.538 142.954 534.531 150.151 543.544 155.925L544.083 155.083L544.623 154.241C535.858 148.626 529.1 141.657 524.326 133.336L523.458 133.833ZM544.083 155.083L543.553 155.931C552.581 161.573 561.859 164.417 571.375 164.417V163.417V162.417C562.28 162.417 553.364 159.704 544.613 154.235L544.083 155.083ZM571.375 163.417V164.417C579.199 164.417 585.448 162.278 589.987 157.885L589.292 157.167L588.596 156.448C584.525 160.388 578.829 162.417 571.375 162.417V163.417ZM589.292 157.167L589.976 157.896C594.617 153.545 596.958 148.213 596.958 141.958H595.958H594.958C594.958 147.648 592.855 152.455 588.608 156.437L589.292 157.167ZM595.958 141.958H596.958C596.958 136.932 595.735 132.683 593.221 129.281L592.417 129.875L591.612 130.469C593.82 133.456 594.958 137.262 594.958 141.958H595.958ZM592.417 129.875L593.238 129.304C590.943 126.006 588.142 123.276 584.838 121.121L584.292 121.958L583.745 122.796C586.83 124.807 589.446 127.355 591.596 130.446L592.417 129.875ZM584.292 121.958L584.855 121.132C581.772 119.03 579.017 117.403 576.592 116.262L576.167 117.167L575.741 118.071C578.039 119.153 580.7 120.72 583.728 122.785L584.292 121.958ZM576.167 117.167L576.614 116.272L554.531 105.231L554.083 106.125L553.636 107.019L575.719 118.061L576.167 117.167ZM554.083 106.125L554.531 105.231C548.194 102.062 542.132 98.3424 536.344 94.0704L535.75 94.875L535.156 95.6796C541.035 100.019 547.195 103.799 553.636 107.019L554.083 106.125ZM535.75 94.875L536.356 94.0796C530.632 89.718 525.928 84.334 522.242 77.9185L521.375 78.4167L520.508 78.9148C524.322 85.5549 529.202 91.1431 535.144 95.6704L535.75 94.875ZM521.375 78.4167L522.25 77.9326C518.741 71.5893 516.958 63.711 516.958 54.25H515.958H514.958C514.958 63.9556 516.787 72.1884 520.5 78.9007L521.375 78.4167ZM515.958 54.25H516.958C516.958 43.8482 519.283 34.7943 523.901 27.0539L523.042 26.5417L522.183 26.0294C517.355 34.1223 514.958 43.5407 514.958 54.25H515.958ZM523.042 26.5417L523.894 27.0649C528.653 19.3145 535.316 13.2574 543.911 8.89158L543.458 8L543.005 7.10842C534.101 11.6315 527.153 17.9355 522.19 26.0184L523.042 26.5417ZM543.458 8L543.911 8.89158C552.495 4.53146 562.612 2.33333 574.292 2.33333V1.33333V0.333328C562.36 0.333328 551.922 2.57964 543.005 7.10842L543.458 8ZM574.292 1.33333V2.33333C585.295 2.33333 595.021 4.12122 603.488 7.6722L603.875 6.75L604.262 5.8278C595.507 2.15656 585.511 0.333328 574.292 0.333328V1.33333ZM603.875 6.75L603.506 7.67949C612.204 11.1311 619.203 14.8428 624.528 18.8025L625.125 18L625.722 17.1975C620.214 13.1017 613.046 9.3133 604.244 5.82051L603.875 6.75ZM625.125 18L624.152 17.7704L614.568 58.3954L615.542 58.625L616.515 58.8546L626.098 18.2296L625.125 18ZM615.542 58.625L616.334 58.0153C610.697 50.6873 603.927 44.832 596.026 40.4584L595.542 41.3333L595.057 42.2082C602.712 46.4458 609.275 52.1183 614.749 59.2347L615.542 58.625ZM595.542 41.3333L596.045 40.469C588.277 35.9498 580.467 33.6667 572.625 33.6667V34.6667V35.6667C580.061 35.6667 587.528 37.828 595.039 42.1977L595.542 41.3333ZM572.625 34.6667V33.6667C565.653 33.6667 560.101 35.4476 556.112 39.1412L556.792 39.875L557.471 40.6087C560.982 37.358 565.986 35.6667 572.625 35.6667V34.6667ZM556.792 39.875L556.099 39.1542C552.286 42.8203 550.375 47.3887 550.375 52.7917H551.375H552.375C552.375 47.9169 554.075 43.8741 557.485 40.5958L556.792 39.875ZM551.375 52.7917H550.375C550.375 56.1358 551.103 59.1537 552.584 61.819L553.458 61.3333L554.333 60.8477C553.035 58.513 552.375 55.8364 552.375 52.7917H551.375ZM553.458 61.3333L552.605 61.8548C554.215 64.4893 556.47 66.8082 559.343 68.8192L559.917 68L560.49 67.1808C557.808 65.3029 555.757 63.1774 554.312 60.8119L553.458 61.3333ZM559.917 68L559.343 68.8192C562.165 70.7942 565.468 72.761 569.248 74.7211L569.708 73.8333L570.169 72.9456C566.449 71.0167 563.224 69.0946 560.49 67.1808L559.917 68ZM569.708 73.8333L569.264 74.7294L591.556 85.7711L592 84.875L592.444 83.9789L570.152 72.9372L569.708 73.8333ZM592 84.875L591.566 85.776C595.267 87.5581 599.326 89.8956 603.743 92.7944L604.292 91.9583L604.84 91.1223C600.369 88.1877 596.233 85.803 592.434 83.974L592 84.875ZM604.292 91.9583L603.762 92.8063C608.128 95.5355 612.372 99.0234 616.49 103.279L617.208 102.583L617.927 101.888C613.712 97.5322 609.344 93.9367 604.822 91.1103L604.292 91.9583ZM617.208 102.583L616.49 103.279C620.564 107.488 623.902 112.592 626.499 118.605L627.417 118.208L628.335 117.812C625.653 111.602 622.186 106.289 617.927 101.888L617.208 102.583ZM627.417 118.208L626.502 118.613C629.071 124.427 630.375 131.436 630.375 139.667H631.375H632.375C632.375 131.231 631.04 123.934 628.331 117.804L627.417 118.208ZM631.375 139.667H630.375C630.375 150.339 627.914 159.958 623.007 168.546L623.875 169.042L624.743 169.538C629.836 160.625 632.375 150.661 632.375 139.667H631.375ZM623.875 169.042L623.01 168.54C618.105 176.987 611.156 183.738 602.136 188.794L602.625 189.667L603.114 190.539C612.428 185.318 619.645 178.318 624.74 169.544L623.875 169.042ZM602.625 189.667L602.141 188.792C593.291 193.693 582.632 196.167 570.125 196.167V197.167V198.167C582.896 198.167 593.904 195.64 603.109 190.541L602.625 189.667ZM680.861 188.417L680.382 189.295L680.861 188.417ZM655.861 164.458L654.996 164.961L654.999 164.966L655.861 164.458ZM655.652 95.7083L656.51 96.2228L656.513 96.2175L655.652 95.7083ZM679.194 72.375L678.699 71.506L678.694 71.509L679.194 72.375ZM745.444 72.375L744.939 73.2379L744.948 73.2432L745.444 72.375ZM768.361 95.2917L767.492 95.7878L767.498 95.7971L768.361 95.2917ZM776.902 141.125V142.125H777.902V141.125H776.902ZM690.652 140.5L690.523 141.492L690.652 140.5ZM681.069 139.042L681.24 138.056L679.802 137.806L680.088 139.238L681.069 139.042ZM693.361 159.458L692.732 160.236L692.741 160.243L692.75 160.25L693.361 159.458ZM740.027 162.375L739.58 161.481L739.572 161.485L740.027 162.375ZM755.652 150.5L756.624 150.263L756.161 148.363L754.892 149.851L755.652 150.5ZM763.569 183L764.172 183.798L764.696 183.402L764.541 182.763L763.569 183ZM742.319 193.625L742.033 192.667L742.029 192.668L742.319 193.625ZM680.236 117.167L679.275 116.887L678.805 118.505L680.451 118.143L680.236 117.167ZM733.777 115.292L733.698 116.288L733.777 115.292ZM743.569 116.75L743.347 117.725L744.981 118.096L744.533 116.482L743.569 116.75ZM732.111 99.0417L731.488 99.8245L731.498 99.8321L732.111 99.0417ZM691.902 99.25L692.515 100.04L692.518 100.038L691.902 99.25ZM717.944 197.167V196.167C704.058 196.167 691.866 193.281 681.34 187.539L680.861 188.417L680.382 189.295C691.244 195.219 703.774 198.167 717.944 198.167V197.167ZM680.861 188.417L681.34 187.539C670.798 181.789 662.599 173.928 656.722 163.951L655.861 164.458L654.999 164.966C661.066 175.266 669.534 183.378 680.382 189.295L680.861 188.417ZM655.861 164.458L656.725 163.956C650.851 153.847 647.902 142.288 647.902 129.25H646.902H645.902C645.902 142.601 648.926 154.514 654.996 164.961L655.861 164.458ZM646.902 129.25H647.902C647.902 116.771 650.78 105.772 656.51 96.2228L655.652 95.7083L654.795 95.1938C648.858 105.089 645.902 116.451 645.902 129.25H646.902ZM655.652 95.7083L656.513 96.2175C662.259 86.5034 669.983 78.8489 679.694 73.241L679.194 72.375L678.694 71.509C668.683 77.29 660.712 85.1911 654.792 95.1992L655.652 95.7083ZM679.194 72.375L679.689 73.244C689.53 67.6398 700.4 64.8333 712.319 64.8333V63.8333V62.8333C700.071 62.8333 688.858 65.7213 678.699 71.506L679.194 72.375ZM712.319 63.8333V64.8333C724.52 64.8333 735.384 67.6418 744.939 73.2379L745.444 72.375L745.949 71.5121C736.059 65.7193 724.84 62.8333 712.319 62.8333V63.8333ZM745.444 72.375L744.948 73.2432C754.515 78.7102 762.025 86.2206 767.492 95.7878L768.361 95.2917L769.229 94.7955C763.585 84.9183 755.817 77.1509 745.94 71.5068L745.444 72.375ZM768.361 95.2917L767.498 95.7971C773.094 105.351 775.902 116.215 775.902 128.417H776.902H777.902C777.902 115.896 775.016 104.676 769.224 94.7863L768.361 95.2917ZM776.902 128.417H775.902V141.125H776.902H777.902V128.417H776.902ZM776.902 141.125V140.125H700.652V141.125V142.125H776.902V141.125ZM700.652 141.125V140.125C697.22 140.125 693.93 139.919 690.782 139.508L690.652 140.5L690.523 141.492C693.763 141.914 697.14 142.125 700.652 142.125V141.125ZM690.652 140.5L690.782 139.508C687.601 139.094 684.421 138.61 681.24 138.056L681.069 139.042L680.898 140.027C684.106 140.585 687.314 141.073 690.523 141.492L690.652 140.5ZM681.069 139.042L680.088 139.238C681.8 147.797 686.02 154.809 692.732 160.236L693.361 159.458L693.989 158.681C687.646 153.552 683.671 146.953 682.05 138.846L681.069 139.042ZM693.361 159.458L692.75 160.25C699.628 165.552 708.329 168.167 718.777 168.167V167.167V166.167C708.67 166.167 700.427 163.643 693.971 158.666L693.361 159.458ZM718.777 167.167V168.167C726.832 168.167 734.074 166.541 740.482 163.265L740.027 162.375L739.572 161.485C733.48 164.598 726.556 166.167 718.777 166.167V167.167ZM740.027 162.375L740.475 163.269C746.965 160.024 752.286 155.987 756.413 151.149L755.652 150.5L754.892 149.851C750.963 154.457 745.867 158.337 739.58 161.481L740.027 162.375ZM755.652 150.5L754.681 150.737L762.597 183.237L763.569 183L764.541 182.763L756.624 150.263L755.652 150.5ZM763.569 183L762.966 182.202C756.817 186.849 749.842 190.338 742.033 192.667L742.319 193.625L742.605 194.583C750.63 192.19 757.821 188.596 764.172 183.798L763.569 183ZM742.319 193.625L742.029 192.668C734.349 194.999 726.322 196.167 717.944 196.167V197.167V198.167C726.51 198.167 734.734 196.973 742.609 194.582L742.319 193.625ZM680.236 117.167L680.451 118.143C687.329 116.63 694.063 115.875 700.652 115.875V114.875V113.875C693.909 113.875 687.031 114.648 680.021 116.19L680.236 117.167ZM700.652 114.875V115.875H722.736V114.875V113.875H700.652V114.875ZM722.736 114.875V115.875C726.601 115.875 730.255 116.013 733.698 116.288L733.777 115.292L733.857 114.295C730.355 114.015 726.648 113.875 722.736 113.875V114.875ZM733.777 115.292L733.698 116.288C737.127 116.563 740.343 117.042 743.347 117.725L743.569 116.75L743.791 115.775C740.684 115.069 737.372 114.576 733.857 114.295L733.777 115.292ZM743.569 116.75L744.533 116.482C742.398 108.798 738.467 102.703 732.723 98.2513L732.111 99.0417L731.498 99.8321C736.865 103.992 740.573 109.702 742.605 117.018L743.569 116.75ZM732.111 99.0417L732.733 98.2588C727.111 93.7903 720.145 91.5833 711.902 91.5833V92.5833V93.5833C719.771 93.5833 726.277 95.6819 731.488 99.8245L732.111 99.0417ZM711.902 92.5833V91.5833C704.054 91.5833 697.168 93.8718 691.287 98.4617L691.902 99.25L692.518 100.038C698.026 95.7393 704.473 93.5833 711.902 93.5833V92.5833ZM691.902 99.25L691.29 98.4596C685.546 102.911 681.549 109.074 679.275 116.887L680.236 117.167L681.196 117.446C683.367 109.982 687.148 104.2 692.515 100.04L691.902 99.25ZM797 193H796V194H797V193ZM797 68V67H796V68H797ZM829.5 68H830.5V67H829.5V68ZM829.5 89.4583H828.5V93.0886L830.359 89.9704L829.5 89.4583ZM845.75 72.7917L846.262 73.6508L846.267 73.6476L845.75 72.7917ZM869.083 66.75L870.054 66.5104L869.867 65.75H869.083V66.75ZM877 98.8333L876.699 99.7869L878.398 100.323L877.971 98.5938L877 98.8333ZM842.833 107.792L843.555 108.484L843.562 108.476L842.833 107.792ZM833.25 193V194H834.25V193H833.25ZM797 193H798V68H797H796V193H797ZM797 68V69H829.5V68V67H797V68ZM829.5 68H828.5V89.4583H829.5H830.5V68H829.5ZM829.5 89.4583L830.359 89.9704C834.589 82.8754 839.892 77.4458 846.262 73.6508L845.75 72.7917L845.238 71.9326C838.553 75.9153 833.022 81.5968 828.641 88.9463L829.5 89.4583ZM845.75 72.7917L846.267 73.6476C852.757 69.7268 860.35 67.75 869.083 67.75V66.75V65.75C860.038 65.75 852.077 67.801 845.233 71.9357L845.75 72.7917ZM869.083 66.75L868.112 66.9896L876.029 99.0729L877 98.8333L877.971 98.5938L870.054 66.5104L869.083 66.75ZM877 98.8333L877.301 97.8797C874.547 97.0101 871.457 96.5833 868.042 96.5833V97.5833V98.5833C871.293 98.5833 874.175 98.9899 876.699 99.7869L877 98.8333ZM868.042 97.5833V96.5833C857.384 96.5833 848.705 100.076 842.104 107.107L842.833 107.792L843.562 108.476C849.739 101.896 857.866 98.5833 868.042 98.5833V97.5833ZM842.833 107.792L842.111 107.1C835.489 114.01 832.25 123.877 832.25 136.542H833.25H834.25C834.25 124.206 837.4 114.906 843.555 108.484L842.833 107.792ZM833.25 136.542H832.25V193H833.25H834.25V136.542H833.25ZM833.25 193V192H797V193V194H833.25V193ZM948.842 199.25L947.956 199.713L948.842 201.41L949.729 199.713L948.842 199.25ZM880.301 68V67H878.65L879.414 68.4629L880.301 68ZM920.509 68L921.408 67.5621L921.134 67H920.509V68ZM940.092 108.208L939.193 108.646L939.199 108.658L939.205 108.67L940.092 108.208ZM945.092 118.625L944.177 119.028L944.18 119.035L944.183 119.042L945.092 118.625ZM949.676 130.083L948.733 130.418L949.676 133.074L950.618 130.418L949.676 130.083ZM954.259 118.625L955.168 119.042L955.171 119.035L955.174 119.028L954.259 118.625ZM959.259 108.208L960.146 108.67L960.152 108.658L960.158 108.646L959.259 108.208ZM978.842 68V67H978.217L977.943 67.5621L978.842 68ZM1017.38 68L1018.27 68.4629L1019.03 67H1017.38V68ZM948.842 199.25L949.729 198.787L881.187 67.5371L880.301 68L879.414 68.4629L947.956 199.713L948.842 199.25ZM880.301 68V69H920.509V68V67H880.301V68ZM920.509 68L919.61 68.4379L939.193 108.646L940.092 108.208L940.992 107.77L921.408 67.5621L920.509 68ZM940.092 108.208L939.205 108.67C941.001 112.123 942.658 115.576 944.177 119.028L945.092 118.625L946.008 118.222C944.471 114.73 942.795 111.238 940.98 107.747L940.092 108.208ZM945.092 118.625L944.183 119.042C945.696 122.342 947.213 126.134 948.733 130.418L949.676 130.083L950.618 129.749C949.083 125.422 947.544 121.574 946.002 118.208L945.092 118.625ZM949.676 130.083L950.618 130.418C952.138 126.134 953.655 122.342 955.168 119.042L954.259 118.625L953.35 118.208C951.807 121.574 950.269 125.422 948.733 129.749L949.676 130.083ZM954.259 118.625L955.174 119.028C956.693 115.576 958.35 112.123 960.146 108.67L959.259 108.208L958.372 107.747C956.557 111.238 954.881 114.73 953.344 118.222L954.259 118.625ZM959.259 108.208L960.158 108.646L979.741 68.4379L978.842 68L977.943 67.5621L958.36 107.77L959.259 108.208ZM978.842 68V69H1017.38V68V67H978.842V68ZM1017.38 68L1016.5 67.5371L947.956 198.787L948.842 199.25L949.729 199.713L1018.27 68.4629L1017.38 68ZM1032.67 193H1031.67V194H1032.67V193ZM1032.67 68V67H1031.67V68H1032.67ZM1068.92 68H1069.92V67H1068.92V68ZM1068.92 193V194H1069.92V193H1068.92ZM1037.05 44.25L1036.34 44.9571L1037.05 44.25ZM1037.05 16.75L1037.74 17.4703L1037.75 17.4638L1037.75 17.4571L1037.05 16.75ZM1064.55 16.75L1063.83 17.4436L1063.84 17.4572L1063.85 17.4703L1064.55 16.75ZM1064.55 44.25L1063.84 43.5429L1063.83 43.5496L1063.83 43.5564L1064.55 44.25ZM1032.67 193H1033.67V68H1032.67H1031.67V193H1032.67ZM1032.67 68V69H1068.92V68V67H1032.67V68ZM1068.92 68H1067.92V193H1068.92H1069.92V68H1068.92ZM1068.92 193V192H1032.67V193V194H1068.92V193ZM1050.8 49.875V48.875C1045.64 48.875 1041.31 47.1009 1037.75 43.5429L1037.05 44.25L1036.34 44.9571C1040.28 48.8991 1045.12 50.875 1050.8 50.875V49.875ZM1037.05 44.25L1037.75 43.5429C1034.19 39.9849 1032.42 35.6578 1032.42 30.5H1031.42H1030.42C1030.42 36.1755 1032.4 41.0151 1036.34 44.9571L1037.05 44.25ZM1031.42 30.5H1032.42C1032.42 25.1959 1034.2 20.8793 1037.74 17.4703L1037.05 16.75L1036.35 16.0297C1032.39 19.8429 1030.42 24.693 1030.42 30.5H1031.42ZM1037.05 16.75L1037.75 17.4571C1041.31 13.8991 1045.64 12.125 1050.8 12.125V11.125V10.125C1045.12 10.125 1040.28 12.1009 1036.34 16.0429L1037.05 16.75ZM1050.8 11.125V12.125C1056.1 12.125 1060.42 13.9036 1063.83 17.4436L1064.55 16.75L1065.27 16.0563C1061.45 12.0964 1056.6 10.125 1050.8 10.125V11.125ZM1064.55 16.75L1063.85 17.4703C1067.39 20.8793 1069.17 25.1959 1069.17 30.5H1070.17H1071.17C1071.17 24.693 1069.2 19.8429 1065.24 16.0297L1064.55 16.75ZM1070.17 30.5H1069.17C1069.17 35.6578 1067.4 39.9849 1063.84 43.5429L1064.55 44.25L1065.25 44.9571C1069.19 41.0151 1071.17 36.1755 1071.17 30.5H1070.17ZM1064.55 44.25L1063.83 43.5564C1060.42 47.0964 1056.1 48.875 1050.8 48.875V49.875V50.875C1056.6 50.875 1061.45 48.9036 1065.27 44.9436L1064.55 44.25ZM1124 188.208L1124.5 187.344L1124 188.208ZM1099.42 164.042L1098.55 164.549L1098.56 164.558L1099.42 164.042ZM1099.42 96.9583L1098.56 96.4421L1098.56 96.4456L1099.42 96.9583ZM1124 72.7917L1123.5 71.927L1124 72.7917ZM1182.33 68.2083L1181.98 69.1425L1181.99 69.1464L1182 69.1501L1182.33 68.2083ZM1202.96 80.7083L1203.93 80.9547L1204.07 80.38L1203.64 79.9761L1202.96 80.7083ZM1193.58 117.583L1192.73 118.104L1193.97 120.133L1194.55 117.83L1193.58 117.583ZM1179.62 102.792L1179.02 103.589L1179.03 103.598L1179.04 103.605L1179.62 102.792ZM1129.83 113.208L1130.7 113.702L1129.83 113.208ZM1129.83 147.792L1128.96 148.275L1128.96 148.285L1129.83 147.792ZM1141.92 160.083L1142.43 159.224L1141.92 160.083ZM1179.62 158.417L1180.21 159.224L1180.22 159.221L1179.62 158.417ZM1193.58 143.417L1194.55 143.17L1193.97 140.867L1192.73 142.896L1193.58 143.417ZM1202.96 180.292L1203.64 181.024L1204.07 180.62L1203.93 180.045L1202.96 180.292ZM1182.33 193L1182.67 193.94L1182.68 193.936L1182.33 193ZM1157.96 197.167V196.167C1145.77 196.167 1134.62 193.224 1124.5 187.344L1124 188.208L1123.5 189.073C1133.93 195.137 1145.43 198.167 1157.96 198.167V197.167ZM1124 188.208L1124.5 187.344C1114.37 181.456 1106.3 173.52 1100.27 163.525L1099.42 164.042L1098.56 164.558C1104.76 174.841 1113.07 183.017 1123.5 189.073L1124 188.208ZM1099.42 164.042L1100.28 163.534C1094.4 153.555 1091.46 142.551 1091.46 130.5H1090.46H1089.46C1089.46 142.894 1092.49 154.25 1098.55 164.549L1099.42 164.042ZM1090.46 130.5H1091.46C1091.46 118.308 1094.4 107.306 1100.27 97.4711L1099.42 96.9583L1098.56 96.4456C1092.49 106.61 1089.46 117.97 1089.46 130.5H1090.46ZM1099.42 96.9583L1100.27 97.4745C1106.3 87.4803 1114.37 79.5444 1124.5 73.6563L1124 72.7917L1123.5 71.927C1113.07 77.9834 1104.76 86.1585 1098.56 96.4421L1099.42 96.9583ZM1124 72.7917L1124.5 73.6563C1134.62 67.7764 1145.77 64.8333 1157.96 64.8333V63.8333V62.8333C1145.43 62.8333 1133.93 65.8625 1123.5 71.927L1124 72.7917ZM1157.96 63.8333V64.8333C1166.45 64.8333 1174.46 66.2717 1181.98 69.1425L1182.33 68.2083L1182.69 67.2741C1174.93 64.3117 1166.68 62.8333 1157.96 62.8333V63.8333ZM1182.33 68.2083L1182 69.1501C1189.65 71.8827 1196.4 75.9787 1202.28 81.4405L1202.96 80.7083L1203.64 79.9761C1197.57 74.3269 1190.57 70.0895 1182.67 67.2666L1182.33 68.2083ZM1202.96 80.7083L1201.99 80.4619L1192.61 117.337L1193.58 117.583L1194.55 117.83L1203.93 80.9547L1202.96 80.7083ZM1193.58 117.583L1194.44 117.063C1190.89 111.245 1186.14 106.217 1180.2 101.978L1179.62 102.792L1179.04 103.605C1184.77 107.7 1189.33 112.533 1192.73 118.104L1193.58 117.583ZM1179.62 102.792L1180.23 101.994C1174.34 97.5452 1167.39 95.3333 1159.42 95.3333V96.3333V97.3333C1167 97.3333 1173.52 99.427 1179.02 103.589L1179.62 102.792ZM1159.42 96.3333V95.3333C1152.72 95.3333 1146.71 96.9013 1141.4 100.057L1141.92 100.917L1142.43 101.776C1147.4 98.8209 1153.05 97.3333 1159.42 97.3333V96.3333ZM1141.92 100.917L1141.4 100.057C1136.12 103.2 1131.97 107.423 1128.96 112.715L1129.83 113.208L1130.7 113.702C1133.53 108.716 1137.43 104.744 1142.43 101.776L1141.92 100.917ZM1129.83 113.208L1128.96 112.715C1125.95 118.016 1124.46 123.953 1124.46 130.5H1125.46H1126.46C1126.46 124.27 1127.88 118.678 1130.7 113.702L1129.83 113.208ZM1125.46 130.5H1124.46C1124.46 136.913 1125.96 142.844 1128.96 148.275L1129.83 147.792L1130.71 147.308C1127.88 142.184 1126.46 136.587 1126.46 130.5H1125.46ZM1129.83 147.792L1128.96 148.285C1131.97 153.577 1136.12 157.8 1141.4 160.943L1141.92 160.083L1142.43 159.224C1137.43 156.256 1133.53 152.284 1130.7 147.298L1129.83 147.792ZM1141.92 160.083L1141.4 160.943C1146.71 164.099 1152.72 165.667 1159.42 165.667V164.667V163.667C1153.05 163.667 1147.4 162.179 1142.43 159.224L1141.92 160.083ZM1159.42 164.667V165.667C1167.38 165.667 1174.33 163.529 1180.21 159.224L1179.62 158.417L1179.03 157.61C1173.53 161.638 1167 163.667 1159.42 163.667V164.667ZM1179.62 158.417L1180.22 159.221C1186.15 154.845 1190.89 149.752 1194.44 143.937L1193.58 143.417L1192.73 142.896C1189.33 148.471 1184.77 153.377 1179.03 157.612L1179.62 158.417ZM1193.58 143.417L1192.61 143.663L1201.99 180.538L1202.96 180.292L1203.93 180.045L1194.55 143.17L1193.58 143.417ZM1202.96 180.292L1202.28 179.559C1196.4 185.024 1189.64 189.192 1181.98 192.064L1182.33 193L1182.68 193.936C1190.58 190.975 1197.57 186.67 1203.64 181.024L1202.96 180.292ZM1182.33 193L1181.99 192.06C1174.47 194.796 1166.46 196.167 1157.96 196.167V197.167V198.167C1166.68 198.167 1174.92 196.76 1182.67 193.94L1182.33 193ZM1249.51 188.417L1249.03 189.295L1249.51 188.417ZM1224.51 164.458L1223.65 164.961L1223.65 164.966L1224.51 164.458ZM1224.3 95.7083L1225.16 96.2228L1225.17 96.2175L1224.3 95.7083ZM1247.85 72.375L1247.35 71.506L1247.35 71.509L1247.85 72.375ZM1314.1 72.375L1313.59 73.2379L1313.6 73.2432L1314.1 72.375ZM1337.01 95.2917L1336.14 95.7878L1336.15 95.7971L1337.01 95.2917ZM1345.55 141.125V142.125H1346.55V141.125H1345.55ZM1259.3 140.5L1259.18 141.492L1259.3 140.5ZM1249.72 139.042L1249.89 138.056L1248.45 137.806L1248.74 139.238L1249.72 139.042ZM1262.01 159.458L1261.38 160.236L1261.39 160.243L1261.4 160.25L1262.01 159.458ZM1308.68 162.375L1308.23 161.481L1308.22 161.485L1308.68 162.375ZM1324.3 150.5L1325.28 150.263L1324.81 148.363L1323.54 149.851L1324.3 150.5ZM1332.22 183L1332.82 183.798L1333.35 183.402L1333.19 182.763L1332.22 183ZM1310.97 193.625L1310.69 192.667L1310.68 192.668L1310.97 193.625ZM1248.89 117.167L1247.93 116.887L1247.46 118.505L1249.1 118.143L1248.89 117.167ZM1302.43 115.292L1302.35 116.288L1302.43 115.292ZM1312.22 116.75L1312 117.725L1313.63 118.096L1313.18 116.482L1312.22 116.75ZM1300.76 99.0417L1300.14 99.8245L1300.15 99.8321L1300.76 99.0417ZM1260.55 99.25L1261.17 100.04L1261.17 100.038L1260.55 99.25ZM1286.6 197.167V196.167C1272.71 196.167 1260.52 193.281 1249.99 187.539L1249.51 188.417L1249.03 189.295C1259.9 195.219 1272.43 198.167 1286.6 198.167V197.167ZM1249.51 188.417L1249.99 187.539C1239.45 181.789 1231.25 173.928 1225.37 163.951L1224.51 164.458L1223.65 164.966C1229.72 175.266 1238.19 183.378 1249.03 189.295L1249.51 188.417ZM1224.51 164.458L1225.38 163.956C1219.5 153.847 1216.55 142.288 1216.55 129.25H1215.55H1214.55C1214.55 142.601 1217.58 154.514 1223.65 164.961L1224.51 164.458ZM1215.55 129.25H1216.55C1216.55 116.771 1219.43 105.772 1225.16 96.2228L1224.3 95.7083L1223.45 95.1938C1217.51 105.089 1214.55 116.451 1214.55 129.25H1215.55ZM1224.3 95.7083L1225.17 96.2175C1230.91 86.5034 1238.64 78.8489 1248.35 73.241L1247.85 72.375L1247.35 71.509C1237.34 77.29 1229.36 85.1911 1223.44 95.1992L1224.3 95.7083ZM1247.85 72.375L1248.34 73.244C1258.18 67.6398 1269.05 64.8333 1280.97 64.8333V63.8333V62.8333C1268.72 62.8333 1257.51 65.7213 1247.35 71.506L1247.85 72.375ZM1280.97 63.8333V64.8333C1293.17 64.8333 1304.04 67.6418 1313.59 73.2379L1314.1 72.375L1314.6 71.5121C1304.71 65.7193 1293.49 62.8333 1280.97 62.8333V63.8333ZM1314.1 72.375L1313.6 73.2432C1323.17 78.7102 1330.68 86.2206 1336.14 95.7878L1337.01 95.2917L1337.88 94.7955C1332.24 84.9183 1324.47 77.1509 1314.59 71.5068L1314.1 72.375ZM1337.01 95.2917L1336.15 95.7971C1341.75 105.351 1344.55 116.215 1344.55 128.417H1345.55H1346.55C1346.55 115.896 1343.67 104.676 1337.88 94.7863L1337.01 95.2917ZM1345.55 128.417H1344.55V141.125H1345.55H1346.55V128.417H1345.55ZM1345.55 141.125V140.125H1269.3V141.125V142.125H1345.55V141.125ZM1269.3 141.125V140.125C1265.87 140.125 1262.58 139.919 1259.43 139.508L1259.3 140.5L1259.18 141.492C1262.42 141.914 1265.79 142.125 1269.3 142.125V141.125ZM1259.3 140.5L1259.43 139.508C1256.25 139.094 1253.07 138.61 1249.89 138.056L1249.72 139.042L1249.55 140.027C1252.76 140.585 1255.97 141.073 1259.18 141.492L1259.3 140.5ZM1249.72 139.042L1248.74 139.238C1250.45 147.797 1254.67 154.809 1261.38 160.236L1262.01 159.458L1262.64 158.681C1256.3 153.552 1252.32 146.953 1250.7 138.846L1249.72 139.042ZM1262.01 159.458L1261.4 160.25C1268.28 165.552 1276.98 168.167 1287.43 168.167V167.167V166.167C1277.32 166.167 1269.08 163.643 1262.62 158.666L1262.01 159.458ZM1287.43 167.167V168.167C1295.48 168.167 1302.73 166.541 1309.13 163.265L1308.68 162.375L1308.22 161.485C1302.13 164.598 1295.21 166.167 1287.43 166.167V167.167ZM1308.68 162.375L1309.13 163.269C1315.62 160.024 1320.94 155.987 1325.07 151.149L1324.3 150.5L1323.54 149.851C1319.62 154.457 1314.52 158.337 1308.23 161.481L1308.68 162.375ZM1324.3 150.5L1323.33 150.737L1331.25 183.237L1332.22 183L1333.19 182.763L1325.28 150.263L1324.3 150.5ZM1332.22 183L1331.62 182.202C1325.47 186.849 1318.49 190.338 1310.69 192.667L1310.97 193.625L1311.26 194.583C1319.28 192.19 1326.47 188.596 1332.82 183.798L1332.22 183ZM1310.97 193.625L1310.68 192.668C1303 194.999 1294.97 196.167 1286.6 196.167V197.167V198.167C1295.16 198.167 1303.39 196.973 1311.26 194.582L1310.97 193.625ZM1248.89 117.167L1249.1 118.143C1255.98 116.63 1262.71 115.875 1269.3 115.875V114.875V113.875C1262.56 113.875 1255.68 114.648 1248.67 116.19L1248.89 117.167ZM1269.3 114.875V115.875H1291.39V114.875V113.875H1269.3V114.875ZM1291.39 114.875V115.875C1295.25 115.875 1298.91 116.013 1302.35 116.288L1302.43 115.292L1302.51 114.295C1299.01 114.015 1295.3 113.875 1291.39 113.875V114.875ZM1302.43 115.292L1302.35 116.288C1305.78 116.563 1309 117.042 1312 117.725L1312.22 116.75L1312.44 115.775C1309.34 115.069 1306.02 114.576 1302.51 114.295L1302.43 115.292ZM1312.22 116.75L1313.18 116.482C1311.05 108.798 1307.12 102.703 1301.38 98.2513L1300.76 99.0417L1300.15 99.8321C1305.52 103.992 1309.23 109.702 1311.26 117.018L1312.22 116.75ZM1300.76 99.0417L1301.39 98.2588C1295.76 93.7903 1288.8 91.5833 1280.55 91.5833V92.5833V93.5833C1288.42 93.5833 1294.93 95.6819 1300.14 99.8245L1300.76 99.0417ZM1280.55 92.5833V91.5833C1272.71 91.5833 1265.82 93.8718 1259.94 98.4617L1260.55 99.25L1261.17 100.038C1266.68 95.7393 1273.12 93.5833 1280.55 93.5833V92.5833ZM1260.55 99.25L1259.94 98.4596C1254.2 102.911 1250.2 109.074 1247.93 116.887L1248.89 117.167L1249.85 117.446C1252.02 109.982 1255.8 104.2 1261.17 100.04L1260.55 99.25ZM1380.86 193L1380.55 193.952L1380.56 193.953L1380.86 193ZM1360.65 181.75L1359.69 181.496L1359.54 182.061L1359.96 182.467L1360.65 181.75ZM1369.61 147.583L1370.42 146.996L1369.18 145.285L1368.64 147.33L1369.61 147.583ZM1386.28 162.167L1385.77 163.029L1385.78 163.033L1386.28 162.167ZM1419.61 165.5L1418.97 164.728L1418.96 164.738L1418.95 164.747L1419.61 165.5ZM1419.61 151.542L1419.07 152.381L1419.09 152.393L1419.1 152.404L1419.61 151.542ZM1412.32 147.792L1412.68 146.86L1412.68 146.857L1412.32 147.792ZM1394.82 141.125L1394.45 142.056L1394.46 142.059L1394.82 141.125ZM1381.49 134.875L1381.95 133.991L1381.49 134.875ZM1368.36 123.625L1367.56 124.221L1367.56 124.229L1367.57 124.236L1368.36 123.625ZM1368.36 84.4583L1369.22 84.9671L1368.36 84.4583ZM1383.99 69.6667L1384.47 70.5425L1384.47 70.5392L1383.99 69.6667ZM1434.19 68.4167L1433.83 69.3474L1433.83 69.3496L1434.19 68.4167ZM1451.49 78.625L1452.46 78.8704L1452.59 78.3317L1452.21 77.9314L1451.49 78.625ZM1443.15 111.542L1442.36 112.153L1443.62 113.779L1444.12 111.787L1443.15 111.542ZM1426.28 97.5833L1425.81 98.4699L1425.83 98.4759L1425.84 98.4816L1426.28 97.5833ZM1397.11 106.958L1396.32 107.568L1396.34 107.602L1396.37 107.634L1397.11 106.958ZM1404.61 111.542L1404.24 112.47L1404.25 112.475L1404.26 112.479L1404.61 111.542ZM1420.86 117.583L1420.51 118.521L1420.52 118.524L1420.53 118.526L1420.86 117.583ZM1435.86 124.25L1435.39 125.135L1435.4 125.14L1435.86 124.25ZM1449.61 135.917L1448.81 136.517L1448.82 136.527L1449.61 135.917ZM1441.69 185.708L1441.05 184.945L1441.04 184.95L1441.69 185.708ZM1406.69 197.167V196.167C1398.33 196.167 1389.82 194.796 1381.16 192.047L1380.86 193L1380.56 193.953C1389.4 196.759 1398.11 198.167 1406.69 198.167V197.167ZM1380.86 193L1381.17 192.048C1372.66 189.303 1366.07 185.618 1361.35 181.033L1360.65 181.75L1359.96 182.467C1364.96 187.326 1371.84 191.142 1380.55 193.952L1380.86 193ZM1360.65 181.75L1361.62 182.004L1370.58 147.837L1369.61 147.583L1368.64 147.33L1359.69 181.496L1360.65 181.75ZM1369.61 147.583L1368.8 148.17C1372.92 153.857 1378.59 158.806 1385.77 163.029L1386.28 162.167L1386.78 161.305C1379.8 157.194 1374.35 152.421 1370.42 146.996L1369.61 147.583ZM1386.28 162.167L1385.78 163.033C1393.14 167.279 1400.74 169.417 1408.57 169.417V168.417V167.417C1401.12 167.417 1393.86 165.388 1386.78 161.3L1386.28 162.167ZM1408.57 168.417V169.417C1413.79 169.417 1417.77 168.438 1420.27 166.253L1419.61 165.5L1418.95 164.747C1417.01 166.45 1413.63 167.417 1408.57 167.417V168.417ZM1419.61 165.5L1420.25 166.272C1422.81 164.159 1424.15 161.526 1424.15 158.417H1423.15H1422.15C1422.15 160.863 1421.13 162.952 1418.97 164.728L1419.61 165.5ZM1423.15 158.417H1424.15C1424.15 154.938 1422.84 152.281 1420.12 150.68L1419.61 151.542L1419.1 152.404C1421.1 153.58 1422.15 155.507 1422.15 158.417H1423.15ZM1419.61 151.542L1420.15 150.702C1417.74 149.139 1415.25 147.858 1412.68 146.86L1412.32 147.792L1411.96 148.724C1414.39 149.67 1416.76 150.889 1419.07 152.381L1419.61 151.542ZM1412.32 147.792L1412.68 146.857L1395.18 140.191L1394.82 141.125L1394.46 142.059L1411.96 148.726L1412.32 147.792ZM1394.82 141.125L1395.18 140.194C1391.34 138.684 1386.93 136.618 1381.95 133.991L1381.49 134.875L1381.02 135.759C1386.04 138.41 1390.52 140.511 1394.45 142.056L1394.82 141.125ZM1381.49 134.875L1381.95 133.991C1377.09 131.424 1372.82 127.772 1369.15 123.014L1368.36 123.625L1367.57 124.236C1371.4 129.2 1375.88 133.048 1381.02 135.759L1381.49 134.875ZM1368.36 123.625L1369.16 123.029C1365.71 118.386 1363.94 112.226 1363.94 104.458H1362.94H1361.94C1361.94 112.524 1363.78 119.141 1367.56 124.221L1368.36 123.625ZM1362.94 104.458H1363.94C1363.94 97.4118 1365.7 90.9213 1369.22 84.9671L1368.36 84.4583L1367.5 83.9496C1363.8 90.2176 1361.94 97.0604 1361.94 104.458H1362.94ZM1368.36 84.4583L1369.22 84.9671C1372.73 79.0243 1377.8 74.2146 1384.47 70.5425L1383.99 69.6667L1383.5 68.7908C1376.56 72.6187 1371.21 77.6701 1367.5 83.9496L1368.36 84.4583ZM1383.99 69.6667L1384.47 70.5392C1391.24 66.7505 1399.4 64.8333 1408.99 64.8333V63.8333V62.8333C1399.13 62.8333 1390.62 64.805 1383.5 68.7942L1383.99 69.6667ZM1408.99 63.8333V64.8333C1417.9 64.8333 1426.18 66.3412 1433.83 69.3474L1434.19 68.4167L1434.56 67.4859C1426.66 64.381 1418.13 62.8333 1408.99 62.8333V63.8333ZM1434.19 68.4167L1433.83 69.3496C1441.69 72.3818 1447.3 75.7196 1450.77 79.3186L1451.49 78.625L1452.21 77.9314C1448.45 74.0304 1442.53 70.5627 1434.55 67.4837L1434.19 68.4167ZM1451.49 78.625L1450.52 78.3796L1442.18 111.296L1443.15 111.542L1444.12 111.787L1452.46 78.8704L1451.49 78.625ZM1443.15 111.542L1443.94 110.93C1439.13 104.706 1433.39 99.9511 1426.72 96.6851L1426.28 97.5833L1425.84 98.4816C1432.22 101.604 1437.73 106.156 1442.36 112.153L1443.15 111.542ZM1426.28 97.5833L1426.74 96.6967C1420.24 93.3062 1413.97 91.5833 1407.94 91.5833V92.5833V93.5833C1413.58 93.5833 1419.54 95.1938 1425.81 98.4699L1426.28 97.5833ZM1407.94 92.5833V91.5833C1403.4 91.5833 1399.85 92.5012 1397.5 94.536L1398.15 95.2917L1398.81 96.0474C1400.63 94.471 1403.6 93.5833 1407.94 93.5833V92.5833ZM1398.15 95.2917L1397.5 94.536C1395.24 96.4963 1394.03 98.8408 1394.03 101.542H1395.03H1396.03C1396.03 99.5203 1396.9 97.6982 1398.81 96.0474L1398.15 95.2917ZM1395.03 101.542H1394.03C1394.03 103.62 1394.83 105.634 1396.32 107.568L1397.11 106.958L1397.9 106.349C1396.61 104.671 1396.03 103.075 1396.03 101.542H1395.03ZM1397.11 106.958L1396.37 107.634C1398.05 109.461 1400.71 111.058 1404.24 112.47L1404.61 111.542L1404.98 110.613C1401.57 109.248 1399.23 107.789 1397.85 106.283L1397.11 106.958ZM1404.61 111.542L1404.26 112.479L1420.51 118.521L1420.86 117.583L1421.21 116.646L1404.96 110.604L1404.61 111.542ZM1420.86 117.583L1420.53 118.526C1425.2 120.174 1430.15 122.376 1435.39 125.135L1435.86 124.25L1436.33 123.365C1431.01 120.569 1425.97 118.326 1421.19 116.64L1420.86 117.583ZM1435.86 124.25L1435.4 125.14C1440.68 127.846 1445.15 131.635 1448.81 136.517L1449.61 135.917L1450.41 135.317C1446.57 130.199 1441.87 126.209 1436.32 123.36L1435.86 124.25ZM1449.61 135.917L1448.82 136.527C1452.39 141.155 1454.24 147.648 1454.24 156.125H1455.24H1456.24C1456.24 147.38 1454.33 140.4 1450.4 135.306L1449.61 135.917ZM1455.24 156.125H1454.24C1454.24 167.922 1449.85 177.501 1441.05 184.945L1441.69 185.708L1442.34 186.472C1451.6 178.638 1456.24 168.495 1456.24 156.125H1455.24ZM1441.69 185.708L1441.04 184.95C1432.37 192.399 1420.96 196.167 1406.69 196.167V197.167V198.167C1421.32 198.167 1433.24 194.295 1442.35 186.467L1441.69 185.708Z" fill="#FD520F" mask="url(#path-1-outside-1_115_237)"/>
</svg>
