<svg width="299" height="78" viewBox="0 0 299 78" fill="none" xmlns="http://www.w3.org/2000/svg">
<g filter="url(#filter0_d_399_431)">
<rect x="4" width="291" height="70" rx="35" fill="#FFA480"/>
</g>
<g filter="url(#filter1_d_399_431)">
<rect x="12" y="8" width="275" height="54" rx="25" fill="#FA8128"/>
</g>
<path d="M97.2844 45V24H105.009C106.149 24 107.174 24.28 108.084 24.84C108.994 25.4 109.714 26.155 110.244 27.105C110.784 28.045 111.054 29.095 111.054 30.255C111.054 31.235 110.869 32.13 110.499 32.94C110.139 33.75 109.629 34.44 108.969 35.01C108.319 35.58 107.574 35.99 106.734 36.24L111.804 45H108.189L103.269 36.525H100.404V45H97.2844ZM100.404 33.405H104.679C105.279 33.405 105.824 33.255 106.314 32.955C106.814 32.655 107.209 32.255 107.499 31.755C107.789 31.255 107.934 30.69 107.934 30.06C107.934 29.43 107.789 28.865 107.499 28.365C107.209 27.855 106.814 27.455 106.314 27.165C105.824 26.865 105.279 26.715 104.679 26.715H100.404V33.405ZM120.554 45.39C119.174 45.39 117.914 45.035 116.774 44.325C115.644 43.615 114.739 42.665 114.059 41.475C113.389 40.275 113.054 38.95 113.054 37.5C113.054 36.4 113.249 35.375 113.639 34.425C114.029 33.465 114.564 32.625 115.244 31.905C115.934 31.175 116.734 30.605 117.644 30.195C118.554 29.785 119.524 29.58 120.554 29.58C121.704 29.58 122.759 29.82 123.719 30.3C124.679 30.77 125.499 31.425 126.179 32.265C126.859 33.095 127.359 34.055 127.679 35.145C127.999 36.225 128.094 37.375 127.964 38.595H116.399C116.529 39.285 116.779 39.91 117.149 40.47C117.529 41.02 118.009 41.455 118.589 41.775C119.179 42.095 119.834 42.26 120.554 42.27C121.314 42.27 122.004 42.08 122.624 41.7C123.254 41.32 123.769 40.795 124.169 40.125L127.334 40.86C126.734 42.19 125.829 43.28 124.619 44.13C123.409 44.97 122.054 45.39 120.554 45.39ZM116.294 36.21H124.814C124.714 35.49 124.459 34.84 124.049 34.26C123.649 33.67 123.144 33.205 122.534 32.865C121.934 32.515 121.274 32.34 120.554 32.34C119.844 32.34 119.184 32.51 118.574 32.85C117.974 33.19 117.474 33.655 117.074 34.245C116.684 34.825 116.424 35.48 116.294 36.21ZM141.834 30H144.954V45.39C144.954 46.42 144.734 47.37 144.294 48.24C143.864 49.11 143.279 49.86 142.539 50.49C141.799 51.13 140.949 51.625 139.989 51.975C139.039 52.325 138.044 52.5 137.004 52.5C135.954 52.5 134.944 52.275 133.974 51.825C133.004 51.385 132.149 50.785 131.409 50.025C130.679 49.265 130.134 48.405 129.774 47.445L132.639 46.155C132.839 46.775 133.159 47.325 133.599 47.805C134.049 48.285 134.569 48.665 135.159 48.945C135.759 49.225 136.374 49.365 137.004 49.365C137.624 49.365 138.219 49.265 138.789 49.065C139.369 48.875 139.884 48.605 140.334 48.255C140.794 47.905 141.159 47.485 141.429 46.995C141.699 46.505 141.834 45.97 141.834 45.39V42.855C141.344 43.615 140.714 44.23 139.944 44.7C139.174 45.16 138.279 45.39 137.259 45.39C136.199 45.39 135.199 45.185 134.259 44.775C133.319 44.365 132.494 43.8 131.784 43.08C131.074 42.35 130.519 41.51 130.119 40.56C129.719 39.61 129.519 38.59 129.519 37.5C129.519 36.41 129.719 35.39 130.119 34.44C130.519 33.48 131.074 32.64 131.784 31.92C132.494 31.19 133.319 30.62 134.259 30.21C135.199 29.8 136.199 29.595 137.259 29.595C138.279 29.595 139.174 29.83 139.944 30.3C140.714 30.76 141.344 31.375 141.834 32.145V30ZM137.289 42.375C138.159 42.375 138.919 42.155 139.569 41.715C140.219 41.265 140.724 40.67 141.084 39.93C141.444 39.19 141.624 38.38 141.624 37.5C141.624 36.6 141.439 35.785 141.069 35.055C140.709 34.315 140.204 33.725 139.554 33.285C138.904 32.835 138.149 32.61 137.289 32.61C136.449 32.61 135.679 32.83 134.979 33.27C134.289 33.71 133.739 34.3 133.329 35.04C132.919 35.78 132.714 36.6 132.714 37.5C132.714 38.4 132.919 39.22 133.329 39.96C133.749 40.7 134.304 41.29 134.994 41.73C135.694 42.16 136.459 42.375 137.289 42.375ZM148.29 30H151.41V45H148.29V30ZM149.88 27.825C149.4 27.825 149 27.67 148.68 27.36C148.36 27.05 148.2 26.66 148.2 26.19C148.2 25.73 148.36 25.345 148.68 25.035C149 24.715 149.395 24.555 149.865 24.555C150.325 24.555 150.715 24.715 151.035 25.035C151.355 25.345 151.515 25.73 151.515 26.19C151.515 26.66 151.355 27.05 151.035 27.36C150.725 27.67 150.34 27.825 149.88 27.825ZM159.294 45.285C158.504 45.235 157.734 45.075 156.984 44.805C156.234 44.535 155.574 44.17 155.004 43.71C154.444 43.24 154.024 42.69 153.744 42.06L156.399 40.92C156.529 41.19 156.754 41.455 157.074 41.715C157.404 41.975 157.789 42.19 158.229 42.36C158.669 42.52 159.129 42.6 159.609 42.6C160.079 42.6 160.514 42.535 160.914 42.405C161.324 42.265 161.659 42.055 161.919 41.775C162.179 41.495 162.309 41.16 162.309 40.77C162.309 40.33 162.159 39.99 161.859 39.75C161.569 39.5 161.204 39.31 160.764 39.18C160.324 39.05 159.884 38.925 159.444 38.805C158.464 38.585 157.564 38.285 156.744 37.905C155.934 37.515 155.289 37.02 154.809 36.42C154.329 35.81 154.089 35.065 154.089 34.185C154.089 33.225 154.349 32.395 154.869 31.695C155.389 30.985 156.069 30.44 156.909 30.06C157.759 29.68 158.664 29.49 159.624 29.49C160.824 29.49 161.924 29.745 162.924 30.255C163.924 30.765 164.689 31.465 165.219 32.355L162.744 33.825C162.594 33.525 162.369 33.255 162.069 33.015C161.769 32.775 161.429 32.585 161.049 32.445C160.669 32.295 160.274 32.21 159.864 32.19C159.354 32.17 158.879 32.23 158.439 32.37C158.009 32.5 157.664 32.71 157.404 33C157.144 33.29 157.014 33.66 157.014 34.11C157.014 34.55 157.169 34.88 157.479 35.1C157.789 35.31 158.179 35.48 158.649 35.61C159.129 35.74 159.619 35.885 160.119 36.045C161.009 36.325 161.844 36.67 162.624 37.08C163.404 37.48 164.034 37.975 164.514 38.565C164.994 39.155 165.224 39.875 165.204 40.725C165.204 41.665 164.919 42.49 164.349 43.2C163.789 43.91 163.059 44.45 162.159 44.82C161.259 45.19 160.304 45.345 159.294 45.285ZM175.693 33.12H172.543L172.528 45H169.408L169.423 33.12H167.038V30H169.423L169.408 25.29H172.528L172.543 30H175.693V33.12ZM184.627 45.39C183.247 45.39 181.987 45.035 180.847 44.325C179.717 43.615 178.812 42.665 178.132 41.475C177.462 40.275 177.127 38.95 177.127 37.5C177.127 36.4 177.322 35.375 177.712 34.425C178.102 33.465 178.637 32.625 179.317 31.905C180.007 31.175 180.807 30.605 181.717 30.195C182.627 29.785 183.597 29.58 184.627 29.58C185.777 29.58 186.832 29.82 187.792 30.3C188.752 30.77 189.572 31.425 190.252 32.265C190.932 33.095 191.432 34.055 191.752 35.145C192.072 36.225 192.167 37.375 192.037 38.595H180.472C180.602 39.285 180.852 39.91 181.222 40.47C181.602 41.02 182.082 41.455 182.662 41.775C183.252 42.095 183.907 42.26 184.627 42.27C185.387 42.27 186.077 42.08 186.697 41.7C187.327 41.32 187.842 40.795 188.242 40.125L191.407 40.86C190.807 42.19 189.902 43.28 188.692 44.13C187.482 44.97 186.127 45.39 184.627 45.39ZM180.367 36.21H188.887C188.787 35.49 188.532 34.84 188.122 34.26C187.722 33.67 187.217 33.205 186.607 32.865C186.007 32.515 185.347 32.34 184.627 32.34C183.917 32.34 183.257 32.51 182.647 32.85C182.047 33.19 181.547 33.655 181.147 34.245C180.757 34.825 180.497 35.48 180.367 36.21ZM194.521 45V30H197.641V31.59C198.161 30.97 198.801 30.48 199.561 30.12C200.321 29.76 201.141 29.58 202.021 29.58C202.581 29.58 203.136 29.655 203.686 29.805L202.441 32.955C202.051 32.805 201.661 32.73 201.271 32.73C200.611 32.73 200.006 32.895 199.456 33.225C198.906 33.545 198.466 33.98 198.136 34.53C197.806 35.08 197.641 35.69 197.641 36.36V45H194.521Z" fill="white"/>
<defs>
<filter id="filter0_d_399_431" x="0" y="0" width="299" height="78" filterUnits="userSpaceOnUse" color-interpolation-filters="sRGB">
<feFlood flood-opacity="0" result="BackgroundImageFix"/>
<feColorMatrix in="SourceAlpha" type="matrix" values="0 0 0 0 0 0 0 0 0 0 0 0 0 0 0 0 0 0 127 0" result="hardAlpha"/>
<feOffset dy="4"/>
<feGaussianBlur stdDeviation="2"/>
<feComposite in2="hardAlpha" operator="out"/>
<feColorMatrix type="matrix" values="0 0 0 0 0 0 0 0 0 0 0 0 0 0 0 0 0 0 0.25 0"/>
<feBlend mode="normal" in2="BackgroundImageFix" result="effect1_dropShadow_399_431"/>
<feBlend mode="normal" in="SourceGraphic" in2="effect1_dropShadow_399_431" result="shape"/>
</filter>
<filter id="filter1_d_399_431" x="10" y="8" width="279" height="58" filterUnits="userSpaceOnUse" color-interpolation-filters="sRGB">
<feFlood flood-opacity="0" result="BackgroundImageFix"/>
<feColorMatrix in="SourceAlpha" type="matrix" values="0 0 0 0 0 0 0 0 0 0 0 0 0 0 0 0 0 0 127 0" result="hardAlpha"/>
<feOffset dy="2"/>
<feGaussianBlur stdDeviation="1"/>
<feComposite in2="hardAlpha" operator="out"/>
<feColorMatrix type="matrix" values="0 0 0 0 0 0 0 0 0 0 0 0 0 0 0 0 0 0 0.25 0"/>
<feBlend mode="normal" in2="BackgroundImageFix" result="effect1_dropShadow_399_431"/>
<feBlend mode="normal" in="SourceGraphic" in2="effect1_dropShadow_399_431" result="shape"/>
</filter>
</defs>
</svg>
