<svg width="378" height="40" viewBox="0 0 378 40" fill="none" xmlns="http://www.w3.org/2000/svg">
<path d="M5.73486 16H4.00635V9.10791C4.00635 8.87842 4.00879 8.64893 4.01367 8.41943C4.01855 8.18994 4.02344 7.96533 4.02832 7.74561C4.03809 7.52588 4.05029 7.31592 4.06494 7.11572C3.9624 7.22803 3.83545 7.3501 3.68408 7.48193C3.5376 7.61377 3.38135 7.75049 3.21533 7.89209L1.98486 8.87354L1.12061 7.78223L4.29932 5.29199H5.73486V16ZM12.8687 5.14551C13.4888 5.14551 14.0479 5.24316 14.5459 5.43848C15.0439 5.62891 15.4395 5.91455 15.7324 6.29541C16.0254 6.67627 16.1719 7.14746 16.1719 7.70898C16.1719 8.14355 16.0815 8.52197 15.9009 8.84424C15.7251 9.1665 15.4858 9.44971 15.1831 9.69385C14.8804 9.93311 14.541 10.1455 14.165 10.3311C14.585 10.5361 14.9707 10.7729 15.3223 11.0415C15.6787 11.3052 15.9644 11.6152 16.1792 11.9717C16.3989 12.3281 16.5088 12.7456 16.5088 13.2241C16.5088 13.8247 16.355 14.3447 16.0474 14.7842C15.7446 15.2188 15.3223 15.5557 14.7803 15.7949C14.2383 16.0293 13.606 16.1465 12.8833 16.1465C12.1069 16.1465 11.4453 16.0317 10.8984 15.8022C10.3516 15.5728 9.93652 15.2456 9.65332 14.8208C9.37012 14.3911 9.22852 13.8784 9.22852 13.2827C9.22852 12.7896 9.32617 12.3623 9.52148 12.001C9.7168 11.6396 9.97803 11.3271 10.3052 11.0635C10.6372 10.7998 11.001 10.5776 11.3965 10.397C11.0596 10.1968 10.752 9.97217 10.4736 9.72314C10.1953 9.46924 9.97314 9.17871 9.80713 8.85156C9.646 8.51953 9.56543 8.13623 9.56543 7.70166C9.56543 7.14502 9.71436 6.67871 10.0122 6.30273C10.3101 5.92188 10.708 5.63379 11.2061 5.43848C11.709 5.24316 12.2632 5.14551 12.8687 5.14551ZM10.8691 13.2168C10.8691 13.6855 11.0352 14.0713 11.3672 14.374C11.6992 14.6768 12.1948 14.8281 12.854 14.8281C13.5083 14.8281 14.0063 14.6792 14.3481 14.3813C14.6899 14.0835 14.8608 13.6904 14.8608 13.2021C14.8608 12.8896 14.7729 12.6138 14.5972 12.3745C14.4263 12.1353 14.1943 11.9229 13.9014 11.7373C13.6133 11.5469 13.2935 11.3711 12.9419 11.21L12.7075 11.1147C12.3267 11.2759 11.9995 11.459 11.7261 11.6641C11.4526 11.8643 11.2402 12.0913 11.0889 12.3452C10.9424 12.5991 10.8691 12.8896 10.8691 13.2168ZM12.854 6.47119C12.3804 6.47119 11.9897 6.58838 11.6821 6.82275C11.3794 7.05225 11.228 7.38428 11.228 7.81885C11.228 8.12646 11.3013 8.39014 11.4478 8.60986C11.5991 8.82959 11.8018 9.02002 12.0557 9.18115C12.3096 9.3374 12.5903 9.48389 12.8979 9.62061C13.1958 9.48877 13.4644 9.34473 13.7036 9.18848C13.9478 9.02734 14.1406 8.83691 14.2822 8.61719C14.4287 8.39258 14.502 8.12402 14.502 7.81152C14.502 7.38184 14.3481 7.05225 14.0405 6.82275C13.7378 6.58838 13.3423 6.47119 12.854 6.47119Z" fill="#A6A6A6"/>
<path d="M225.925 16H218.674V14.7036L221.45 11.8911C221.987 11.3442 222.429 10.873 222.775 10.4775C223.122 10.0771 223.378 9.69873 223.544 9.34229C223.715 8.98584 223.801 8.59766 223.801 8.17773C223.801 7.66016 223.652 7.26953 223.354 7.00586C223.056 6.7373 222.663 6.60303 222.175 6.60303C221.711 6.60303 221.281 6.6958 220.886 6.88135C220.495 7.06201 220.09 7.3208 219.67 7.65771L218.725 6.52246C219.023 6.26855 219.34 6.03662 219.677 5.82666C220.019 5.6167 220.4 5.45068 220.82 5.32861C221.24 5.20166 221.718 5.13818 222.255 5.13818C222.934 5.13818 223.52 5.26025 224.013 5.50439C224.506 5.74365 224.885 6.07812 225.148 6.50781C225.417 6.9375 225.551 7.43799 225.551 8.00928C225.551 8.58545 225.437 9.11768 225.207 9.60596C224.978 10.0942 224.65 10.5776 224.226 11.0562C223.801 11.5298 223.295 12.0449 222.709 12.6016L220.856 14.4106V14.4912H225.925V16ZM230.869 5.14551C231.489 5.14551 232.048 5.24316 232.546 5.43848C233.044 5.62891 233.439 5.91455 233.732 6.29541C234.025 6.67627 234.172 7.14746 234.172 7.70898C234.172 8.14355 234.082 8.52197 233.901 8.84424C233.725 9.1665 233.486 9.44971 233.183 9.69385C232.88 9.93311 232.541 10.1455 232.165 10.3311C232.585 10.5361 232.971 10.7729 233.322 11.0415C233.679 11.3052 233.964 11.6152 234.179 11.9717C234.399 12.3281 234.509 12.7456 234.509 13.2241C234.509 13.8247 234.355 14.3447 234.047 14.7842C233.745 15.2188 233.322 15.5557 232.78 15.7949C232.238 16.0293 231.606 16.1465 230.883 16.1465C230.107 16.1465 229.445 16.0317 228.898 15.8022C228.352 15.5728 227.937 15.2456 227.653 14.8208C227.37 14.3911 227.229 13.8784 227.229 13.2827C227.229 12.7896 227.326 12.3623 227.521 12.001C227.717 11.6396 227.978 11.3271 228.305 11.0635C228.637 10.7998 229.001 10.5776 229.396 10.397C229.06 10.1968 228.752 9.97217 228.474 9.72314C228.195 9.46924 227.973 9.17871 227.807 8.85156C227.646 8.51953 227.565 8.13623 227.565 7.70166C227.565 7.14502 227.714 6.67871 228.012 6.30273C228.31 5.92188 228.708 5.63379 229.206 5.43848C229.709 5.24316 230.263 5.14551 230.869 5.14551ZM228.869 13.2168C228.869 13.6855 229.035 14.0713 229.367 14.374C229.699 14.6768 230.195 14.8281 230.854 14.8281C231.508 14.8281 232.006 14.6792 232.348 14.3813C232.69 14.0835 232.861 13.6904 232.861 13.2021C232.861 12.8896 232.773 12.6138 232.597 12.3745C232.426 12.1353 232.194 11.9229 231.901 11.7373C231.613 11.5469 231.293 11.3711 230.942 11.21L230.708 11.1147C230.327 11.2759 230 11.459 229.726 11.6641C229.453 11.8643 229.24 12.0913 229.089 12.3452C228.942 12.5991 228.869 12.8896 228.869 13.2168ZM230.854 6.47119C230.38 6.47119 229.99 6.58838 229.682 6.82275C229.379 7.05225 229.228 7.38428 229.228 7.81885C229.228 8.12646 229.301 8.39014 229.448 8.60986C229.599 8.82959 229.802 9.02002 230.056 9.18115C230.31 9.3374 230.59 9.48389 230.898 9.62061C231.196 9.48877 231.464 9.34473 231.704 9.18848C231.948 9.02734 232.141 8.83691 232.282 8.61719C232.429 8.39258 232.502 8.12402 232.502 7.81152C232.502 7.38184 232.348 7.05225 232.041 6.82275C231.738 6.58838 231.342 6.47119 230.854 6.47119Z" fill="#A6A6A6"/>
<circle cx="10.5" cy="30.5" r="9.5" fill="#0843F4"/>
<rect x="16" y="30" width="362" height="3" fill="#0843F4"/>
<rect x="234" y="30" width="144" height="3" fill="#A6A6A6"/>
<circle cx="227.5" cy="30.5" r="9.5" fill="#0843F4"/>
</svg>
