<svg width="350" height="50" viewBox="0 0 350 50" fill="none" xmlns="http://www.w3.org/2000/svg">
<rect width="350" height="50" rx="10" fill="#0843F4"/>
<path d="M154.01 30.2012C154.01 31.0475 153.798 31.7702 153.375 32.3691C152.958 32.9616 152.372 33.4141 151.617 33.7266C150.862 34.0391 149.973 34.1953 148.951 34.1953C148.411 34.1953 147.9 34.1693 147.418 34.1172C146.936 34.0651 146.493 33.9902 146.09 33.8926C145.686 33.7949 145.331 33.6745 145.025 33.5312V31.9395C145.514 32.1413 146.109 32.3301 146.812 32.5059C147.516 32.6751 148.251 32.7598 149.02 32.7598C149.736 32.7598 150.341 32.6654 150.836 32.4766C151.331 32.2812 151.705 32.0046 151.959 31.6465C152.219 31.2819 152.35 30.8457 152.35 30.3379C152.35 29.8496 152.242 29.4427 152.027 29.1172C151.812 28.7852 151.454 28.4857 150.953 28.2188C150.458 27.9453 149.781 27.6556 148.922 27.3496C148.316 27.1348 147.783 26.9004 147.32 26.6465C146.858 26.3861 146.471 26.0931 146.158 25.7676C145.846 25.4421 145.608 25.0645 145.445 24.6348C145.289 24.2051 145.211 23.7135 145.211 23.1602C145.211 22.3984 145.403 21.7474 145.787 21.207C146.178 20.6602 146.715 20.2435 147.398 19.957C148.089 19.6641 148.88 19.5176 149.771 19.5176C150.533 19.5176 151.236 19.5892 151.881 19.7324C152.532 19.8757 153.128 20.0677 153.668 20.3086L153.15 21.7344C152.636 21.5195 152.089 21.3405 151.51 21.1973C150.937 21.054 150.344 20.9824 149.732 20.9824C149.12 20.9824 148.603 21.0736 148.18 21.2559C147.763 21.4316 147.444 21.6823 147.223 22.0078C147.001 22.3333 146.891 22.7207 146.891 23.1699C146.891 23.6712 146.995 24.0879 147.203 24.4199C147.418 24.752 147.757 25.0482 148.219 25.3086C148.688 25.5625 149.306 25.8294 150.074 26.1094C150.914 26.4154 151.627 26.7409 152.213 27.0859C152.799 27.4245 153.245 27.8411 153.551 28.3359C153.857 28.8242 154.01 29.446 154.01 30.2012ZM165.523 23.2969V34H164.195L163.961 32.4961H163.873C163.652 32.8672 163.365 33.1797 163.014 33.4336C162.662 33.6875 162.265 33.8763 161.822 34C161.386 34.1302 160.921 34.1953 160.426 34.1953C159.579 34.1953 158.87 34.0586 158.297 33.7852C157.724 33.5117 157.291 33.0885 156.998 32.5156C156.712 31.9427 156.568 31.207 156.568 30.3086V23.2969H158.209V30.1914C158.209 31.0833 158.411 31.7507 158.814 32.1934C159.218 32.6296 159.833 32.8477 160.66 32.8477C161.454 32.8477 162.086 32.6979 162.555 32.3984C163.03 32.099 163.372 31.6595 163.58 31.0801C163.788 30.4941 163.893 29.778 163.893 28.9316V23.2969H165.523ZM170.572 18.8047V22.6035C170.572 23.0397 170.559 23.4629 170.533 23.873C170.514 24.2832 170.497 24.6022 170.484 24.8301H170.572C170.865 24.3483 171.288 23.9414 171.842 23.6094C172.395 23.2773 173.102 23.1113 173.961 23.1113C175.302 23.1113 176.37 23.5768 177.164 24.5078C177.965 25.4323 178.365 26.8092 178.365 28.6387C178.365 29.8431 178.183 30.8587 177.818 31.6855C177.454 32.5124 176.939 33.1374 176.275 33.5605C175.611 33.9837 174.827 34.1953 173.922 34.1953C173.076 34.1953 172.379 34.0391 171.832 33.7266C171.292 33.4076 170.875 33.0202 170.582 32.5645H170.455L170.123 34H168.951V18.8047H170.572ZM173.697 24.4688C172.923 24.4688 172.307 24.6217 171.852 24.9277C171.396 25.2272 171.067 25.6829 170.865 26.2949C170.67 26.9004 170.572 27.6686 170.572 28.5996V28.6875C170.572 30.0352 170.797 31.0671 171.246 31.7832C171.695 32.4928 172.512 32.8477 173.697 32.8477C174.693 32.8477 175.439 32.4831 175.934 31.7539C176.435 31.0247 176.686 29.9831 176.686 28.6289C176.686 27.2487 176.438 26.2103 175.943 25.5137C175.455 24.8171 174.706 24.4688 173.697 24.4688ZM192.818 23.1016C193.997 23.1016 194.885 23.4108 195.484 24.0293C196.083 24.6413 196.383 25.6276 196.383 26.9883V34H194.781V27.0664C194.781 26.2005 194.592 25.5527 194.215 25.123C193.844 24.6868 193.29 24.4688 192.555 24.4688C191.52 24.4688 190.768 24.7682 190.299 25.3672C189.83 25.9661 189.596 26.8483 189.596 28.0137V34H187.984V27.0664C187.984 26.487 187.9 26.0052 187.73 25.6211C187.568 25.237 187.32 24.9505 186.988 24.7617C186.663 24.5664 186.249 24.4688 185.748 24.4688C185.038 24.4688 184.469 24.6152 184.039 24.9082C183.609 25.2012 183.297 25.6374 183.102 26.2168C182.913 26.7897 182.818 27.4961 182.818 28.3359V34H181.197V23.2969H182.506L182.75 24.8105H182.838C183.053 24.4395 183.323 24.127 183.648 23.873C183.974 23.6191 184.339 23.4271 184.742 23.2969C185.146 23.1667 185.576 23.1016 186.031 23.1016C186.845 23.1016 187.525 23.2546 188.072 23.5605C188.626 23.86 189.026 24.319 189.273 24.9375H189.361C189.713 24.319 190.195 23.86 190.807 23.5605C191.419 23.2546 192.089 23.1016 192.818 23.1016ZM201.334 23.2969V34H199.713V23.2969H201.334ZM200.543 19.293C200.81 19.293 201.038 19.3809 201.227 19.5566C201.422 19.7259 201.52 19.9928 201.52 20.3574C201.52 20.7155 201.422 20.9824 201.227 21.1582C201.038 21.334 200.81 21.4219 200.543 21.4219C200.263 21.4219 200.029 21.334 199.84 21.1582C199.658 20.9824 199.566 20.7155 199.566 20.3574C199.566 19.9928 199.658 19.7259 199.84 19.5566C200.029 19.3809 200.263 19.293 200.543 19.293ZM208.229 32.8672C208.495 32.8672 208.769 32.8444 209.049 32.7988C209.329 32.7533 209.557 32.6979 209.732 32.6328V33.8926C209.544 33.9772 209.28 34.0488 208.941 34.1074C208.609 34.166 208.284 34.1953 207.965 34.1953C207.398 34.1953 206.884 34.0977 206.422 33.9023C205.96 33.7005 205.589 33.362 205.309 32.8867C205.035 32.4115 204.898 31.7539 204.898 30.9141V24.5664H203.375V23.7754L204.908 23.1406L205.553 20.8164H206.529V23.2969H209.664V24.5664H206.529V30.8652C206.529 31.5358 206.682 32.0371 206.988 32.3691C207.301 32.7012 207.714 32.8672 208.229 32.8672Z" fill="white"/>
</svg>
